<?xml version="1.0" encoding="UTF-8" standalone="no"?>
<!-- Created with Inkscape (http://www.inkscape.org/) -->

<svg
   xmlns:dc="http://purl.org/dc/elements/1.1/"
   xmlns:cc="http://creativecommons.org/ns#"
   xmlns:rdf="http://www.w3.org/1999/02/22-rdf-syntax-ns#"
   xmlns:svg="http://www.w3.org/2000/svg"
   xmlns="http://www.w3.org/2000/svg"
   xmlns:sodipodi="http://sodipodi.sourceforge.net/DTD/sodipodi-0.dtd"
   xmlns:inkscape="http://www.inkscape.org/namespaces/inkscape"
   width="210mm"
   height="297mm"
   viewBox="0 0 210 297"
   version="1.1"
   id="svg4550"
   inkscape:version="0.92.3 (2405546, 2018-03-11)"
   sodipodi:docname="power adapter.svg"
   inkscape:export-filename="C:\dev\pengy\media\pa.png"
   inkscape:export-xdpi="300.039"
   inkscape:export-ydpi="300.039">
  <defs
     id="defs4544" />
  <sodipodi:namedview
     id="base"
     pagecolor="#ffffff"
     bordercolor="#666666"
     borderopacity="1.0"
     inkscape:pageopacity="0.0"
     inkscape:pageshadow="2"
     inkscape:zoom="3.959798"
     inkscape:cx="111.52001"
     inkscape:cy="1042.2673"
     inkscape:document-units="mm"
     inkscape:current-layer="layer1"
     showgrid="false"
     inkscape:window-width="1553"
     inkscape:window-height="851"
     inkscape:window-x="810"
     inkscape:window-y="101"
     inkscape:window-maximized="0" />
  <metadata
     id="metadata4547">
    <rdf:RDF>
      <cc:Work
         rdf:about="">
        <dc:format>image/svg+xml</dc:format>
        <dc:type
           rdf:resource="http://purl.org/dc/dcmitype/StillImage" />
        <dc:title></dc:title>
      </cc:Work>
    </rdf:RDF>
  </metadata>
  <g
     inkscape:label="Layer 1"
     inkscape:groupmode="layer"
     id="layer1">
    <rect
       style="opacity:1;fill:#000000;fill-opacity:0;stroke:#000000;stroke-width:0.075;stroke-miterlimit:4;stroke-dasharray:none;stroke-dashoffset:0;stroke-opacity:0.98492462"
       id="rect5097"
       width="23"
       height="19"
       x="4.1426783"
       y="5.0080409"
       ry="2.5" />
    <g
       id="g5142"
       transform="matrix(0,-1.0531707,1.0531707,0,-1.9212261,28.17957)">
      <path
         inkscape:connector-curvature="0"
         id="path1474"
         d="m 9.9740487,21.182637 c -0.2028497,-0.0015 -0.4472406,-0.02189 -0.5430926,-0.0454 -0.095852,-0.02352 -0.2313109,-0.06673 -0.3010227,-0.09605 -0.06971,-0.0293 -0.167653,-0.08235 -0.2176507,-0.117878 -0.049995,-0.03553 -0.1319878,-0.129368 -0.1821993,-0.208543 -0.066384,-0.104676 -0.091209,-0.183322 -0.090995,-0.28826 2.521e-4,-0.100649 0.027909,-0.192432 0.091548,-0.303388 0.050188,-0.0875 0.1566761,-0.219389 0.2366435,-0.2931 0.079967,-0.07371 0.1599724,-0.134022 0.1777894,-0.134022 0.017814,0 0.032396,-0.01196 0.032396,-0.02659 0,-0.01463 -0.032082,-0.04133 -0.071293,-0.05932 -0.039213,-0.018 -0.1895394,-0.122141 -0.3340605,-0.231432 C 8.6275914,19.269369 8.4223102,19.085741 8.3159337,18.970602 8.2095556,18.85546 8.0479191,18.647183 7.956741,18.507762 7.8655621,18.368341 7.7482338,18.168717 7.6960089,18.06415 7.6437848,17.959585 7.5626718,17.767157 7.5157589,17.636534 7.4688499,17.505908 7.3961206,17.266858 7.3541468,17.10531 7.31217,16.943762 7.2551387,16.672774 7.227403,16.503116 7.199663,16.333456 7.164526,15.916594 7.149316,15.576756 7.134106,15.236918 7.120795,14.955205 7.119755,14.95073 c -0.00107,-0.0043 -0.1052848,0.07932 -0.2316355,0.186226 -0.1263495,0.106902 -0.3143086,0.234846 -0.4176853,0.28432 -0.1033764,0.04947 -0.2484622,0.09903 -0.3224115,0.110118 -0.075705,0.01135 -0.1832583,0.004 -0.2461477,-0.0167 -0.061437,-0.02027 -0.1537293,-0.08473 -0.2050966,-0.143232 -0.051369,-0.0585 -0.1255833,-0.189528 -0.1649235,-0.291166 -0.056331,-0.145536 -0.074632,-0.270148 -0.086142,-0.586567 -0.011122,-0.30591 -0.00173,-0.459749 0.039447,-0.644771 0.032097,-0.144269 0.1229736,-0.380132 0.2236693,-0.580512 0.093844,-0.186746 0.2631266,-0.45392 0.3789661,-0.598112 0.1151473,-0.143333 0.312064,-0.35289 0.4375931,-0.465684 0.1255293,-0.112795 0.3310819,-0.282026 0.4567835,-0.376069 0.1257014,-0.09405 0.2903784,-0.20379 0.365949,-0.243879 l 0.1373993,-0.07289 0.1025713,-0.426551 C 7.6445047,10.850644 7.7694788,10.435612 7.8658125,10.162953 7.9621457,9.8902941 8.1384721,9.4675841 8.2576501,9.2235991 8.3768272,8.9796121 8.5690079,8.6382107 8.6847169,8.4649292 8.8004271,8.2916485 8.9716461,8.056376 9.0652067,7.9421018 9.158765,7.827827 9.3399333,7.6320261 9.4678038,7.5069894 9.5956728,7.381951 9.7644586,7.2263969 9.8428836,7.1613134 9.9213066,7.0962304 10.101248,6.9679419 10.242751,6.8762292 c 0.141505,-0.091715 0.35822,-0.2175842 0.481593,-0.2797116 0.123371,-0.062127 0.413976,-0.1760944 0.645788,-0.2532565 0.232042,-0.077239 0.577742,-0.1645828 0.769163,-0.1943357 0.277704,-0.043163 0.478611,-0.0507 0.998126,-0.03745 0.545179,0.013908 0.70428,0.029417 0.983147,0.095846 0.182991,0.043586 0.504521,0.1418651 0.714513,0.2183898 0.227326,0.082839 0.520033,0.2218761 0.723444,0.3436374 0.187905,0.1124781 0.465719,0.304318 0.61737,0.4263105 0.15165,0.121994 0.383076,0.3358783 0.514282,0.475298 0.131205,0.1394219 0.325127,0.3675643 0.430936,0.5069863 0.105811,0.1394196 0.285895,0.4103408 0.400187,0.6020442 0.114292,0.1917035 0.301538,0.5647325 0.4161,0.8289535 0.125853,0.290262 0.275969,0.7166689 0.379276,1.0773439 0.09404,0.328316 0.181042,0.650795 0.193338,0.716614 0.01934,0.103528 0.05072,0.1382 0.232556,0.256989 0.115608,0.07553 0.312777,0.22163 0.43815,0.32468 0.125373,0.103045 0.333465,0.301098 0.462426,0.440113 0.128964,0.139015 0.301705,0.351119 0.383868,0.471345 0.08216,0.120225 0.182223,0.284204 0.222352,0.364394 0.04013,0.08019 0.10273,0.238488 0.139122,0.351767 0.0364,0.113279 0.08115,0.290572 0.09947,0.393981 0.01831,0.103404 0.0333,0.276826 0.0333,0.385373 0,0.108543 -0.02068,0.305473 -0.04596,0.437616 -0.02528,0.132143 -0.07325,0.300942 -0.106598,0.375105 -0.03334,0.07417 -0.09684,0.168115 -0.141087,0.208784 -0.04425,0.04067 -0.134813,0.0862 -0.201247,0.101178 -0.07371,0.01664 -0.182964,0.01427 -0.280319,-0.0061 -0.08774,-0.01831 -0.232315,-0.0744 -0.321274,-0.124635 -0.08895,-0.05025 -0.260068,-0.169777 -0.38024,-0.265621 l -0.218494,-0.174265 -0.02274,0.435365 c -0.01251,0.239452 -0.04518,0.613604 -0.07261,0.831449 -0.02743,0.217846 -0.08334,0.545802 -0.124265,0.728791 -0.04091,0.18299 -0.127659,0.475298 -0.192761,0.649573 -0.0651,0.174277 -0.167945,0.415651 -0.228547,0.536388 -0.0606,0.120738 -0.186571,0.327494 -0.279935,0.459456 -0.09336,0.131962 -0.266581,0.34021 -0.384923,0.462775 -0.118344,0.122561 -0.3321,0.306355 -0.475015,0.408428 l -0.259847,0.185589 0.20392,0.197011 c 0.112153,0.108353 0.232336,0.259648 0.267069,0.336204 0.03474,0.07656 0.06348,0.193233 0.06386,0.259282 3.59e-4,0.06605 -0.02644,0.172989 -0.05959,0.237648 -0.03316,0.06467 -0.0938,0.148821 -0.134762,0.187025 -0.04095,0.03821 -0.155449,0.106543 -0.254422,0.151848 -0.09897,0.04532 -0.298554,0.104923 -0.443518,0.132476 -0.191982,0.03649 -0.366843,0.04538 -0.643807,0.03273 -0.254961,-0.01164 -0.48284,-0.04386 -0.691626,-0.09775 -0.171261,-0.04422 -0.38858,-0.115729 -0.482933,-0.158923 -0.09435,-0.04319 -0.251961,-0.131912 -0.350242,-0.197147 -0.09828,-0.06524 -0.225278,-0.166578 -0.282216,-0.225205 l -0.103528,-0.106599 -0.892651,-0.0064 -0.892651,-0.0064 -0.152154,0.146658 c -0.08368,0.08067 -0.250248,0.204647 -0.37014,0.275519 -0.119893,0.07087 -0.328819,0.1648 -0.464284,0.208731 -0.135465,0.04393 -0.361617,0.101751 -0.502562,0.128484 -0.14644,0.02778 -0.414328,0.04747 -0.6250837,0.04598 z m 2.9311493,-2.854478 c 0.333635,0.0029 0.754274,-0.0091 0.934754,-0.02674 0.18048,-0.01763 0.442216,-0.05388 0.581636,-0.08053 0.139422,-0.02667 0.395859,-0.09211 0.569863,-0.145434 0.174005,-0.05333 0.387888,-0.132811 0.475299,-0.176618 0.08741,-0.0438 0.244482,-0.136649 0.349048,-0.206319 0.104562,-0.06967 0.28732,-0.221307 0.406118,-0.336971 0.118802,-0.115665 0.291203,-0.331498 0.383116,-0.479634 0.09191,-0.148134 0.203827,-0.362018 0.248702,-0.475297 0.04486,-0.113281 0.118263,-0.341423 0.163088,-0.506986 0.04483,-0.165561 0.104102,-0.443611 0.131728,-0.617888 0.02763,-0.174275 0.05805,-0.623434 0.0676,-0.998125 0.0097,-0.380915 0.0015,-0.925728 -0.01872,-1.235776 -0.01986,-0.304982 -0.06502,-0.754139 -0.100347,-0.998126 -0.03533,-0.243992 -0.107587,-0.636113 -0.160575,-0.871386 -0.05299,-0.235272 -0.146679,-0.556099 -0.20821,-0.712946 -0.06153,-0.156849 -0.16842,-0.394884 -0.23753,-0.5289649 -0.06911,-0.134081 -0.218697,-0.352831 -0.332417,-0.48611 -0.113837,-0.133415 -0.291528,-0.297112 -0.395368,-0.364225 -0.103732,-0.06705 -0.281602,-0.152849 -0.395266,-0.190674 -0.157062,-0.05226 -0.280189,-0.06841 -0.51302,-0.06727 -0.175826,8.43e-4 -0.386351,0.02303 -0.494104,0.05202 -0.103259,0.02779 -0.259125,0.08925 -0.346366,0.136606 -0.08725,0.04735 -0.273673,0.191717 -0.414295,0.320808 -0.140624,0.129092 -0.312716,0.260674 -0.382427,0.292404 -0.06971,0.03173 -0.169523,0.05793 -0.221805,0.05821 -0.05228,2.52e-4 -0.145923,-0.01361 -0.208087,-0.03088 -0.07167,-0.01991 -0.219244,-0.129695 -0.403323,-0.300045 -0.159664,-0.147757 -0.372591,-0.310105 -0.473176,-0.360775 -0.100581,-0.05067 -0.264903,-0.109083 -0.365155,-0.129809 -0.100256,-0.02073 -0.308063,-0.03768 -0.4618,-0.03768 -0.189584,0 -0.336127,0.01911 -0.455462,0.0594 -0.09677,0.03266 -0.257562,0.108548 -0.35732,0.168618 -0.09976,0.06007 -0.263684,0.196922 -0.3642802,0.304115 -0.100596,0.107192 -0.2544122,0.313947 -0.3418139,0.459456 -0.087401,0.145507 -0.2098842,0.4015459 -0.2721847,0.5689729 -0.062296,0.167428 -0.1550447,0.453182 -0.2061017,0.635009 -0.051052,0.181827 -0.1156487,0.465478 -0.1435391,0.63034 -0.027893,0.164858 -0.07209,0.485109 -0.098224,0.711669 -0.02613,0.226559 -0.06176,0.647199 -0.079163,0.934754 -0.017408,0.287556 -0.031776,0.724506 -0.031929,0.971004 -1.317e-4,0.246497 0.01449,0.59584 0.032549,0.776321 0.018059,0.180479 0.053657,0.439969 0.079108,0.576646 0.02545,0.136677 0.068867,0.336302 0.096471,0.443611 0.027601,0.107308 0.1306014,0.35712 0.2288807,0.555133 0.1313965,0.264737 0.2376429,0.425932 0.4014483,0.609066 0.1225186,0.136972 0.3154437,0.31529 0.4287226,0.396258 0.113279,0.08097 0.320172,0.201656 0.459761,0.268192 0.139589,0.06654 0.40545,0.163558 0.590805,0.215604 0.185353,0.05205 0.484654,0.116913 0.665111,0.144146 0.180459,0.02724 0.385142,0.05446 0.454852,0.06052 0.06971,0.0061 0.399721,0.0134 0.733355,0.01634 z m 0.06192,-5.858914 c -0.05641,-0.0013 -0.352219,-0.127789 -0.695509,-0.297454 -0.328539,-0.162372 -0.619232,-0.31711 -0.645987,-0.343864 -0.02676,-0.02676 -0.04049,-0.06989 -0.03053,-0.09582 0.01001,-0.02595 0.297284,-0.183905 0.6385,-0.351007 0.439652,-0.215311 0.654115,-0.303825 0.736145,-0.303825 0.08057,0 0.299601,0.08787 0.720435,0.289032 0.332573,0.158966 0.624453,0.307579 0.648621,0.330253 0.02416,0.02267 0.0354,0.06347 0.02497,0.09067 -0.01046,0.02719 -0.30686,0.19228 -0.658722,0.366852 -0.416245,0.206517 -0.674041,0.316625 -0.737917,0.315175 z m -1.825084,-1.339912 c -0.07843,0.0053 -0.200156,-0.01149 -0.270515,-0.03741 -0.07036,-0.02592 -0.179584,-0.08971 -0.242725,-0.14175 -0.06314,-0.05205 -0.144599,-0.156185 -0.181018,-0.231418 -0.04463,-0.09219 -0.06622,-0.198825 -0.06622,-0.327065 0,-0.144781 0.02083,-0.231373 0.08713,-0.362158 0.06494,-0.1281149 0.126089,-0.1956599 0.240104,-0.2652539 0.109375,-0.06677 0.205479,-0.09717 0.337271,-0.106699 0.101369,-0.0074 0.233651,0.003 0.293959,0.02285 0.06031,0.01991 0.169252,0.08721 0.2421,0.14956 0.07285,0.06236 0.161901,0.1711029 0.197898,0.2416619 0.04323,0.08473 0.06545,0.188935 0.06545,0.306895 0,0.09823 -0.0211,0.229122 -0.0469,0.290864 -0.0258,0.06174 -0.09952,0.163363 -0.163835,0.225822 -0.06432,0.06245 -0.169397,0.138501 -0.233521,0.168979 -0.06412,0.03049 -0.180755,0.05978 -0.259178,0.06513 z m -0.176782,-0.685798 c 0.04024,0 0.110748,-0.02955 0.156667,-0.06567 0.06119,-0.04813 0.08349,-0.09469 0.08349,-0.174274 0,-0.06635 -0.02466,-0.133257 -0.06337,-0.171978 -0.04139,-0.0414 -0.10562,-0.06338 -0.185208,-0.06338 -0.07944,0 -0.140787,0.02094 -0.176305,0.06019 -0.02996,0.0331 -0.05579,0.106775 -0.05742,0.163712 -0.0021,0.07556 0.02028,0.123506 0.08301,0.177462 0.04728,0.04067 0.118885,0.07394 0.159132,0.07394 z m 3.854592,0.695713 c -0.04477,-7.33e-4 -0.137598,-0.02141 -0.2063,-0.0459 -0.0687,-0.02447 -0.161385,-0.07122 -0.205962,-0.103876 -0.04458,-0.03266 -0.126576,-0.126467 -0.18222,-0.208472 -0.05565,-0.08201 -0.110523,-0.211496 -0.121964,-0.287757 -0.01345,-0.08971 -0.0034,-0.198562 0.02854,-0.30834 0.02879,-0.09903 0.0945,-0.2189929 0.157794,-0.2880989 0.05964,-0.06513 0.170765,-0.146685 0.246911,-0.181237 0.08091,-0.03672 0.208,-0.06311 0.305818,-0.06351 0.09206,-3.59e-4 0.214291,0.01891 0.27164,0.04287 0.05735,0.02396 0.158941,0.09157 0.225764,0.150239 0.06682,0.05867 0.147459,0.1638309 0.179196,0.2336929 0.03411,0.07507 0.05798,0.202042 0.05839,0.310477 4.56e-4,0.119714 -0.02049,0.225003 -0.0603,0.303021 -0.03355,0.06575 -0.115535,0.172602 -0.182197,0.237431 -0.07311,0.0711 -0.183196,0.136311 -0.277464,0.164356 -0.08595,0.02556 -0.192887,0.04586 -0.23765,0.04509 z m -0.107362,-0.695713 c 0.042,0 0.111377,-0.035 0.154159,-0.07778 0.04852,-0.04853 0.07778,-0.114067 0.07778,-0.174277 0,-0.05424 -0.02774,-0.124244 -0.06337,-0.159872 -0.03485,-0.03486 -0.08832,-0.06502 -0.118825,-0.06702 -0.0305,-0.0019 -0.08397,-7.34e-4 -0.118824,0.0029 -0.03485,0.0036 -0.08832,0.02886 -0.118825,0.05609 -0.03427,0.03058 -0.05545,0.09517 -0.05545,0.169029 0,0.0914 0.01966,0.134996 0.08349,0.185209 0.04591,0.03612 0.117863,0.06567 0.159873,0.06567 z"
         style="fill:#9d9b9c;stroke-width:0.03168656" />
      <path
         inkscape:connector-curvature="0"
         id="path1472"
         d="m 9.9740487,21.182637 c -0.2028497,-0.0015 -0.4472406,-0.02189 -0.5430926,-0.0454 -0.095852,-0.02352 -0.2313109,-0.06673 -0.3010227,-0.09605 -0.06971,-0.0293 -0.167653,-0.08235 -0.2176507,-0.117878 -0.049995,-0.03553 -0.1319878,-0.129368 -0.1821993,-0.208543 -0.066384,-0.104676 -0.091209,-0.183322 -0.090995,-0.28826 2.521e-4,-0.100649 0.027909,-0.192432 0.091548,-0.303388 0.050188,-0.0875 0.1544765,-0.217362 0.2317551,-0.288595 0.077277,-0.07123 0.1608485,-0.138671 0.1857105,-0.149862 0.036523,-0.01644 0.037151,-0.02405 0.00322,-0.03961 C 9.1282515,19.634478 8.9714028,19.523045 8.8027655,19.397464 8.6341287,19.271896 8.3938999,19.053203 8.2689228,18.911493 8.143945,18.769784 7.961016,18.518652 7.8624136,18.35342 7.7638114,18.188188 7.6436455,17.955696 7.5953771,17.83677 7.5471124,17.717844 7.4628356,17.469581 7.4081056,17.285071 7.3533772,17.100562 7.278574,16.779736 7.2418792,16.572124 c -0.045507,-0.257477 -0.072182,-0.576421 -0.0839,-1.003286 -0.00945,-0.344197 -0.021995,-0.62581 -0.027877,-0.62581 -0.00589,0 -0.1278918,0.09462 -0.2711331,0.210262 -0.1432406,0.115646 -0.3324389,0.243622 -0.4204387,0.284394 -0.088002,0.04077 -0.2196298,0.08308 -0.2925099,0.094 -0.073761,0.01101 -0.1820284,0.0035 -0.2442041,-0.01699 -0.061432,-0.02027 -0.1537231,-0.08473 -0.2050909,-0.143235 -0.051371,-0.05851 -0.1255832,-0.189528 -0.1649229,-0.291166 -0.056331,-0.145535 -0.074632,-0.270148 -0.086142,-0.586566 -0.011111,-0.305637 -0.00168,-0.459794 0.039333,-0.644261 0.030242,-0.135933 0.1214103,-0.377247 0.2074728,-0.549157 0.084439,-0.168668 0.2286651,-0.406333 0.3205048,-0.528143 0.091839,-0.121809 0.2748446,-0.328413 0.4066777,-0.45912 0.1318337,-0.130708 0.3562617,-0.325473 0.4987303,-0.432811 0.1424693,-0.10734 0.3304538,-0.235307 0.4177435,-0.284374 0.157471,-0.08852 0.1591062,-0.09106 0.209823,-0.327667 0.028115,-0.13115 0.086832,-0.362907 0.1304852,-0.515015 0.043654,-0.152113 0.1502612,-0.47294 0.2369085,-0.712952 C 7.9999874,9.8002151 8.1697752,9.4073321 8.2906472,9.1671581 8.4115192,8.9269831 8.6280769,8.5562504 8.7718865,8.3433074 8.9640732,8.058731 9.1427059,7.8469451 9.4460166,7.5440577 9.7079618,7.282478 9.9628258,7.0627479 10.143852,6.9424218 10.3007,6.838167 10.558505,6.6874897 10.716753,6.6075835 c 0.158248,-0.079908 0.445607,-0.1977339 0.638578,-0.2618364 0.19297,-0.064103 0.517635,-0.1450633 0.721475,-0.1799108 0.269868,-0.046136 0.515342,-0.063359 0.902993,-0.063359 0.389734,0 0.632971,0.017185 0.90784,0.064149 0.206506,0.035284 0.545884,0.1221204 0.754173,0.1929786 0.208291,0.070857 0.49347,0.1864098 0.633732,0.2567795 0.140262,0.070366 0.390482,0.2173459 0.556046,0.3266138 0.165561,0.1092692 0.448658,0.338241 0.629102,0.5088273 0.180443,0.1705864 0.430861,0.4393982 0.556484,0.5973579 0.125623,0.1579604 0.331951,0.4564976 0.458509,0.663418 0.126557,0.2069187 0.324074,0.5919097 0.438928,0.8555367 0.114851,0.263627 0.269924,0.6824519 0.344604,0.9307249 0.07468,0.248273 0.167564,0.580981 0.206402,0.739351 0.07036,0.28687 0.07122,0.288328 0.231327,0.390964 0.08839,0.05666 0.28737,0.205289 0.442182,0.330288 0.154809,0.124997 0.385153,0.339864 0.511873,0.47748 0.126721,0.137615 0.301017,0.354966 0.387323,0.483003 0.08631,0.128035 0.18725,0.292358 0.224314,0.365168 0.03707,0.07281 0.104035,0.258172 0.148833,0.411924 0.04479,0.153753 0.08957,0.393621 0.0995,0.533043 0.0099,0.139422 0.0017,0.358167 -0.01828,0.486101 -0.01999,0.127934 -0.06464,0.313145 -0.09923,0.411579 -0.03459,0.09843 -0.105137,0.221202 -0.156746,0.272813 -0.08028,0.08029 -0.123195,0.09571 -0.29702,0.106779 -0.172013,0.0109 -0.233891,-8.42e-4 -0.403374,-0.07691 -0.110107,-0.04941 -0.314976,-0.180397 -0.455269,-0.291078 l -0.255077,-0.201237 -0.0077,0.137114 c -0.0041,0.07542 -0.02262,0.347412 -0.0409,0.604443 -0.0183,0.257032 -0.06154,0.642024 -0.0961,0.855539 -0.03456,0.213513 -0.09192,0.495148 -0.127453,0.625856 -0.03554,0.130706 -0.121099,0.377849 -0.190144,0.549205 -0.06904,0.171358 -0.160438,0.380441 -0.203102,0.464632 -0.04267,0.0842 -0.144311,0.25056 -0.225882,0.369706 -0.08156,0.119146 -0.256629,0.328454 -0.389014,0.46513 -0.13239,0.136675 -0.345057,0.326428 -0.472594,0.42167 -0.127535,0.09524 -0.251865,0.180833 -0.276285,0.190203 -0.03028,0.01162 0.0031,0.05463 0.105136,0.135269 0.08225,0.06504 0.189482,0.170616 0.238299,0.234644 0.04881,0.06402 0.109421,0.165858 0.134669,0.226286 0.02524,0.06043 0.0459,0.160806 0.0459,0.223057 0,0.06224 -0.02713,0.166087 -0.06029,0.230746 -0.03317,0.06467 -0.0938,0.148821 -0.134761,0.187026 -0.04095,0.03821 -0.155448,0.106542 -0.254421,0.151847 -0.09897,0.04531 -0.298555,0.104922 -0.443518,0.132477 -0.191984,0.03649 -0.366843,0.04538 -0.643807,0.03272 -0.255354,-0.01167 -0.484315,-0.04405 -0.697107,-0.09864 -0.174276,-0.04469 -0.416677,-0.130448 -0.538671,-0.190551 -0.121994,-0.06011 -0.300129,-0.167851 -0.395857,-0.23944 -0.09572,-0.07159 -0.19311,-0.161582 -0.216402,-0.199983 -0.04206,-0.06935 -0.0485,-0.06982 -0.945038,-0.06982 h -0.902685 l -0.152195,0.146659 c -0.0837,0.08066 -0.250288,0.204646 -0.37018,0.275518 -0.11989,0.07087 -0.328819,0.1648 -0.464283,0.208731 -0.135463,0.04393 -0.361616,0.101751 -0.502564,0.128484 -0.14644,0.02778 -0.414326,0.04747 -0.6250812,0.04598 z m 3.2592943,-2.839475 c 0.2527,-0.0077 0.626212,-0.03453 0.830029,-0.05952 0.203815,-0.02498 0.536236,-0.08813 0.738709,-0.140336 0.202472,-0.05221 0.472349,-0.143071 0.599728,-0.201923 0.127375,-0.05885 0.322538,-0.168519 0.433693,-0.243706 0.111154,-0.07519 0.28447,-0.214951 0.385145,-0.310589 0.100672,-0.09563 0.249285,-0.274437 0.330247,-0.397329 0.08097,-0.122895 0.201498,-0.339299 0.267853,-0.480901 0.06635,-0.1416 0.162402,-0.419944 0.213436,-0.618542 0.05103,-0.198599 0.115487,-0.537067 0.143227,-0.752153 0.03428,-0.265817 0.05043,-0.643299 0.05043,-1.178599 0,-0.433142 -0.0151,-0.970108 -0.03356,-1.193261 -0.01846,-0.22315 -0.06112,-0.588878 -0.09481,-0.812728 -0.03368,-0.22385 -0.0984,-0.572625 -0.143799,-0.775059 -0.0454,-0.202432 -0.118061,-0.468439 -0.161467,-0.591125 -0.0434,-0.122687 -0.155774,-0.379916 -0.249707,-0.571621 -0.112438,-0.2294789 -0.238802,-0.4278569 -0.36989,-0.5806979 -0.109509,-0.12768 -0.283539,-0.287665 -0.386733,-0.35552 -0.103192,-0.06786 -0.274136,-0.153396 -0.379873,-0.190089 -0.105732,-0.03669 -0.30632,-0.07414 -0.445741,-0.08321 -0.169459,-0.011031 -0.332273,2.4e-4 -0.491141,0.03384 -0.130706,0.02769 -0.324636,0.09306 -0.430952,0.145284 -0.108094,0.05309 -0.306477,0.19916 -0.450042,0.33136 -0.141206,0.130026 -0.303752,0.261019 -0.361212,0.291098 -0.05747,0.03008 -0.168638,0.05469 -0.247061,0.05469 -0.07843,0 -0.192496,-0.02562 -0.253493,-0.05695 -0.061,-0.03132 -0.219622,-0.162013 -0.352503,-0.290425 -0.172777,-0.16697 -0.30926,-0.265611 -0.479133,-0.346282 -0.175147,-0.08318 -0.313554,-0.122402 -0.526957,-0.149338 -0.22365,-0.028229 -0.341593,-0.027693 -0.518992,0.0024 -0.126265,0.0214 -0.335879,0.08914 -0.46581,0.150542 -0.182327,0.08617 -0.287177,0.164953 -0.4594545,0.345268 -0.1290345,0.135053 -0.2883558,0.348517 -0.3775994,0.505919 -0.08491,0.149759 -0.1887411,0.3573539 -0.2307348,0.4613209 -0.041992,0.103967 -0.11749,0.322669 -0.167768,0.486006 -0.050278,0.163334 -0.1273527,0.45949 -0.1712757,0.658118 -0.043922,0.198631 -0.1017874,0.539383 -0.1285872,0.757227 -0.026797,0.217847 -0.063284,0.595709 -0.081082,0.839695 -0.017799,0.243986 -0.032411,0.768564 -0.032481,1.165729 -6.36e-5,0.397166 0.014642,0.860581 0.032695,1.029814 0.018051,0.169232 0.069317,0.456281 0.1139333,0.637887 0.044612,0.181605 0.1343949,0.453038 0.1995184,0.603187 0.065121,0.150147 0.1728035,0.358034 0.2392918,0.461972 0.066485,0.103934 0.212907,0.284294 0.3253775,0.400793 0.1124707,0.1165 0.3029756,0.277893 0.4233436,0.35865 0.120367,0.08075 0.324782,0.195778 0.454257,0.255598 0.129474,0.05982 0.396717,0.150179 0.593876,0.200797 0.197157,0.05061 0.47124,0.10896 0.609071,0.129638 0.137833,0.02069 0.430141,0.04877 0.649575,0.06241 0.219434,0.01364 0.605726,0.01846 0.858426,0.01068 z m -0.237649,-5.883476 c -0.07428,0.01133 -0.237071,-0.05681 -0.744634,-0.311641 -0.519735,-0.260953 -0.649575,-0.338812 -0.649575,-0.389519 0,-0.05074 0.120026,-0.122523 0.602045,-0.360077 0.35589,-0.175392 0.656633,-0.30334 0.735556,-0.312934 0.119043,-0.01447 0.194592,0.01337 0.697106,0.257027 0.309975,0.150291 0.599239,0.291659 0.642807,0.31415 0.04368,0.02254 0.07921,0.06878 0.07921,0.103057 0,0.04929 -0.131165,0.126657 -0.633732,0.373797 -0.348553,0.171401 -0.676508,0.318166 -0.728791,0.326145 z m -1.892254,-1.35143 c -0.09352,-3.59e-4 -0.224076,-0.02645 -0.295887,-0.05908 -0.07068,-0.0321 -0.181246,-0.11998 -0.245697,-0.195276 -0.06445,-0.07529 -0.131305,-0.187738 -0.148566,-0.249874 -0.01726,-0.06213 -0.03115,-0.17001 -0.03087,-0.23972 2.52e-4,-0.0697 0.02962,-0.190912 0.06516,-0.269335 0.03555,-0.07843 0.09584,-0.1765609 0.133972,-0.2180789 0.03813,-0.04152 0.140623,-0.109109 0.22776,-0.150201 0.08879,-0.04187 0.218083,-0.07485 0.294119,-0.07502 0.07463,-1.32e-4 0.185128,0.02035 0.245558,0.04559 0.06042,0.02524 0.160725,0.0847 0.222875,0.132099 0.06216,0.0474 0.143802,0.144383 0.181445,0.2155059 0.05184,0.09793 0.06813,0.18314 0.0672,0.351122 -7.65e-4,0.142009 -0.01989,0.257161 -0.05307,0.320083 -0.02849,0.05406 -0.104989,0.144955 -0.169964,0.202005 -0.06498,0.05705 -0.16506,0.123333 -0.222406,0.147293 -0.05735,0.02395 -0.179585,0.04325 -0.27164,0.04287 z m -0.155561,-0.664721 c 0.05165,0 0.11699,-0.0089 0.145202,-0.01968 0.02822,-0.01083 0.07216,-0.06002 0.09765,-0.109329 0.0255,-0.04931 0.04636,-0.110649 0.04636,-0.136318 0,-0.02567 -0.03691,-0.09055 -0.08203,-0.144164 -0.05601,-0.06656 -0.110477,-0.09749 -0.171685,-0.09749 -0.04931,0 -0.112733,0.0089 -0.140945,0.01968 -0.02821,0.01083 -0.07216,0.06003 -0.09765,0.109331 -0.02549,0.04931 -0.04635,0.119521 -0.04635,0.156033 0,0.03652 0.03499,0.101386 0.07778,0.144163 0.04758,0.04758 0.114227,0.07778 0.171685,0.07778 z m 3.899396,0.664721 c -0.0997,-3.59e-4 -0.225551,-0.02545 -0.298939,-0.0595 -0.06971,-0.03235 -0.172365,-0.106891 -0.228123,-0.165659 -0.05576,-0.05876 -0.123487,-0.159863 -0.150511,-0.224658 -0.02703,-0.0648 -0.04913,-0.190017 -0.04913,-0.278274 0,-0.08826 0.01922,-0.206352 0.04272,-0.262432 0.0235,-0.05609 0.08352,-0.1503439 0.133374,-0.2094729 0.04986,-0.05913 0.162522,-0.140981 0.250371,-0.181888 0.08785,-0.04092 0.20973,-0.07452 0.27084,-0.07468 0.06111,-1.32e-4 0.159684,0.01361 0.219048,0.03064 0.05937,0.01703 0.16355,0.0695 0.231523,0.116602 0.06797,0.0471 0.158273,0.144835 0.20067,0.2171799 0.04239,0.07234 0.08619,0.197908 0.0973,0.279029 0.01182,0.08633 0.0038,0.206258 -0.01947,0.289209 -0.02182,0.07794 -0.08794,0.198095 -0.146917,0.267003 -0.05898,0.0689 -0.168741,0.155058 -0.243907,0.191446 -0.08814,0.04268 -0.1978,0.06591 -0.30886,0.06546 z m -0.141947,-0.664721 c 0.0701,0 0.136175,-0.02383 0.175716,-0.06338 0.04045,-0.04045 0.06337,-0.105622 0.06337,-0.180155 0,-0.0763 -0.02388,-0.14221 -0.0689,-0.190119 -0.04559,-0.04854 -0.105023,-0.07334 -0.175717,-0.07334 -0.07116,0 -0.132779,0.02596 -0.184595,0.07778 -0.04902,0.04903 -0.07778,0.11398 -0.07778,0.175718 0,0.06173 0.02875,0.126689 0.07778,0.175715 0.05332,0.05332 0.113089,0.07778 0.190119,0.07778 z"
         style="fill:#cc8a6d;stroke-width:0.03168656" />
      <path
         inkscape:connector-curvature="0"
         id="path1470"
         d="M 9.9733986,21.1823 C 9.8406174,21.180732 9.6361088,21.160246 9.5189329,21.13692 9.4017583,21.113603 9.2197881,21.055882 9.114555,21.008658 9.0089542,20.961267 8.8745326,20.868898 8.8145572,20.802512 c -0.059767,-0.06616 -0.1260217,-0.178204 -0.1472321,-0.249 -0.02934,-0.09792 -0.029938,-0.157502 -0.00254,-0.249047 0.019829,-0.06618 0.082007,-0.189713 0.1381745,-0.27451 0.056168,-0.08479 0.1634009,-0.197369 0.2382983,-0.25016 0.074901,-0.05279 0.1361786,-0.107498 0.1361786,-0.121575 0,-0.01407 -0.013241,-0.02559 -0.029432,-0.02559 -0.01619,0 -0.169468,-0.104282 -0.3406305,-0.231745 C 8.6362233,19.27343 8.3939282,19.053201 8.2689503,18.911491 8.1439726,18.769782 7.9610444,18.518648 7.8624428,18.353416 7.7638388,18.188185 7.643673,17.955693 7.5954047,17.836767 7.54714,17.717842 7.4628647,17.469578 7.4081346,17.285069 7.3534062,17.10056 7.2786024,16.779734 7.2419076,16.572121 c -0.045507,-0.257477 -0.072181,-0.576422 -0.083899,-1.003287 -0.00945,-0.344195 -0.021995,-0.625809 -0.027877,-0.625809 -0.00589,0 -0.1278919,0.09462 -0.2711331,0.210264 -0.1432404,0.115644 -0.3324372,0.24362 -0.4204385,0.284392 -0.088,0.04077 -0.2196299,0.08308 -0.2925091,0.094 -0.073761,0.01101 -0.1820283,0.0035 -0.2442048,-0.01699 C 5.8404281,15.494421 5.7481376,15.429971 5.6967699,15.371463 5.6454049,15.312953 5.5711872,15.181935 5.531847,15.080297 5.475516,14.934762 5.457216,14.810149 5.445706,14.493731 5.434595,14.188094 5.444026,14.033937 5.485039,13.84947 c 0.030242,-0.135933 0.1214109,-0.377247 0.2074728,-0.549157 0.084439,-0.168668 0.2286653,-0.406333 0.320506,-0.528143 0.091839,-0.121809 0.2748453,-0.328413 0.4066768,-0.45912 0.131833,-0.130708 0.3562633,-0.325473 0.4987319,-0.432811 0.1424692,-0.10734 0.3304536,-0.235307 0.4177412,-0.284374 0.1574718,-0.08852 0.1591069,-0.09106 0.2098238,-0.327667 0.028114,-0.13115 0.086833,-0.362907 0.1304851,-0.515015 0.043654,-0.152113 0.1502616,-0.47294 0.2369096,-0.712952 C 8.0000334,9.8002181 8.1698213,9.4073371 8.2906935,9.1671621 8.4115652,8.9269831 8.6281228,8.5562514 8.771934,8.3433082 8.96412,8.058731 9.1427517,7.8469451 9.4460625,7.5440577 9.7080077,7.282478 9.9628718,7.0627479 10.143898,6.9424218 c 0.15685,-0.1042548 0.414654,-0.2549321 0.5729,-0.3348383 0.158249,-0.079908 0.445609,-0.1977331 0.638581,-0.2618364 0.192969,-0.064103 0.517634,-0.1450633 0.721473,-0.1799108 0.269868,-0.046136 0.515343,-0.063359 0.902993,-0.063359 0.389736,0 0.632972,0.017185 0.90784,0.064149 0.206506,0.035284 0.545884,0.1221204 0.754175,0.1929794 0.208289,0.070857 0.493468,0.186409 0.63373,0.2567787 0.140262,0.070366 0.390483,0.2173459 0.556044,0.3266138 0.165563,0.1092692 0.44866,0.338241 0.629104,0.5088273 0.180442,0.1705864 0.430861,0.4393982 0.556484,0.5973579 0.125622,0.1579604 0.331951,0.4564976 0.458509,0.663418 0.126558,0.2069187 0.324075,0.5919107 0.438928,0.8555367 0.114851,0.263627 0.269924,0.6824519 0.344607,0.9307249 0.07468,0.248273 0.167561,0.580981 0.206397,0.739351 0.07036,0.28687 0.07122,0.288328 0.231327,0.390964 0.08839,0.05666 0.287374,0.205289 0.442184,0.330288 0.154809,0.124997 0.385153,0.339864 0.511873,0.47748 0.126721,0.137615 0.301016,0.354966 0.387322,0.483003 0.08631,0.128035 0.18725,0.292358 0.224313,0.365168 0.03706,0.07281 0.104046,0.258172 0.148836,0.411924 0.04479,0.153753 0.08956,0.393621 0.09949,0.533043 0.0099,0.139422 0.0017,0.358167 -0.01828,0.486101 -0.01999,0.127934 -0.06464,0.313145 -0.09923,0.411579 -0.03459,0.09843 -0.105137,0.221202 -0.156746,0.272813 -0.08028,0.08029 -0.123197,0.09571 -0.29702,0.106779 -0.172014,0.0109 -0.23389,-8.42e-4 -0.403375,-0.07691 -0.110108,-0.04941 -0.314976,-0.180395 -0.455267,-0.291077 l -0.255077,-0.201237 -0.0077,0.137115 c -0.0041,0.07542 -0.02262,0.347412 -0.0409,0.604443 -0.01829,0.257031 -0.06154,0.642022 -0.09609,0.855537 -0.03456,0.213513 -0.09192,0.49515 -0.127453,0.625856 -0.03554,0.130706 -0.121098,0.37785 -0.190142,0.549206 -0.06904,0.171356 -0.160439,0.38044 -0.203102,0.464633 -0.04267,0.0842 -0.144312,0.250562 -0.225882,0.369706 -0.08157,0.119145 -0.256631,0.328454 -0.389017,0.46513 -0.132388,0.136675 -0.345056,0.326426 -0.472592,0.421669 -0.127536,0.09524 -0.251712,0.180775 -0.275946,0.190075 -0.02997,0.01151 0.01672,0.07319 0.146201,0.193054 0.104641,0.09688 0.226884,0.238643 0.271648,0.315025 0.0702,0.119782 0.0796,0.167058 0.06834,0.343807 -0.01192,0.187068 -0.02366,0.215802 -0.13489,0.329704 -0.06701,0.06863 -0.19052,0.154321 -0.27446,0.190432 -0.08393,0.03611 -0.24232,0.08931 -0.351957,0.118231 -0.133442,0.0352 -0.325022,0.05241 -0.579573,0.05205 -0.209135,-2.37e-4 -0.472924,-0.0182 -0.586203,-0.0398 -0.11328,-0.02159 -0.341424,-0.08231 -0.506986,-0.134887 -0.205665,-0.06531 -0.383357,-0.150094 -0.560931,-0.2676 -0.142951,-0.0946 -0.288769,-0.208674 -0.324042,-0.253515 l -0.06414,-0.08153 -0.920021,0.0011 -0.920022,0.0011 -0.181833,0.162907 c -0.100008,0.0896 -0.267388,0.210604 -0.371954,0.268897 -0.104563,0.05829 -0.311321,0.142364 -0.459454,0.186819 -0.148135,0.04446 -0.39597,0.102685 -0.550745,0.129396 -0.154773,0.0267 -0.390046,0.04721 -0.5228277,0.04559 z m 3.2599444,-2.839138 c 0.2527,-0.0077 0.626212,-0.03453 0.830029,-0.05952 0.203815,-0.02498 0.536236,-0.08813 0.738709,-0.140336 0.202472,-0.05221 0.472349,-0.143071 0.599728,-0.201923 0.127375,-0.05885 0.322538,-0.168519 0.433693,-0.243706 0.111154,-0.07519 0.28447,-0.214951 0.385145,-0.310589 0.100672,-0.09563 0.249285,-0.274437 0.330247,-0.397329 0.08097,-0.122895 0.201498,-0.339299 0.267853,-0.480901 0.06635,-0.1416 0.162402,-0.419944 0.213436,-0.618542 0.05103,-0.198599 0.115487,-0.537067 0.143227,-0.752153 0.03428,-0.265817 0.05043,-0.643299 0.05043,-1.178599 0,-0.433142 -0.0151,-0.970108 -0.03356,-1.193261 -0.01846,-0.22315 -0.06112,-0.588878 -0.09481,-0.812728 -0.03368,-0.22385 -0.0984,-0.572625 -0.143799,-0.775059 -0.0454,-0.202432 -0.118061,-0.468439 -0.161467,-0.591125 -0.0434,-0.122687 -0.155774,-0.379916 -0.249707,-0.571621 -0.112438,-0.2294789 -0.238802,-0.4278569 -0.36989,-0.5806979 -0.109509,-0.12768 -0.283539,-0.287665 -0.386733,-0.35552 -0.103192,-0.06786 -0.274136,-0.153396 -0.379873,-0.190089 -0.105732,-0.03669 -0.30632,-0.07414 -0.445741,-0.08321 -0.169459,-0.011031 -0.332273,2.4e-4 -0.491141,0.03384 -0.130706,0.02769 -0.324636,0.09306 -0.430952,0.145284 -0.108094,0.05309 -0.306477,0.19916 -0.450042,0.33136 -0.141206,0.130026 -0.303752,0.261019 -0.361212,0.291098 -0.05747,0.03008 -0.168638,0.05469 -0.247061,0.05469 -0.07843,0 -0.192496,-0.02562 -0.253493,-0.05695 -0.061,-0.03132 -0.219622,-0.162013 -0.352503,-0.290425 -0.172777,-0.16697 -0.30926,-0.265611 -0.479133,-0.346282 -0.175147,-0.08318 -0.313554,-0.122402 -0.526957,-0.149338 -0.22365,-0.028229 -0.341593,-0.027693 -0.518992,0.0024 -0.126265,0.0214 -0.335879,0.08914 -0.46581,0.150542 -0.182327,0.08617 -0.287177,0.164953 -0.4594545,0.345268 -0.1290345,0.135053 -0.2883558,0.348517 -0.3775994,0.505919 -0.08491,0.149759 -0.1887411,0.3573539 -0.2307348,0.4613209 -0.041992,0.103967 -0.11749,0.322669 -0.167768,0.486006 -0.050278,0.163334 -0.1273527,0.45949 -0.1712757,0.658118 -0.043922,0.198631 -0.1017874,0.539383 -0.1285872,0.757227 -0.026797,0.217847 -0.063284,0.595709 -0.081082,0.839695 -0.017799,0.243986 -0.032411,0.768564 -0.032481,1.165729 -6.36e-5,0.397166 0.014642,0.860581 0.032695,1.029814 0.018051,0.169232 0.069317,0.456281 0.1139333,0.637887 0.044612,0.181605 0.1343949,0.453038 0.1995184,0.603187 0.065121,0.150147 0.1728035,0.358034 0.2392918,0.461972 0.066485,0.103934 0.212907,0.284294 0.3253775,0.400793 0.1124707,0.1165 0.3029756,0.277893 0.4233436,0.35865 0.120367,0.08075 0.324782,0.195778 0.454257,0.255598 0.129474,0.05982 0.396717,0.150179 0.593876,0.200797 0.197157,0.05061 0.47124,0.10896 0.609071,0.129638 0.137833,0.02069 0.430141,0.04877 0.649575,0.06241 0.219434,0.01364 0.605726,0.01846 0.858426,0.01068 z m -0.254496,-5.90338 c -0.07605,4e-6 -0.294982,-0.08885 -0.68316,-0.277251 -0.31419,-0.152493 -0.604917,-0.299634 -0.646059,-0.326984 -0.04805,-0.03195 -0.06584,-0.06424 -0.04972,-0.09029 0.0138,-0.02231 0.304968,-0.177809 0.647061,-0.345547 0.43559,-0.213579 0.655224,-0.304605 0.732891,-0.303738 0.07388,8.43e-4 0.320646,0.103293 0.73926,0.306977 0.503138,0.24481 0.626208,0.317019 0.617579,0.362347 -0.0072,0.0379 -0.214842,0.15869 -0.628357,0.365545 -0.431537,0.215874 -0.651289,0.30894 -0.729485,0.308946 z M 11.10344,11.108256 c -0.09352,-3.59e-4 -0.224076,-0.02645 -0.295887,-0.05908 -0.07068,-0.0321 -0.181246,-0.11998 -0.245697,-0.195276 -0.06445,-0.07529 -0.131305,-0.187738 -0.148566,-0.249874 -0.01726,-0.06213 -0.03115,-0.17001 -0.03087,-0.23972 2.52e-4,-0.0697 0.02962,-0.190912 0.06516,-0.269335 0.03555,-0.07843 0.09584,-0.1765609 0.133972,-0.2180789 0.03813,-0.04152 0.140623,-0.109109 0.22776,-0.150201 0.08879,-0.04187 0.218083,-0.07485 0.294119,-0.07502 0.07463,-1.32e-4 0.185128,0.02035 0.245558,0.04559 0.06042,0.02524 0.160725,0.0847 0.222875,0.132099 0.06216,0.0474 0.143802,0.144383 0.181445,0.2155059 0.05184,0.09793 0.06813,0.18314 0.0672,0.351122 -7.65e-4,0.142009 -0.01989,0.257161 -0.05307,0.320083 -0.02849,0.05406 -0.104989,0.144955 -0.169964,0.202005 -0.06498,0.05705 -0.16506,0.123333 -0.222406,0.147293 -0.05735,0.02395 -0.179585,0.04325 -0.27164,0.04287 z m -0.155561,-0.664721 c 0.05165,0 0.11699,-0.0089 0.145202,-0.01968 0.02822,-0.01083 0.07216,-0.06002 0.09765,-0.109329 0.0255,-0.04931 0.04636,-0.110649 0.04636,-0.136318 0,-0.02567 -0.03691,-0.09055 -0.08203,-0.144164 -0.05601,-0.06656 -0.110477,-0.09749 -0.171685,-0.09749 -0.04931,0 -0.112733,0.0089 -0.140945,0.01968 -0.02821,0.01083 -0.07216,0.06003 -0.09765,0.109331 -0.02549,0.04931 -0.04635,0.119521 -0.04635,0.156033 0,0.03652 0.03499,0.101386 0.07778,0.144163 0.04758,0.04758 0.114227,0.07778 0.171685,0.07778 z m 3.899396,0.664721 c -0.0997,-3.59e-4 -0.225551,-0.02545 -0.298939,-0.0595 -0.06971,-0.03235 -0.172365,-0.106891 -0.228123,-0.165659 -0.05576,-0.05876 -0.123487,-0.159863 -0.150511,-0.224658 -0.02703,-0.0648 -0.04913,-0.190017 -0.04913,-0.278274 0,-0.08826 0.01922,-0.206352 0.04272,-0.262432 0.0235,-0.05609 0.08352,-0.1503439 0.133374,-0.2094729 0.04986,-0.05913 0.162522,-0.140981 0.250371,-0.181888 0.08785,-0.04092 0.20973,-0.07452 0.27084,-0.07468 0.06111,-1.32e-4 0.159684,0.01361 0.219048,0.03064 0.05937,0.01703 0.16355,0.0695 0.231523,0.116602 0.06797,0.0471 0.158273,0.144835 0.20067,0.2171799 0.04239,0.07234 0.08619,0.197908 0.0973,0.279029 0.01182,0.08633 0.0038,0.206258 -0.01947,0.289209 -0.02182,0.07794 -0.08794,0.198095 -0.146917,0.267003 -0.05898,0.0689 -0.168741,0.155058 -0.243907,0.191446 -0.08814,0.04268 -0.1978,0.06591 -0.30886,0.06546 z m -0.141947,-0.664721 c 0.0701,0 0.136175,-0.02383 0.175716,-0.06338 0.04045,-0.04045 0.06337,-0.105622 0.06337,-0.180155 0,-0.0763 -0.02388,-0.14221 -0.0689,-0.190119 -0.04559,-0.04854 -0.105023,-0.07334 -0.175717,-0.07334 -0.07116,0 -0.132779,0.02596 -0.184595,0.07778 -0.04902,0.04903 -0.07778,0.11398 -0.07778,0.175718 0,0.06173 0.02875,0.126689 0.07778,0.175715 0.05332,0.05332 0.113089,0.07778 0.190119,0.07778 z"
         style="fill:#b95226;stroke-width:0.03168656" />
      <path
         inkscape:connector-curvature="0"
         id="path1468"
         d="m 12.884791,20.388057 c -0.374694,-0.0022 -0.830981,-0.01493 -1.01397,-0.02816 -0.182989,-0.01322 -0.539463,-0.05424 -0.792164,-0.09115 -0.2527,-0.0369 -0.559857,-0.09522 -0.68257,-0.1296 C 10.273372,20.104769 10.052359,20.032942 9.9049451,19.979518 9.7575306,19.926098 9.520626,19.826436 9.3784914,19.758052 9.2363545,19.689668 8.9796945,19.529186 8.8081332,19.401431 8.6365719,19.273671 8.3939481,19.053201 8.2689718,18.911491 8.1439932,18.769782 7.9610657,18.518649 7.8624619,18.353417 7.7638603,18.188187 7.6436937,17.955693 7.5954261,17.836768 7.5471615,17.717842 7.4628862,17.469578 7.4081554,17.285069 7.353427,17.100561 7.2786231,16.779734 7.2419284,16.572122 7.1964211,16.314645 7.1697466,15.9957 7.1580293,15.568835 c -0.00945,-0.344196 -0.021995,-0.625809 -0.027877,-0.625809 -0.00589,0 -0.127892,0.09462 -0.2711332,0.210263 -0.1432406,0.115645 -0.3324375,0.24362 -0.4204387,0.284393 -0.088,0.04077 -0.2196291,0.08308 -0.2925092,0.094 -0.07376,0.01102 -0.1820283,0.0035 -0.2442047,-0.01699 -0.061432,-0.02027 -0.1537237,-0.08473 -0.2050907,-0.143234 -0.051369,-0.0585 -0.1255832,-0.189528 -0.1649235,-0.291166 -0.056331,-0.145535 -0.074632,-0.270149 -0.086142,-0.586566 -0.011111,-0.305637 -0.00168,-0.459794 0.039333,-0.64426 0.030242,-0.135933 0.1214108,-0.377248 0.2074728,-0.549157 0.084439,-0.16867 0.2286656,-0.406334 0.320506,-0.528145 0.091839,-0.121808 0.2748439,-0.328413 0.406677,-0.459121 0.131833,-0.130708 0.3562624,-0.325471 0.4987317,-0.43281 0.1424678,-0.10734 0.3304531,-0.235307 0.4177413,-0.284374 0.1574718,-0.08852 0.1591061,-0.09106 0.2098239,-0.327666 0.028115,-0.13115 0.086833,-0.362908 0.1304851,-0.515016 0.043645,-0.15211 0.1502607,-0.472936 0.2369079,-0.71295 C 8.000037,9.8002131 8.1698258,9.4073321 8.2906978,9.1671581 8.4115692,8.9269821 8.6281267,8.5562497 8.7719356,8.3433067 8.9641238,8.0587296 9.1427556,7.8469436 9.4460665,7.5440563 9.7080117,7.2824764 9.9628757,7.0627462 10.143903,6.9424204 10.30075,6.8381655 10.558556,6.6874881 10.716802,6.607582 10.875051,6.527674 11.16241,6.4098482 11.35538,6.3457454 c 0.192971,-0.064102 0.517636,-0.1450632 0.721475,-0.1799106 0.269867,-0.046136 0.515344,-0.063359 0.902994,-0.063359 0.389735,0 0.63297,0.017186 0.907839,0.064148 0.206507,0.035284 0.545884,0.1221204 0.754174,0.1929787 0.208291,0.070857 0.49347,0.1864097 0.633732,0.2567794 0.140262,0.070366 0.390482,0.217346 0.556043,0.3266138 0.165564,0.1092692 0.44866,0.338241 0.629104,0.5088273 0.180443,0.1705864 0.430862,0.4393983 0.556483,0.5973579 0.125624,0.1579605 0.331952,0.4564977 0.45851,0.6634181 0.126556,0.2069181 0.324075,0.5919101 0.438928,0.8555361 0.114852,0.263626 0.269925,0.6824509 0.344606,0.9307239 0.07468,0.248274 0.167562,0.580982 0.206402,0.73935 0.07035,0.286872 0.07122,0.288329 0.231326,0.390965 0.08839,0.05666 0.287371,0.205289 0.44218,0.330288 0.154811,0.124997 0.385154,0.339864 0.511875,0.47748 0.126721,0.137615 0.301016,0.354967 0.387324,0.483004 0.08631,0.128034 0.187247,0.292359 0.224312,0.365166 0.03706,0.07281 0.104046,0.258173 0.148834,0.411926 0.04479,0.153751 0.08956,0.39362 0.09949,0.533041 0.0099,0.139423 0.0017,0.358168 -0.01828,0.486101 -0.01999,0.127937 -0.06464,0.313147 -0.09923,0.411582 -0.03459,0.09843 -0.105136,0.221199 -0.156748,0.272814 -0.08028,0.08029 -0.123192,0.09571 -0.297019,0.106778 -0.172011,0.0109 -0.23389,-8.44e-4 -0.403373,-0.07691 -0.110106,-0.04941 -0.314977,-0.180398 -0.455269,-0.291078 l -0.255076,-0.201238 -0.0077,0.137114 c -0.0042,0.07542 -0.02262,0.347413 -0.04091,0.604444 -0.0183,0.257031 -0.06154,0.642023 -0.0961,0.855538 -0.03456,0.213512 -0.09191,0.495148 -0.127451,0.625855 -0.03554,0.130707 -0.121099,0.377849 -0.190143,0.549206 -0.06904,0.171357 -0.160438,0.380442 -0.203104,0.464634 -0.04267,0.0842 -0.14431,0.250559 -0.225881,0.369705 -0.08157,0.119145 -0.25663,0.328453 -0.389016,0.465129 -0.132389,0.136676 -0.340519,0.322988 -0.462511,0.414027 -0.121992,0.09104 -0.31449,0.21655 -0.427769,0.278917 -0.11328,0.06237 -0.334295,0.163955 -0.491141,0.225752 -0.156849,0.06179 -0.413511,0.149507 -0.570357,0.194912 -0.156851,0.04541 -0.472533,0.110478 -0.701521,0.144611 -0.228987,0.03414 -0.621109,0.07604 -0.87138,0.09313 -0.250273,0.01708 -0.761607,0.02921 -1.136301,0.02695 z m 0.348552,-2.044895 c 0.2527,-0.0077 0.626212,-0.03453 0.830029,-0.05952 0.203815,-0.02498 0.536236,-0.08813 0.738709,-0.140336 0.202472,-0.05221 0.472349,-0.143071 0.599728,-0.201923 0.127375,-0.05885 0.322538,-0.168519 0.433693,-0.243706 0.111154,-0.07519 0.28447,-0.214951 0.385145,-0.310589 0.100672,-0.09563 0.249285,-0.274437 0.330247,-0.397329 0.08097,-0.122895 0.201498,-0.339299 0.267853,-0.480901 0.06635,-0.1416 0.162402,-0.419944 0.213436,-0.618542 0.05103,-0.198599 0.115487,-0.537067 0.143227,-0.752153 0.03428,-0.265817 0.05043,-0.643299 0.05043,-1.178599 0,-0.433142 -0.0151,-0.970108 -0.03356,-1.193261 -0.01846,-0.22315 -0.06112,-0.588878 -0.09481,-0.812728 -0.03368,-0.22385 -0.0984,-0.572625 -0.143799,-0.775059 -0.0454,-0.202432 -0.118061,-0.468439 -0.161467,-0.591125 -0.0434,-0.122687 -0.155774,-0.379916 -0.249707,-0.571621 -0.112438,-0.2294789 -0.238802,-0.4278569 -0.36989,-0.5806979 -0.109509,-0.12768 -0.283539,-0.287665 -0.386733,-0.35552 -0.103192,-0.06786 -0.274136,-0.153396 -0.379873,-0.190089 -0.105732,-0.03669 -0.30632,-0.07414 -0.445741,-0.08321 -0.169459,-0.011031 -0.332273,2.4e-4 -0.491141,0.03384 -0.130706,0.02769 -0.324636,0.09306 -0.430952,0.145284 -0.108094,0.05309 -0.306477,0.19916 -0.450042,0.33136 -0.141206,0.130026 -0.303752,0.261019 -0.361212,0.291098 -0.05747,0.03008 -0.168638,0.05469 -0.247061,0.05469 -0.07843,0 -0.192496,-0.02562 -0.253493,-0.05695 -0.061,-0.03132 -0.219622,-0.162013 -0.352503,-0.290425 -0.172777,-0.16697 -0.30926,-0.265611 -0.479133,-0.346282 -0.175147,-0.08318 -0.313554,-0.122402 -0.526957,-0.149338 -0.22365,-0.028229 -0.341593,-0.027693 -0.518992,0.0024 -0.126265,0.0214 -0.335879,0.08914 -0.46581,0.150542 -0.182327,0.08617 -0.287177,0.164953 -0.4594545,0.345268 -0.1290345,0.135053 -0.2883558,0.348517 -0.3775994,0.505919 -0.08491,0.149759 -0.1887411,0.3573539 -0.2307348,0.4613209 -0.041992,0.103967 -0.11749,0.322669 -0.167768,0.486006 -0.050278,0.163334 -0.1273527,0.45949 -0.1712757,0.658118 -0.043922,0.198631 -0.1017874,0.539383 -0.1285872,0.757227 -0.026797,0.217847 -0.063284,0.595709 -0.081082,0.839695 -0.017799,0.243986 -0.032411,0.768564 -0.032481,1.165729 -6.36e-5,0.397166 0.014642,0.860581 0.032695,1.029814 0.018051,0.169232 0.069317,0.456281 0.1139333,0.637887 0.044612,0.181605 0.1343949,0.453038 0.1995184,0.603187 0.065121,0.150147 0.1728035,0.358034 0.2392918,0.461972 0.066485,0.103934 0.212907,0.284294 0.3253775,0.400793 0.1124707,0.1165 0.3029756,0.277893 0.4233436,0.35865 0.120367,0.08075 0.324782,0.195778 0.454257,0.255598 0.129474,0.05982 0.396717,0.150179 0.593876,0.200797 0.197157,0.05061 0.47124,0.10896 0.609071,0.129638 0.137833,0.02069 0.430141,0.04877 0.649575,0.06241 0.219434,0.01364 0.605726,0.01846 0.858426,0.01068 z M 13.018604,12.42592 c -0.06489,0.0064 -0.153617,-7.33e-4 -0.197185,-0.01573 -0.04357,-0.015 -0.335879,-0.156645 -0.649575,-0.314764 l -0.570359,-0.287485 1.3546,-9.22e-4 c 0.74503,-4.77e-4 1.354601,0.0046 1.354601,0.01135 0,0.0067 -0.264176,0.143629 -0.587055,0.304153 -0.330363,0.164242 -0.638641,0.296914 -0.705027,0.303419 z M 11.10344,11.108256 c -0.09352,-3.59e-4 -0.224076,-0.02645 -0.295887,-0.05908 -0.07068,-0.0321 -0.181246,-0.11998 -0.245697,-0.195276 -0.06445,-0.07529 -0.131305,-0.187738 -0.148566,-0.249874 -0.01726,-0.06213 -0.03115,-0.17001 -0.03087,-0.23972 2.52e-4,-0.0697 0.02962,-0.190912 0.06516,-0.269335 0.03555,-0.07843 0.09584,-0.1765599 0.133972,-0.2180789 0.03813,-0.04152 0.140623,-0.109109 0.22776,-0.150201 0.08879,-0.04187 0.218083,-0.07485 0.294119,-0.07502 0.07463,-1.32e-4 0.185128,0.02035 0.245558,0.04559 0.06042,0.02524 0.160725,0.0847 0.222875,0.132099 0.06216,0.0474 0.143802,0.144383 0.181445,0.2155059 0.05184,0.09793 0.06813,0.18314 0.0672,0.351122 -7.65e-4,0.142009 -0.01989,0.257161 -0.05307,0.320083 -0.02849,0.05406 -0.104989,0.144955 -0.169964,0.202005 -0.06498,0.05705 -0.16506,0.123333 -0.222406,0.147293 -0.05735,0.02395 -0.179585,0.04325 -0.27164,0.04287 z m -0.155561,-0.664721 c 0.05165,0 0.11699,-0.0089 0.145202,-0.01968 0.02822,-0.01083 0.07216,-0.06002 0.09765,-0.109329 0.0255,-0.04931 0.04636,-0.110649 0.04636,-0.136318 0,-0.02567 -0.03691,-0.09055 -0.08203,-0.144164 -0.05601,-0.06656 -0.110477,-0.09749 -0.171685,-0.09749 -0.04931,0 -0.112733,0.0089 -0.140945,0.01968 -0.02821,0.01083 -0.07216,0.06003 -0.09765,0.109331 -0.02549,0.04931 -0.04635,0.119521 -0.04635,0.156033 0,0.03652 0.03499,0.101386 0.07778,0.144163 0.04758,0.04758 0.114227,0.07778 0.171685,0.07778 z m 3.899396,0.664721 c -0.0997,-3.59e-4 -0.225551,-0.02545 -0.298939,-0.0595 -0.06971,-0.03235 -0.172365,-0.106891 -0.228123,-0.165659 -0.05576,-0.05876 -0.123487,-0.159863 -0.150511,-0.224658 -0.02703,-0.0648 -0.04913,-0.190017 -0.04913,-0.278274 0,-0.08826 0.01922,-0.206352 0.04272,-0.262432 0.0235,-0.05609 0.08352,-0.1503439 0.133374,-0.2094729 0.04986,-0.05913 0.162522,-0.140981 0.250371,-0.181888 0.08785,-0.04092 0.20973,-0.07452 0.27084,-0.07468 0.06111,-1.32e-4 0.159684,0.01361 0.219048,0.03064 0.05937,0.01703 0.16355,0.0695 0.231523,0.116602 0.06797,0.0471 0.158273,0.144835 0.20067,0.2171799 0.04239,0.07234 0.08619,0.197908 0.0973,0.279029 0.01182,0.08633 0.0038,0.206258 -0.01947,0.289209 -0.02182,0.07794 -0.08794,0.198095 -0.146917,0.267003 -0.05898,0.0689 -0.168741,0.155058 -0.243907,0.191446 -0.08814,0.04268 -0.1978,0.06591 -0.30886,0.06546 z m -0.141947,-0.664721 c 0.0701,0 0.136175,-0.02383 0.175716,-0.06338 0.04045,-0.04045 0.06337,-0.105622 0.06337,-0.180155 0,-0.0763 -0.02388,-0.14221 -0.0689,-0.190119 -0.04559,-0.04854 -0.105023,-0.07334 -0.175717,-0.07334 -0.07116,0 -0.132779,0.02596 -0.184595,0.07778 -0.04902,0.04903 -0.07778,0.11398 -0.07778,0.175718 0,0.06173 0.02875,0.126689 0.07778,0.175715 0.05332,0.05332 0.113089,0.07778 0.190119,0.07778 z"
         style="fill:#5e5c5c;stroke-width:0.03168656" />
      <path
         inkscape:connector-curvature="0"
         id="path1466"
         d="m 12.884791,20.387475 c -0.270127,-0.0022 -0.690768,-0.01506 -0.934754,-0.02844 -0.243987,-0.01338 -0.643236,-0.0543 -0.887224,-0.09093 -0.243986,-0.03663 -0.544013,-0.0947 -0.666726,-0.129031 -0.122715,-0.03434 -0.336599,-0.103868 -0.4752992,-0.15452 C 9.782088,19.9339 9.5838992,19.854973 9.4803694,19.809151 9.3768402,19.763331 9.2143796,19.674234 9.1193469,19.611154 9.0243128,19.548078 8.8594887,19.430079 8.753067,19.348941 8.6466476,19.267802 8.459469,19.095252 8.3371174,18.965493 8.2147657,18.835737 8.0475905,18.62895 7.9656165,18.50597 7.8836433,18.38299 7.7593631,18.160284 7.6894385,18.01107 7.6195155,17.861855 7.5184425,17.606002 7.4648345,17.442506 7.4112242,17.279012 7.3458396,17.053021 7.3195284,16.940308 7.293221,16.827594 7.2513361,16.563803 7.2264689,16.354107 c -0.024868,-0.209696 -0.054599,-0.612974 -0.066055,-0.896172 -0.011458,-0.283199 -0.027311,-0.514907 -0.035222,-0.514907 -0.00792,0 -0.1375686,0.09777 -0.2881254,0.217275 -0.1630617,0.129429 -0.3478839,0.244729 -0.4571248,0.285179 -0.100862,0.03735 -0.2488972,0.06789 -0.328968,0.06789 -0.091471,0 -0.184656,-0.02416 -0.250707,-0.06496 -0.057818,-0.03573 -0.1331652,-0.110591 -0.1674394,-0.166354 -0.03427,-0.05577 -0.087438,-0.194067 -0.118143,-0.307347 -0.039751,-0.14665 -0.055522,-0.320025 -0.054765,-0.602044 8.349e-4,-0.301449 0.01704,-0.454955 0.067935,-0.642493 0.036782,-0.135523 0.1201181,-0.342278 0.1851961,-0.459453 0.065079,-0.117176 0.1636962,-0.28434 0.2191529,-0.371479 0.055456,-0.08714 0.1987572,-0.26723 0.3184482,-0.400204 0.1196898,-0.132976 0.3359629,-0.33973 0.4806057,-0.459456 C 6.8759,11.919855 7.1100091,11.749792 7.2515021,11.661663 L 7.5087597,11.501431 7.6088104,11.075463 C 7.6638384,10.841181 7.7346229,10.571071 7.766112,10.47522 7.797597,10.37937 7.9006754,10.101318 7.9951683,9.8573321 8.0896613,9.6133451 8.2538186,9.2497421 8.3599593,9.0493251 8.4660998,8.8489111 8.6675968,8.5164296 8.8077312,8.3104833 8.9820081,8.054358 9.1833118,7.8148021 9.4447806,7.5523827 9.7077925,7.2884172 9.930835,7.0998147 10.159752,6.9478181 c 0.182989,-0.121504 0.466767,-0.2841062 0.630614,-0.3613395 0.163849,-0.077232 0.442645,-0.1888559 0.619546,-0.2480509 0.176902,-0.059193 0.477744,-0.1322121 0.668535,-0.16226 0.230237,-0.036256 0.533372,-0.054751 0.901408,-0.054988 0.386867,-2.397e-4 0.659893,0.016971 0.903068,0.056958 0.191702,0.031523 0.461987,0.093102 0.600632,0.1368494 0.138643,0.043745 0.409564,0.1463905 0.602045,0.2280942 0.19248,0.081706 0.485423,0.2393017 0.650986,0.3502145 0.165563,0.1109123 0.407964,0.2908518 0.538672,0.3998645 0.130706,0.1090139 0.303548,0.2671324 0.384092,0.3513778 0.08054,0.084245 0.258782,0.2982853 0.396084,0.4756456 0.1373,0.1773614 0.313769,0.4268928 0.392155,0.5545151 0.07838,0.1276223 0.215585,0.3817593 0.304885,0.5647493 0.0893,0.182991 0.206703,0.43965 0.260896,0.570358 0.0542,0.130706 0.161387,0.4444039 0.238216,0.6971039 0.07683,0.2527 0.171307,0.588424 0.209955,0.746052 l 0.07026,0.286596 0.194639,0.124868 c 0.107049,0.06867 0.315839,0.227188 0.463972,0.352244 0.148136,0.125057 0.349704,0.310631 0.447935,0.412386 0.09823,0.101752 0.270883,0.321492 0.383674,0.488301 0.112795,0.166809 0.248386,0.41634 0.301318,0.554514 0.05293,0.138174 0.114496,0.336778 0.136811,0.441345 0.02231,0.104563 0.04057,0.318451 0.04057,0.475298 0,0.156849 -0.01852,0.37071 -0.04115,0.475249 -0.02263,0.10454 -0.07387,0.264058 -0.113865,0.354491 -0.05763,0.130312 -0.100841,0.178773 -0.208258,0.233574 -0.105834,0.05399 -0.170659,0.06552 -0.295722,0.05262 -0.0881,-0.0091 -0.238601,-0.05141 -0.334452,-0.09406 -0.09585,-0.04264 -0.281219,-0.165222 -0.411927,-0.272402 -0.130705,-0.107183 -0.248343,-0.194892 -0.261413,-0.194913 -0.01307,-2.1e-5 -0.02376,0.02515 -0.02376,0.05596 0,0.03079 -0.01505,0.283894 -0.03345,0.562438 -0.0184,0.278545 -0.07493,0.74985 -0.125626,1.047342 -0.05169,0.303268 -0.135912,0.665209 -0.191726,0.823852 -0.05476,0.155623 -0.167578,0.427497 -0.250722,0.604163 -0.08314,0.176667 -0.233063,0.433328 -0.333152,0.570358 -0.100087,0.13703 -0.262252,0.33202 -0.360363,0.433311 -0.09811,0.101291 -0.299585,0.274251 -0.44772,0.384351 -0.148134,0.110107 -0.347759,0.24323 -0.443611,0.295841 -0.09586,0.05261 -0.302608,0.146165 -0.459454,0.207898 -0.15685,0.06173 -0.413512,0.149382 -0.57036,0.194773 -0.156847,0.04539 -0.470543,0.110647 -0.697104,0.144993 -0.226558,0.03436 -0.661456,0.07614 -0.96644,0.09287 -0.304983,0.01672 -0.775528,0.02854 -1.045656,0.02628 z m 0.285179,-2.040919 c 0.357265,-0.0067 0.792163,-0.03308 0.96644,-0.05848 0.174276,-0.0254 0.44195,-0.07544 0.594832,-0.111175 0.152881,-0.03574 0.388278,-0.107521 0.523105,-0.159516 0.134824,-0.052 0.359388,-0.164846 0.499027,-0.25078 0.162563,-0.100043 0.350528,-0.257145 0.522552,-0.436751 0.164692,-0.171954 0.323098,-0.377017 0.409328,-0.529895 0.07737,-0.137164 0.186797,-0.372251 0.243181,-0.522413 0.05638,-0.150163 0.131843,-0.419397 0.167691,-0.5983 0.03583,-0.178903 0.08259,-0.456952 0.103865,-0.617888 0.02233,-0.168921 0.03816,-0.640862 0.03745,-1.116463 -7.33e-4,-0.453116 -0.0184,-1.009215 -0.03936,-1.235774 -0.02096,-0.226559 -0.07325,-0.640067 -0.116215,-0.91891 -0.04295,-0.278842 -0.114241,-0.642445 -0.158407,-0.808008 -0.04417,-0.165564 -0.142758,-0.455088 -0.219083,-0.643388 -0.07632,-0.188303 -0.198267,-0.4425009 -0.270974,-0.5648869 -0.07271,-0.122384 -0.22371,-0.319526 -0.335559,-0.438093 -0.134223,-0.142285 -0.275986,-0.253527 -0.416978,-0.327208 -0.117489,-0.0614 -0.291063,-0.134397 -0.385721,-0.162216 -0.09892,-0.02907 -0.288096,-0.050586 -0.444876,-0.050586 -0.150024,0 -0.355303,0.021497 -0.456177,0.047766 -0.100874,0.02628 -0.25967,0.08385 -0.352882,0.127947 -0.09322,0.0441 -0.288159,0.187842 -0.433217,0.319438 -0.145058,0.131593 -0.316644,0.266513 -0.381303,0.299821 -0.06467,0.03331 -0.176576,0.06055 -0.248704,0.06055 -0.07213,0 -0.178908,-0.02267 -0.237292,-0.05037 -0.05839,-0.02771 -0.227267,-0.163689 -0.375299,-0.30219 -0.182941,-0.171155 -0.334276,-0.281343 -0.47247,-0.344003 -0.111824,-0.05071 -0.300227,-0.109064 -0.418673,-0.129691 -0.118445,-0.02062 -0.337896,-0.030405 -0.487669,-0.02173 -0.215208,0.01247 -0.325271,0.03825 -0.52482,0.122939 -0.194579,0.08258 -0.305593,0.157305 -0.4839377,0.325755 -0.1457466,0.13766 -0.2904124,0.316232 -0.3907172,0.482293 -0.087604,0.145033 -0.2006901,0.3550219 -0.2513011,0.4666429 -0.050608,0.111619 -0.1490198,0.400781 -0.2186879,0.642579 -0.069671,0.2418 -0.1558314,0.584201 -0.1914737,0.760894 -0.035643,0.176693 -0.086263,0.504649 -0.1124889,0.728792 -0.026231,0.224142 -0.062648,0.776143 -0.080938,1.226667 -0.023497,0.578815 -0.023275,0.964613 7.336e-4,1.314992 0.01871,0.272721 0.048724,0.58141 0.066698,0.685974 0.017981,0.104564 0.061652,0.297063 0.097055,0.427771 0.035405,0.130705 0.1472996,0.408755 0.2486605,0.617886 0.1325982,0.273581 0.2436526,0.449184 0.3959127,0.626026 0.1163902,0.135185 0.2995911,0.307816 0.4071119,0.383628 0.1075208,0.07581 0.2881758,0.188383 0.4014548,0.250158 0.11328,0.06178 0.305777,0.147776 0.427769,0.19111 0.121994,0.04333 0.364551,0.108365 0.539018,0.144514 0.174469,0.03615 0.452518,0.0806 0.61789,0.09877 0.16537,0.01819 0.364839,0.03868 0.443263,0.04556 0.07843,0.0068 0.434898,0.007 0.792164,2.4e-4 z M 13.018604,12.42592 c -0.06489,0.0064 -0.153617,-7.33e-4 -0.197185,-0.01573 -0.04357,-0.015 -0.335879,-0.156645 -0.649575,-0.314764 l -0.570359,-0.287485 1.3546,-9.22e-4 c 0.74503,-4.77e-4 1.354601,0.0046 1.354601,0.01135 0,0.0067 -0.264176,0.143629 -0.587055,0.304153 -0.330363,0.164242 -0.638641,0.296914 -0.705027,0.303419 z m -1.903957,-1.31947 c -0.08079,-0.0014 -0.189669,-0.01745 -0.241953,-0.03572 -0.05229,-0.01827 -0.141082,-0.06753 -0.197333,-0.109477 -0.05625,-0.04193 -0.138183,-0.137517 -0.182072,-0.212406 -0.04388,-0.07489 -0.08868,-0.201047 -0.09956,-0.280353 -0.01324,-0.09652 -0.0026,-0.195982 0.03226,-0.300839 0.03143,-0.09461 0.104203,-0.2093359 0.18377,-0.2897029 0.09234,-0.09326 0.182963,-0.147948 0.302989,-0.18284 0.107329,-0.0312 0.214051,-0.04176 0.285924,-0.02827 0.06308,0.01183 0.165249,0.04759 0.227056,0.07947 0.06181,0.03187 0.157026,0.105542 0.211599,0.163708 0.05458,0.05816 0.116744,0.1606399 0.138159,0.2277169 0.02141,0.06708 0.03314,0.212938 0.02607,0.324134 -0.01023,0.160228 -0.0324,0.22997 -0.107014,0.336124 -0.05822,0.08284 -0.158787,0.167715 -0.263573,0.222458 -0.118651,0.06197 -0.213457,0.08776 -0.316326,0.08601 z m -0.142023,-0.631228 c 0.04532,0 0.118866,-0.03965 0.171843,-0.09262 0.06149,-0.06149 0.09262,-0.124794 0.09262,-0.188353 0,-0.05503 -0.03192,-0.132851 -0.07511,-0.183051 -0.0572,-0.0665 -0.103518,-0.08732 -0.194227,-0.08732 -0.0907,0 -0.137027,0.02082 -0.194225,0.08732 -0.04675,0.05434 -0.07511,0.127467 -0.07511,0.193641 0,0.07983 0.0243,0.126763 0.09749,0.188352 0.05362,0.04511 0.133141,0.08203 0.176714,0.08203 z m 3.86983,0.630872 c -0.07463,-0.0016 -0.183796,-0.0167 -0.242599,-0.03361 -0.05894,-0.01696 -0.175675,-0.101347 -0.26015,-0.188076 -0.08879,-0.09117 -0.167019,-0.206951 -0.186011,-0.275334 -0.01802,-0.06491 -0.03255,-0.175046 -0.03225,-0.244755 2.88e-4,-0.0697 0.02657,-0.183784 0.0584,-0.253493 0.03184,-0.0697 0.121695,-0.1853219 0.199674,-0.2569119 0.09878,-0.09069 0.191531,-0.142102 0.305806,-0.169515 0.128759,-0.03089 0.198114,-0.03118 0.322577,-0.0013 0.110736,0.02656 0.206281,0.08095 0.316823,0.180335 0.124293,0.111751 0.169038,0.1793389 0.20843,0.3148449 0.03324,0.114363 0.04268,0.217561 0.02799,0.306045 -0.0122,0.07342 -0.0407,0.169148 -0.06336,0.212717 -0.02264,0.04357 -0.09581,0.131991 -0.162607,0.196494 -0.06679,0.0645 -0.174449,0.139362 -0.239242,0.166355 -0.0648,0.02699 -0.178867,0.04779 -0.253492,0.04622 z m -0.132038,-0.632142 c 0.03686,7.34e-4 0.103494,-0.02742 0.148078,-0.06249 0.04458,-0.03507 0.09018,-0.105323 0.101347,-0.156121 0.0126,-0.05741 0.002,-0.127524 -0.02775,-0.18527 -0.02642,-0.0511 -0.08888,-0.1098209 -0.138772,-0.1304899 -0.06047,-0.02504 -0.116455,-0.02774 -0.167848,-0.0081 -0.04242,0.01621 -0.100751,0.05607 -0.129628,0.08856 -0.02888,0.0325 -0.05673,0.0876 -0.06189,0.12246 -0.0052,0.03486 8.43e-4,0.102226 0.0133,0.149712 0.01247,0.04748 0.0617,0.107515 0.109409,0.133398 0.0477,0.02589 0.116896,0.04764 0.153757,0.04833 z"
         style="fill:#924529;stroke-width:0.03168656" />
      <path
         inkscape:connector-curvature="0"
         id="path1464"
         d="m 12.908035,20.388897 c -0.282913,-0.0022 -0.628458,-0.01551 -0.767877,-0.02935 -0.139422,-0.01383 -0.424601,-0.04176 -0.633732,-0.06207 -0.209131,-0.02032 -0.565159,-0.0724 -0.791174,-0.115727 C 10.489237,20.1384 10.147022,20.045165 9.9547737,19.974543 9.7625256,19.90391 9.4793193,19.784033 9.3254265,19.708139 9.1715336,19.632241 8.936261,19.487228 8.8025992,19.385883 8.6689356,19.284536 8.459469,19.095408 8.3371174,18.965593 8.2147657,18.835781 8.0475905,18.628949 7.9656165,18.50597 7.8836433,18.382989 7.7593631,18.160284 7.6894385,18.01107 7.6195155,17.861853 7.5184425,17.606001 7.4648345,17.442505 7.4112242,17.279011 7.3458396,17.053021 7.3195284,16.940308 c -0.026307,-0.112715 -0.068192,-0.376505 -0.09306,-0.586202 -0.024868,-0.209695 -0.054598,-0.612975 -0.066055,-0.896172 -0.011457,-0.2832 -0.027311,-0.514907 -0.035222,-0.514907 -0.00792,0 -0.1375686,0.09777 -0.2881254,0.217274 -0.1630617,0.129428 -0.3478839,0.244731 -0.4571248,0.28518 -0.1008619,0.03735 -0.2488972,0.06789 -0.328968,0.06789 -0.091471,0 -0.184656,-0.02416 -0.250707,-0.06498 -0.057818,-0.03573 -0.133165,-0.110584 -0.1674392,-0.166346 -0.03427,-0.05577 -0.087438,-0.194067 -0.1181431,-0.307347 -0.039751,-0.14665 -0.055522,-0.320025 -0.054765,-0.602044 8.348e-4,-0.301449 0.01704,-0.454954 0.067935,-0.642492 0.036781,-0.13552 0.1201178,-0.342275 0.1851958,-0.45945 0.065078,-0.117175 0.1636957,-0.284339 0.2191524,-0.371479 0.055456,-0.08714 0.1987571,-0.267229 0.3184482,-0.400202 0.1196904,-0.132972 0.3359634,-0.339727 0.4806062,-0.459454 0.1446429,-0.119726 0.3787519,-0.289789 0.5202448,-0.377919 l 0.2572582,-0.160232 0.1000511,-0.425968 c 0.055026,-0.234282 0.1258115,-0.504391 0.1573006,-0.600242 0.031484,-0.09585 0.1345634,-0.373903 0.2290562,-0.6178889 0.094493,-0.243987 0.2586504,-0.607589 0.364791,-0.808006 C 8.4660998,8.8489031 8.6675968,8.516422 8.8077312,8.3104757 8.9820081,8.0543502 9.1833118,7.8147944 9.4447806,7.552375 9.7077925,7.2884095 9.930835,7.0998071 10.159752,6.9478105 10.342741,6.8263057 10.626519,6.6637042 10.790366,6.586471 10.954215,6.509239 11.233011,6.397615 11.409912,6.33842 c 0.176902,-0.059193 0.477744,-0.1322121 0.668535,-0.16226 0.230237,-0.036256 0.533372,-0.054751 0.901408,-0.054988 0.386867,-2.395e-4 0.659893,0.016972 0.903068,0.056958 0.191702,0.031523 0.461987,0.093102 0.600632,0.1368494 0.138643,0.043745 0.409564,0.1463905 0.602045,0.2280941 0.19248,0.081706 0.485423,0.2393017 0.650986,0.3502144 0.165563,0.1109123 0.407964,0.2908519 0.538672,0.3998646 0.130706,0.109014 0.303548,0.2671324 0.384092,0.3513778 0.08054,0.084244 0.258782,0.2982854 0.396084,0.4756458 0.1373,0.1773612 0.313769,0.4268924 0.392155,0.5545148 0.07838,0.1276222 0.215585,0.3817592 0.304885,0.5647492 0.0893,0.18299 0.206703,0.439651 0.260896,0.570359 0.0542,0.130705 0.161387,0.4444029 0.238216,0.6971029 0.07683,0.2527 0.171307,0.588424 0.209955,0.746052 l 0.07026,0.286596 0.194639,0.124868 c 0.107049,0.06868 0.315839,0.227188 0.463972,0.352244 0.148136,0.125057 0.349704,0.31063 0.447935,0.412387 0.09823,0.101751 0.270883,0.321492 0.383674,0.4883 0.112795,0.166809 0.248386,0.41634 0.301318,0.554515 0.05293,0.138173 0.114496,0.336778 0.136811,0.441343 0.02231,0.104564 0.04057,0.31845 0.04057,0.475299 0,0.156849 -0.01852,0.370709 -0.04115,0.475248 -0.02263,0.104541 -0.07387,0.264059 -0.113865,0.354493 -0.05763,0.13031 -0.100841,0.178773 -0.208258,0.233572 -0.105834,0.054 -0.170659,0.06552 -0.295722,0.05262 -0.0881,-0.0091 -0.238601,-0.05141 -0.334452,-0.09406 -0.09585,-0.04264 -0.281219,-0.165223 -0.411927,-0.272402 -0.130705,-0.107184 -0.248343,-0.194894 -0.261413,-0.194914 -0.01307,-2.1e-5 -0.02376,0.02515 -0.02376,0.05596 0,0.03079 -0.01505,0.283893 -0.03345,0.562436 -0.0184,0.278545 -0.07493,0.749849 -0.125626,1.047343 -0.05169,0.303268 -0.135912,0.665208 -0.191726,0.823852 -0.05476,0.155624 -0.167578,0.427496 -0.250722,0.604165 -0.08314,0.176665 -0.233074,0.433328 -0.333181,0.570356 -0.10011,0.13703 -0.25514,0.325387 -0.344522,0.418568 -0.08938,0.09318 -0.275572,0.256183 -0.413758,0.36222 -0.138187,0.106036 -0.388395,0.260821 -0.556019,0.343959 -0.167624,0.08314 -0.475201,0.207805 -0.683504,0.277034 -0.208304,0.06922 -0.488205,0.14781 -0.622001,0.174623 -0.133796,0.02681 -0.361939,0.06326 -0.506985,0.08099 -0.145046,0.01773 -0.50279,0.05391 -0.794989,0.0804 -0.292199,0.02648 -0.762744,0.04626 -1.045656,0.04393 z m 0.261935,-2.042341 c 0.357265,-0.0067 0.792163,-0.03308 0.96644,-0.05848 0.174276,-0.0254 0.44195,-0.07544 0.594832,-0.111175 0.152881,-0.03574 0.388278,-0.107521 0.523105,-0.159516 0.134824,-0.052 0.359388,-0.164846 0.499027,-0.25078 0.162563,-0.100043 0.350528,-0.257145 0.522552,-0.436751 0.164692,-0.171954 0.323098,-0.377017 0.409328,-0.529895 0.07737,-0.137164 0.186797,-0.372251 0.243181,-0.522413 0.05638,-0.150163 0.131843,-0.419397 0.167691,-0.5983 0.03583,-0.178903 0.08259,-0.456952 0.103865,-0.617888 0.02233,-0.168921 0.03816,-0.640862 0.03745,-1.116463 -7.33e-4,-0.453116 -0.0184,-1.009215 -0.03936,-1.235774 -0.02096,-0.226559 -0.07325,-0.640067 -0.116215,-0.91891 -0.04295,-0.278842 -0.114241,-0.642445 -0.158407,-0.808008 -0.04417,-0.165564 -0.142758,-0.455088 -0.219083,-0.643388 -0.07632,-0.188303 -0.198267,-0.4425009 -0.270974,-0.5648869 -0.07271,-0.122384 -0.22371,-0.319526 -0.335559,-0.438093 -0.134223,-0.142285 -0.275986,-0.253527 -0.416978,-0.327208 -0.117489,-0.0614 -0.291063,-0.134397 -0.385721,-0.162216 -0.09892,-0.02907 -0.288096,-0.050586 -0.444876,-0.050586 -0.150024,0 -0.355303,0.021497 -0.456177,0.047766 -0.100874,0.02628 -0.25967,0.08385 -0.352882,0.127947 -0.09322,0.0441 -0.288159,0.187842 -0.433217,0.319438 -0.145058,0.131593 -0.316644,0.266513 -0.381303,0.299821 -0.06467,0.03331 -0.176576,0.06055 -0.248704,0.06055 -0.07213,0 -0.178908,-0.02267 -0.237292,-0.05037 -0.05839,-0.02771 -0.227267,-0.163689 -0.375299,-0.30219 -0.182941,-0.171155 -0.334276,-0.281343 -0.47247,-0.344003 -0.111824,-0.05071 -0.300227,-0.109064 -0.418673,-0.129691 -0.118445,-0.02062 -0.337896,-0.030405 -0.487669,-0.02173 -0.215208,0.01247 -0.325271,0.03825 -0.52482,0.122939 -0.194579,0.08258 -0.305593,0.157305 -0.4839377,0.325755 -0.1457466,0.13766 -0.2904124,0.316232 -0.3907172,0.482293 -0.087604,0.145033 -0.2006901,0.3550219 -0.2513011,0.4666429 -0.050608,0.111619 -0.1490198,0.400781 -0.2186879,0.642579 -0.069671,0.2418 -0.1558314,0.584201 -0.1914737,0.760894 -0.035643,0.176693 -0.086263,0.504649 -0.1124889,0.728792 -0.026231,0.224142 -0.062648,0.776143 -0.080938,1.226667 -0.023497,0.578815 -0.023275,0.964613 7.336e-4,1.314992 0.01871,0.272721 0.048724,0.58141 0.066698,0.685974 0.017981,0.104564 0.061652,0.297063 0.097055,0.427771 0.035405,0.130705 0.1472996,0.408755 0.2486605,0.617886 0.1325982,0.273581 0.2436526,0.449184 0.3959127,0.626026 0.1163902,0.135185 0.2995911,0.307816 0.4071119,0.383628 0.1075208,0.07581 0.2881758,0.188383 0.4014548,0.250158 0.11328,0.06178 0.305777,0.147776 0.427769,0.19111 0.121994,0.04333 0.364551,0.108365 0.539018,0.144514 0.174469,0.03615 0.452518,0.0806 0.61789,0.09877 0.16537,0.01819 0.364839,0.03868 0.443263,0.04556 0.07843,0.0068 0.434898,0.007 0.792164,2.4e-4 z M 11.114647,11.10645 c -0.08079,-0.0014 -0.189669,-0.01745 -0.241953,-0.03572 -0.05229,-0.01827 -0.141082,-0.06753 -0.197333,-0.109477 -0.05625,-0.04193 -0.138183,-0.137517 -0.182072,-0.212406 -0.04388,-0.07489 -0.08868,-0.201047 -0.09956,-0.280353 -0.01324,-0.09652 -0.0026,-0.195982 0.03226,-0.300839 0.03143,-0.09461 0.104203,-0.2093359 0.18377,-0.2897029 0.09234,-0.09326 0.182963,-0.147948 0.302989,-0.18284 0.107329,-0.0312 0.214051,-0.04176 0.285924,-0.02827 0.06308,0.01183 0.165249,0.04759 0.227056,0.07947 0.06181,0.03187 0.157026,0.105542 0.211599,0.163708 0.05458,0.05816 0.116744,0.1606399 0.138159,0.2277169 0.02141,0.06708 0.03314,0.212938 0.02607,0.324134 -0.01023,0.160228 -0.0324,0.22997 -0.107014,0.336124 -0.05822,0.08284 -0.158787,0.167715 -0.263573,0.222458 -0.118651,0.06197 -0.213457,0.08776 -0.316326,0.08601 z m -0.142023,-0.631228 c 0.04532,0 0.118866,-0.03965 0.171843,-0.09262 0.06149,-0.06149 0.09262,-0.124794 0.09262,-0.188353 0,-0.05503 -0.03192,-0.132851 -0.07511,-0.183051 -0.0572,-0.0665 -0.103518,-0.08732 -0.194227,-0.08732 -0.0907,0 -0.137027,0.02082 -0.194225,0.08732 -0.04675,0.05434 -0.07511,0.127467 -0.07511,0.193641 0,0.07983 0.0243,0.126763 0.09749,0.188352 0.05362,0.04511 0.133141,0.08203 0.176714,0.08203 z m 3.86983,0.630872 c -0.07463,-0.0016 -0.183796,-0.0167 -0.242599,-0.03361 -0.05894,-0.01696 -0.175675,-0.101347 -0.26015,-0.188076 -0.08879,-0.09117 -0.167019,-0.206951 -0.186011,-0.275334 -0.01802,-0.06491 -0.03255,-0.175046 -0.03225,-0.244755 2.88e-4,-0.0697 0.02657,-0.183784 0.0584,-0.253493 0.03184,-0.0697 0.121695,-0.1853219 0.199674,-0.2569119 0.09878,-0.09069 0.191531,-0.142102 0.305806,-0.169515 0.128759,-0.03089 0.198114,-0.03118 0.322577,-0.0013 0.110736,0.02656 0.206281,0.08095 0.316823,0.180335 0.124293,0.111751 0.169038,0.1793389 0.20843,0.3148449 0.03324,0.114363 0.04268,0.217561 0.02799,0.306045 -0.0122,0.07342 -0.0407,0.169148 -0.06336,0.212717 -0.02264,0.04357 -0.09581,0.131991 -0.162607,0.196494 -0.06679,0.0645 -0.174449,0.139362 -0.239242,0.166355 -0.0648,0.02699 -0.178867,0.04779 -0.253492,0.04622 z m -0.132038,-0.632142 c 0.03686,7.34e-4 0.103494,-0.02742 0.148078,-0.06249 0.04458,-0.03507 0.09018,-0.105323 0.101347,-0.156121 0.0126,-0.05741 0.002,-0.127524 -0.02775,-0.18527 -0.02642,-0.0511 -0.08888,-0.1098209 -0.138772,-0.1304899 -0.06047,-0.02504 -0.116455,-0.02774 -0.167848,-0.0081 -0.04242,0.01621 -0.100751,0.05607 -0.129628,0.08856 -0.02888,0.0325 -0.05673,0.0876 -0.06189,0.12246 -0.0052,0.03486 8.43e-4,0.102226 0.0133,0.149712 0.01247,0.04748 0.0617,0.107515 0.109409,0.133398 0.0477,0.02589 0.116896,0.04764 0.153757,0.04833 z"
         style="fill:#2e2a2b;stroke-width:0.03168656" />
      <path
         inkscape:connector-curvature="0"
         id="path1462"
         d="m 12.900635,20.388307 c -0.278843,-0.0022 -0.699482,-0.02258 -0.934753,-0.0452 -0.235274,-0.02263 -0.534713,-0.05682 -0.665419,-0.07597 -0.130706,-0.01917 -0.415887,-0.07108 -0.633732,-0.11536 C 10.448887,20.10749 10.128061,20.020404 9.9537849,19.958258 9.7795078,19.896106 9.6084006,19.827169 9.5735456,19.805067 9.5386912,19.782964 9.4174898,19.726317 9.3042098,19.679183 9.1909312,19.632043 8.9699167,19.496989 8.8130683,19.379052 8.6562193,19.261114 8.4559659,19.088122 8.3680597,18.994625 8.2801534,18.901127 8.1217327,18.702507 8.0160117,18.553243 7.9102922,18.403979 7.7731464,18.168708 7.7112441,18.030415 7.6493396,17.892123 7.5748787,17.721939 7.5457699,17.652229 c -0.029111,-0.06971 -0.079691,-0.2123 -0.1124011,-0.316865 -0.032711,-0.104562 -0.095551,-0.404004 -0.1396434,-0.665417 -0.04409,-0.261415 -0.09445,-0.710572 -0.1119019,-0.998127 -0.017455,-0.287556 -0.031861,-0.569171 -0.03202,-0.625811 -1.201e-4,-0.05663 -0.014972,-0.102977 -0.032924,-0.102977 -0.017952,0 -0.1272923,0.08029 -0.2429771,0.178435 -0.1156856,0.09814 -0.303343,0.221957 -0.4170182,0.275151 -0.1150608,0.05385 -0.2777426,0.102201 -0.3669885,0.109083 -0.1342248,0.01034 -0.1819938,-0.0018 -0.2935964,-0.07538 -0.1106598,-0.07283 -0.1468052,-0.124191 -0.2128842,-0.302464 -0.043776,-0.118101 -0.094871,-0.33769 -0.1135469,-0.487975 -0.023989,-0.193053 -0.024115,-0.343993 -4.793e-4,-0.514318 0.018441,-0.132591 0.063409,-0.341553 0.099924,-0.464359 0.03652,-0.122805 0.099145,-0.288017 0.1391736,-0.367136 0.040031,-0.07913 0.1417864,-0.243764 0.2261283,-0.365874 0.084344,-0.122111 0.2317749,-0.310958 0.3276264,-0.419661 0.095852,-0.108701 0.2883474,-0.294441 0.4277694,-0.41275 C 6.8294309,11.977475 7.073036,11.793012 7.2313541,11.685863 7.5189257,11.491239 7.5192459,11.490872 7.5600946,11.308336 7.5825876,11.207844 7.6619675,10.911553 7.7365023,10.649914 7.8110363,10.388273 7.944468,9.9996761 8.0330138,9.7863601 8.1215598,9.5730461 8.2459018,9.2949981 8.3093281,9.1684741 8.372756,9.0419451 8.4831901,8.8386131 8.5547438,8.7166196 8.6262982,8.594627 8.7837022,8.3593538 8.9045337,8.1937921 9.0253674,8.0282291 9.2823491,7.7357222 9.4756049,7.5437752 9.6688608,7.3518298 9.955309,7.1035621 10.112158,6.9920702 10.269007,6.8805778 10.587757,6.6980109 10.820489,6.5863669 11.053222,6.4747214 11.35266,6.3553954 11.485906,6.3211996 c 0.133247,-0.034196 0.399115,-0.089399 0.590819,-0.122674 0.191703,-0.033276 0.476883,-0.069678 0.633731,-0.080899 0.156847,-0.011223 0.456285,-0.00452 0.665417,0.01488 0.209131,0.019406 0.557668,0.071738 0.774526,0.1162914 0.216859,0.04455 0.502037,0.1236735 0.633732,0.1758186 0.131693,0.052148 0.366169,0.1581014 0.521057,0.2354572 0.154888,0.077354 0.418678,0.2353576 0.5862,0.3511191 0.167524,0.1157599 0.422224,0.3202976 0.566,0.4545271 0.143776,0.1342278 0.369024,0.3779087 0.500549,0.5415127 0.131527,0.1636025 0.31715,0.4186612 0.4125,0.5667964 0.09535,0.1481351 0.277608,0.483219 0.405021,0.744634 0.127413,0.261413 0.254357,0.539464 0.282094,0.617886 0.02774,0.07843 0.115316,0.3493449 0.194618,0.6020449 0.07929,0.252702 0.174897,0.584358 0.212441,0.737014 l 0.06826,0.27756 0.251816,0.170317 c 0.1385,0.09368 0.372674,0.274066 0.520387,0.400873 0.147713,0.126805 0.353714,0.336396 0.45778,0.465756 0.104067,0.129362 0.245575,0.318204 0.314466,0.419651 0.06889,0.101449 0.167581,0.290993 0.219311,0.421215 0.05174,0.130222 0.118152,0.327645 0.147602,0.438717 0.033,0.124464 0.05372,0.323526 0.05401,0.518815 2.39e-4,0.19509 -0.01989,0.395209 -0.05251,0.520722 -0.02913,0.112119 -0.08467,0.260578 -0.123418,0.329903 -0.03876,0.06933 -0.108038,0.153828 -0.153977,0.187787 -0.04594,0.03396 -0.146487,0.06884 -0.223447,0.07752 -0.109342,0.01232 -0.189973,-0.0055 -0.368896,-0.08167 -0.134936,-0.05742 -0.335967,-0.183533 -0.489503,-0.307079 l -0.26053,-0.209644 -0.02032,0.184841 c -0.01113,0.101662 -0.02187,0.280357 -0.02376,0.397103 -0.0018,0.116743 -0.02547,0.380533 -0.0524,0.5862 -0.02693,0.205667 -0.0901,0.574096 -0.140396,0.81873 -0.05029,0.244634 -0.121754,0.522682 -0.158818,0.617887 -0.03706,0.09521 -0.133529,0.315689 -0.214367,0.489966 -0.08084,0.174274 -0.227907,0.430935 -0.326825,0.570356 -0.09892,0.13942 -0.246243,0.327326 -0.327388,0.417565 -0.08114,0.09023 -0.289811,0.272043 -0.463704,0.404004 -0.173893,0.131962 -0.328561,0.239931 -0.343707,0.239931 -0.01514,0 -0.168346,0.06577 -0.340442,0.146162 -0.172096,0.08038 -0.391328,0.173747 -0.48718,0.207461 -0.09585,0.03371 -0.362318,0.102595 -0.592146,0.153076 -0.229828,0.05049 -0.529266,0.106993 -0.665417,0.125595 -0.136151,0.01858 -0.475691,0.05487 -0.754532,0.08062 -0.278842,0.02575 -0.73513,0.04498 -1.013971,0.04276 z m 0.01584,-2.027761 c 0.252701,0.0022 0.623433,-0.01034 0.82385,-0.02806 0.200418,-0.01767 0.508866,-0.05353 0.685442,-0.07969 0.176576,-0.02616 0.440367,-0.08796 0.586201,-0.137324 0.145835,-0.04936 0.372097,-0.143383 0.502804,-0.208917 0.130707,-0.06552 0.323204,-0.179925 0.427768,-0.254209 0.104564,-0.07428 0.262196,-0.211644 0.350289,-0.305244 0.08809,-0.0936 0.217667,-0.255737 0.28794,-0.360304 0.07027,-0.104563 0.186332,-0.318449 0.257908,-0.475297 0.07158,-0.156849 0.167152,-0.41351 0.212394,-0.570358 0.04524,-0.156849 0.10563,-0.470546 0.134208,-0.697104 0.03677,-0.291605 0.05207,-0.666454 0.05232,-1.283307 2.51e-4,-0.479259 -0.01753,-1.085264 -0.03942,-1.346678 -0.02189,-0.261414 -0.06123,-0.617887 -0.08743,-0.792164 -0.0262,-0.174275 -0.0813,-0.4524 -0.122431,-0.618051 -0.04112,-0.165649 -0.130977,-0.465461 -0.199672,-0.666245 -0.0687,-0.200785 -0.162972,-0.435982 -0.209505,-0.522665 -0.04653,-0.08667 -0.13495,-0.2385889 -0.196484,-0.3375749 -0.06154,-0.09899 -0.228511,-0.291773 -0.371058,-0.428409 -0.216523,-0.207544 -0.298286,-0.263388 -0.496825,-0.339341 -0.186204,-0.07123 -0.30624,-0.09406 -0.554514,-0.105434 -0.174276,-0.00798 -0.388161,-3.59e-4 -0.475299,0.01707 -0.08713,0.01737 -0.243985,0.06285 -0.348551,0.101057 -0.104563,0.03821 -0.254285,0.120707 -0.332709,0.183332 -0.07843,0.06263 -0.224052,0.190157 -0.323619,0.283401 -0.09957,0.09325 -0.231002,0.190417 -0.292081,0.215938 -0.06108,0.02552 -0.162128,0.0464 -0.22455,0.0464 -0.06241,0 -0.157492,-0.02276 -0.211267,-0.05056 -0.05377,-0.02781 -0.219338,-0.165067 -0.367918,-0.30502 -0.170918,-0.160994 -0.333632,-0.282536 -0.442997,-0.330902 -0.09507,-0.04204 -0.260319,-0.09707 -0.367221,-0.122282 -0.106903,-0.02521 -0.320185,-0.046044 -0.473961,-0.046312 -0.21629,-3.585e-4 -0.334663,0.017882 -0.52283,0.080571 -0.133777,0.04457 -0.300269,0.118378 -0.369979,0.164014 -0.06971,0.04564 -0.2223041,0.183842 -0.3390972,0.307121 -0.1707036,0.180189 -0.2562327,0.311146 -0.4361173,0.6677599 -0.1283736,0.254494 -0.2519079,0.551678 -0.2897742,0.697103 -0.036302,0.139422 -0.099891,0.385702 -0.1413084,0.547291 -0.041418,0.16159 -0.09828,0.425379 -0.1263633,0.586202 -0.028084,0.160822 -0.071293,0.47064 -0.096024,0.688486 -0.02473,0.217843 -0.053824,0.795333 -0.064646,1.283306 -0.012315,0.554896 -0.00659,1.035925 0.01521,1.284223 0.019193,0.218349 0.069625,0.533915 0.1120772,0.701259 0.042451,0.167345 0.1154506,0.395075 0.1622225,0.506068 0.046771,0.110996 0.1060911,0.258479 0.1318215,0.327745 0.025733,0.06926 0.1129546,0.218985 0.1938333,0.332708 0.080877,0.113724 0.2117407,0.27633 0.2908052,0.36135 0.079064,0.08502 0.2221778,0.214992 0.3180299,0.288828 0.095851,0.07384 0.3026068,0.198636 0.4594568,0.277332 0.156845,0.0787 0.406378,0.18138 0.554513,0.228189 0.148134,0.0468 0.411924,0.106001 0.586201,0.131543 0.174276,0.02556 0.452326,0.05829 0.617888,0.07275 0.165561,0.01446 0.507779,0.02815 0.760477,0.03039 z m -1.711071,-7.276452 c -0.07843,0.0087 -0.171107,0.01012 -0.205962,0.0032 -0.03485,-0.0068 -0.09581,-0.01946 -0.135467,-0.02793 -0.03965,-0.0085 -0.128459,-0.06634 -0.197351,-0.128575 -0.06889,-0.06223 -0.156639,-0.163942 -0.194998,-0.226008 -0.05085,-0.08227 -0.07036,-0.165148 -0.07198,-0.305882 -0.0018,-0.157142 0.01435,-0.221267 0.08701,-0.344881 0.04909,-0.08352 0.146516,-0.1933259 0.2165,-0.2440209 0.06999,-0.05069 0.190231,-0.10162 0.267218,-0.113165 0.07699,-0.01154 0.204185,-0.01136 0.282665,3.59e-4 0.08721,0.01308 0.195014,0.06122 0.277258,0.123794 0.07401,0.05631 0.161662,0.158814 0.19478,0.2277699 0.03311,0.06895 0.06669,0.189645 0.07458,0.268196 0.0078,0.07855 -0.0021,0.204125 -0.02232,0.279052 -0.02017,0.07493 -0.08831,0.193386 -0.151424,0.263236 -0.06312,0.06986 -0.151457,0.145463 -0.196335,0.168028 -0.04488,0.02256 -0.145763,0.04811 -0.224188,0.05675 z m -0.257527,-0.608872 c 0.05165,0 0.116991,-0.0089 0.145202,-0.01968 0.02822,-0.01083 0.07216,-0.06002 0.09765,-0.109329 0.02549,-0.0493 0.04636,-0.127097 0.04636,-0.172873 0,-0.04974 -0.03727,-0.120496 -0.09262,-0.1758489 -0.05297,-0.05298 -0.126532,-0.09262 -0.171845,-0.09262 -0.04356,0 -0.123095,0.03691 -0.176714,0.08203 -0.07861,0.06615 -0.09749,0.1063079 -0.09749,0.2074029 0,0.09086 0.0214,0.146779 0.07778,0.203144 0.04757,0.04758 0.114227,0.07778 0.171685,0.07778 z m 3.996538,0.609531 c -0.07843,0.0084 -0.171108,0.0094 -0.205963,0.0026 -0.03485,-0.0068 -0.0963,-0.01958 -0.136541,-0.02819 -0.04024,-0.0087 -0.138594,-0.07579 -0.218562,-0.149279 -0.07997,-0.07348 -0.164677,-0.179477 -0.188246,-0.235557 -0.02357,-0.05609 -0.04254,-0.184411 -0.04216,-0.285179 4.18e-4,-0.109209 0.02436,-0.235318 0.05928,-0.312204 0.03222,-0.07094 0.113896,-0.1746719 0.181501,-0.2305089 0.0676,-0.05584 0.179952,-0.116999 0.249663,-0.135914 0.06971,-0.01892 0.200124,-0.02688 0.289808,-0.01769 0.102303,0.01048 0.21138,0.04869 0.292749,0.102528 0.07133,0.0472 0.172624,0.150644 0.225099,0.2298659 0.08278,0.124975 0.09541,0.172772 0.09541,0.361049 0,0.174333 -0.01484,0.240244 -0.07543,0.335197 -0.04148,0.06501 -0.109218,0.148391 -0.150511,0.185296 -0.04129,0.03691 -0.110737,0.08868 -0.154302,0.115034 -0.04357,0.02636 -0.143382,0.05471 -0.221805,0.06301 z m -0.261729,-0.609531 c 0.05909,0 0.136203,-0.01539 0.171332,-0.03418 0.03513,-0.0188 0.08189,-0.07704 0.103909,-0.129422 0.02204,-0.05239 0.03368,-0.128546 0.02589,-0.169252 -0.0077,-0.0407 -0.04162,-0.103496 -0.07519,-0.139531 -0.03357,-0.03604 -0.09657,-0.07443 -0.139994,-0.08534 -0.04341,-0.0109 -0.122127,-0.0018 -0.174893,0.01992 -0.05276,0.02185 -0.117814,0.08204 -0.144553,0.133748 -0.02975,0.05756 -0.04057,0.126469 -0.02785,0.177734 0.01143,0.04605 0.05071,0.115808 0.08732,0.155021 0.04372,0.04684 0.103416,0.07129 0.174012,0.07129 z"
         style="fill:#221e1f;stroke-width:0.03168656" />
    </g>
    <text
       xml:space="preserve"
       style="font-style:normal;font-weight:normal;font-size:6.66342688px;line-height:1.25;font-family:sans-serif;letter-spacing:0px;word-spacing:0px;fill:#000000;fill-opacity:1;stroke:none;stroke-width:0.16658565"
       x="-23.965681"
       y="24.620129"
       id="text972-8"
       transform="rotate(-90)"><tspan
         sodipodi:role="line"
         id="tspan970-5"
         x="-23.965681"
         y="24.620129"
         style="font-style:normal;font-variant:normal;font-weight:normal;font-stretch:normal;font-family:Nunito;-inkscape-font-specification:Nunito;stroke-width:0.16658565">pengy</tspan></text>
  </g>
</svg>
