<?xml version="1.0" encoding="UTF-8" standalone="no"?>
<!-- Created with Inkscape (http://www.inkscape.org/) -->

<svg
   xmlns:dc="http://purl.org/dc/elements/1.1/"
   xmlns:cc="http://creativecommons.org/ns#"
   xmlns:rdf="http://www.w3.org/1999/02/22-rdf-syntax-ns#"
   xmlns:svg="http://www.w3.org/2000/svg"
   xmlns="http://www.w3.org/2000/svg"
   xmlns:sodipodi="http://sodipodi.sourceforge.net/DTD/sodipodi-0.dtd"
   xmlns:inkscape="http://www.inkscape.org/namespaces/inkscape"
   width="210mm"
   height="297mm"
   viewBox="0 0 210 297"
   version="1.1"
   id="svg888"
   inkscape:version="0.92.3 (2405546, 2018-03-11)"
   sodipodi:docname="pengy.svg">
  <defs
     id="defs882" />
  <sodipodi:namedview
     id="base"
     pagecolor="#ffffff"
     bordercolor="#666666"
     borderopacity="1.0"
     inkscape:pageopacity="0.0"
     inkscape:pageshadow="2"
     inkscape:zoom="0.98994949"
     inkscape:cx="962.32075"
     inkscape:cy="175.35343"
     inkscape:document-units="mm"
     inkscape:current-layer="g1460"
     showgrid="false"
     inkscape:window-width="2560"
     inkscape:window-height="1027"
     inkscape:window-x="-8"
     inkscape:window-y="-8"
     inkscape:window-maximized="1" />
  <metadata
     id="metadata885">
    <rdf:RDF>
      <cc:Work
         rdf:about="">
        <dc:format>image/svg+xml</dc:format>
        <dc:type
           rdf:resource="http://purl.org/dc/dcmitype/StillImage" />
        <dc:title></dc:title>
      </cc:Work>
    </rdf:RDF>
  </metadata>
  <g
     inkscape:label="Layer 1"
     inkscape:groupmode="layer"
     id="layer1">
    <g
       id="g1460"
       transform="translate(155.23926,4.8513477)">
      <path
         style="fill:#9d9b9c;stroke-width:0.26458332"
         d="m -107.55125,287.07997 c -1.6938,-0.0121 -3.73447,-0.18269 -4.53484,-0.37904 -0.80036,-0.19634 -1.93145,-0.55723 -2.51354,-0.80197 -0.58208,-0.24474 -1.39991,-0.68768 -1.81739,-0.9843 -0.41749,-0.29662 -1.1021,-1.08022 -1.52136,-1.74133 -0.55432,-0.87407 -0.76161,-1.53075 -0.75981,-2.40697 0.002,-0.84045 0.23298,-1.60682 0.76442,-2.5333 0.41906,-0.73057 1.30825,-1.8319 1.97598,-2.44739 0.66772,-0.61549 1.33577,-1.11908 1.48454,-1.11908 0.14878,0 0.2705,-0.1 0.2705,-0.22211 0,-0.12216 -0.26789,-0.34506 -0.59532,-0.49532 -0.32742,-0.15027 -1.58265,-1.01987 -2.7894,-1.93245 -1.20675,-0.91257 -2.92085,-2.44585 -3.8091,-3.40727 -0.88826,-0.96143 -2.23793,-2.70055 -2.99927,-3.86472 -0.76134,-1.16417 -1.74104,-2.83104 -2.17712,-3.70417 -0.43607,-0.87312 -1.11336,-2.4799 -1.50509,-3.57061 -0.39172,-1.09072 -0.99898,-3.08679 -1.34946,-4.43572 -0.35048,-1.34893 -0.82672,-3.61168 -1.05831,-5.02834 -0.23159,-1.41666 -0.525,-4.89746 -0.65203,-7.73512 -0.12703,-2.83765 -0.23813,-5.18996 -0.24689,-5.22733 -0.009,-0.0374 -0.87913,0.66237 -1.93416,1.555 -1.05502,0.89263 -2.62448,1.96097 -3.48768,2.37407 -0.8632,0.4131 -2.07466,0.82686 -2.69214,0.91946 -0.63212,0.0948 -1.53021,0.0339 -2.05534,-0.13945 -0.51296,-0.16929 -1.28359,-0.7075 -1.71251,-1.19601 -0.42892,-0.48851 -1.04862,-1.58257 -1.37711,-2.43124 -0.47037,-1.21523 -0.62318,-2.25575 -0.71929,-4.89784 -0.0929,-2.55437 -0.0143,-3.83893 0.3294,-5.38386 0.26801,-1.20465 1.02683,-3.17411 1.86764,-4.84728 0.7836,-1.55934 2.19711,-3.79025 3.16437,-4.99426 0.96148,-1.19683 2.60574,-2.94663 3.65391,-3.88847 1.04817,-0.94183 2.76454,-2.35491 3.81415,-3.14018 1.04961,-0.78526 2.42467,-1.70164 3.05568,-2.03639 l 1.14729,-0.60864 0.85647,-3.56172 c 0.47105,-1.95895 1.51459,-5.42448 2.31898,-7.70118 0.80438,-2.27671 2.27671,-5.80634 3.27185,-7.84363 0.99513,-2.03729 2.59984,-4.888 3.56602,-6.3349 0.96618,-1.4469 2.39586,-3.41143 3.17709,-4.36562 0.78122,-0.9542 2.29398,-2.58914 3.3617,-3.6332 1.06771,-1.04407 2.47707,-2.34295 3.13192,-2.8864 0.65484,-0.54345 2.15735,-1.61466 3.33891,-2.38046 1.18156,-0.76581 2.99114,-1.81683 4.0213,-2.3356 1.03015,-0.51878 3.456701,-1.47039 5.392332,-2.11469 1.93757,-0.64495 4.824172,-1.37427 6.422533,-1.62271 2.318842,-0.36042 3.996404,-0.42336 8.334374,-0.31272 4.552244,0.11611 5.880756,0.24563 8.209296,0.80032 1.527968,0.36398 4.212756,1.18458 5.966195,1.82356 1.898176,0.69171 4.342278,1.85267 6.040781,2.86938 1.568991,0.93919 3.888751,2.54106 5.155041,3.5597 1.26628,1.01865 3.19869,2.80459 4.29426,3.96875 1.09556,1.16417 2.71481,3.06917 3.59833,4.23334 0.88352,1.16416 2.38722,3.42635 3.34156,5.02708 0.95434,1.60073 2.51784,4.71553 3.47444,6.92179 1.05088,2.42369 2.30435,5.98419 3.16697,8.99583 0.78523,2.74145 1.5117,5.43414 1.61437,5.98374 0.1615,0.86446 0.42348,1.15397 1.94185,2.14587 0.96534,0.63062 2.61169,1.8506 3.65855,2.71107 1.04687,0.86046 2.78445,2.51419 3.86128,3.67496 1.07684,1.16077 2.51923,2.93185 3.2053,3.93574 0.68608,1.00388 1.52156,2.3731 1.85664,3.0427 0.33507,0.66961 0.85783,1.99137 1.16167,2.93726 0.30385,0.94588 0.67758,2.42627 0.83052,3.28974 0.15294,0.86347 0.27807,2.31151 0.27807,3.21787 0,0.90636 -0.17273,2.5507 -0.38384,3.65411 -0.21112,1.1034 -0.61166,2.51286 -0.89011,3.13213 -0.27844,0.61926 -0.80857,1.40377 -1.17808,1.74335 -0.3695,0.33957 -1.12569,0.71977 -1.68041,0.84488 -0.61551,0.13882 -1.52776,0.11917 -2.34068,-0.0504 -0.73265,-0.15284 -1.93984,-0.62116 -2.68264,-1.04071 -0.74281,-0.41955 -2.17156,-1.41763 -3.175,-2.21794 l -1.82444,-1.45511 -0.18988,3.63531 c -0.10444,1.99943 -0.37728,5.1236 -0.60632,6.94261 -0.22904,1.81901 -0.69597,4.55745 -1.03763,6.08542 -0.34166,1.52796 -1.06596,3.96875 -1.60955,5.42395 -0.54359,1.45521 -1.40236,3.47069 -1.90837,4.47885 -0.50602,1.00816 -1.55788,2.73457 -2.33748,3.83646 -0.77959,1.10189 -2.22594,2.84077 -3.21411,3.86417 -0.98817,1.0234 -2.77304,2.55808 -3.96638,3.41039 l -2.16972,1.54967 1.70272,1.64505 c 0.93649,0.90478 1.94002,2.16807 2.23005,2.80731 0.29004,0.63925 0.52995,1.6135 0.53315,2.165 0.003,0.5515 -0.22073,1.44447 -0.49761,1.98437 -0.27688,0.53991 -0.78325,1.24266 -1.12526,1.56167 -0.34201,0.31902 -1.298,0.88958 -2.12442,1.26793 -0.82642,0.37835 -2.49294,0.87613 -3.70338,1.10618 -1.60307,0.30467 -3.06315,0.37889 -5.37581,0.27326 -2.128888,-0.0972 -4.031679,-0.36617 -5.775047,-0.81623 -1.430025,-0.36917 -3.244646,-0.96633 -4.032493,-1.32702 -0.787848,-0.36068 -2.103888,-1.10147 -2.924532,-1.64618 -0.820645,-0.54471 -1.881074,-1.39092 -2.356512,-1.88046 l -0.864433,-0.89008 -7.453651,-0.0535 -7.453648,-0.0535 -1.270498,1.22461 c -0.698775,0.67354 -2.089578,1.7088 -3.090677,2.30058 -1.001096,0.59178 -2.745644,1.37609 -3.87677,1.74291 -1.131125,0.36681 -3.019511,0.8496 -4.196411,1.07285 -1.22278,0.23196 -3.45964,0.39647 -5.21945,0.38388 z m 24.47515,-23.83494 c 2.785856,0.0244 6.2982,-0.076 7.805208,-0.22332 1.507006,-0.14729 3.692512,-0.4499 4.856678,-0.67247 1.164167,-0.22256 3.305434,-0.76903 4.75837,-1.21437 1.452935,-0.44534 3.238873,-1.10898 3.96875,-1.47476 0.729877,-0.36578 2.041421,-1.14102 2.914546,-1.72277 0.87313,-0.58174 2.39913,-1.84791 3.39111,-2.81371 0.99199,-0.9658 2.43154,-2.76802 3.19902,-4.00495 0.76747,-1.23693 1.70196,-3.02287 2.07665,-3.96875 0.37469,-0.94589 0.9875,-2.85089 1.36181,-4.23333 0.37431,-1.38245 0.86928,-3.70417 1.09993,-5.15938 0.23065,-1.45521 0.48465,-5.20568 0.56444,-8.33437 0.0811,-3.18065 0.0122,-7.72985 -0.15638,-10.31875 -0.1658,-2.54662 -0.54284,-6.29709 -0.83786,-8.33438 -0.29503,-2.03729 -0.89839,-5.31151 -1.34081,-7.27604 -0.44242,-1.96453 -1.22477,-4.64344 -1.73856,-5.95312 -0.51378,-1.30969 -1.4063,-3.29728 -1.98337,-4.41686 -0.57707,-1.11958 -1.82614,-2.94615 -2.7757,-4.05903 -0.95054,-1.11402 -2.43427,-2.48089 -3.30132,-3.04129 -0.866171,-0.55983 -2.351385,-1.27629 -3.300483,-1.59213 -1.31147,-0.43643 -2.339586,-0.57123 -4.28372,-0.56167 -1.468157,0.007 -3.226041,0.19227 -4.125783,0.43434 -0.862229,0.23197 -2.163699,0.74526 -2.892155,1.14066 -0.728456,0.39539 -2.285179,1.60083 -3.45939,2.67875 -1.17421,1.07792 -2.611178,2.17663 -3.193261,2.44158 -0.582083,0.26495 -1.415521,0.48368 -1.852083,0.48607 -0.436563,0.002 -1.218449,-0.11365 -1.737524,-0.25784 -0.598456,-0.16625 -1.830694,-1.08296 -3.367754,-2.50539 -1.333191,-1.23377 -3.111148,-2.58938 -3.951018,-3.01247 -0.839869,-0.42309 -2.211951,-0.91085 -3.049068,-1.08391 -0.837116,-0.17306 -2.572327,-0.31465 -3.856024,-0.31465 -1.583053,0 -2.806669,0.15957 -3.803119,0.49597 -0.80802,0.27279 -2.15065,0.90637 -2.98363,1.40796 -0.83298,0.50159 -2.20177,1.64431 -3.04175,2.53937 -0.83998,0.89506 -2.12435,2.62147 -2.85415,3.83646 -0.7298,1.21499 -1.75254,3.35292 -2.27275,4.75094 -0.5202,1.39803 -1.29463,3.78408 -1.72095,5.30234 -0.42632,1.51825 -0.96567,3.88675 -1.19856,5.26334 -0.23289,1.37658 -0.60197,4.05068 -0.82017,5.94246 -0.21821,1.89177 -0.51566,5.40411 -0.661,7.8052 -0.14534,2.4011 -0.26532,6.04965 -0.26662,8.10791 -0.001,2.05825 0.121,4.97528 0.27178,6.48229 0.15078,1.50701 0.44803,3.67376 0.66055,4.81501 0.21253,1.14125 0.57501,2.80812 0.80553,3.70416 0.23051,0.89605 1.09053,2.98196 1.91116,4.63536 1.09716,2.21057 1.98432,3.55654 3.3521,5.08571 1.02303,1.14373 2.63396,2.63269 3.57984,3.30877 0.94589,0.67609 2.67344,1.68383 3.83901,2.23941 1.16557,0.55558 3.38552,1.36572 4.933227,1.80031 1.547706,0.43458 4.046873,0.97621 5.553701,1.20361 1.506829,0.2274 3.215939,0.45481 3.798023,0.50535 0.582083,0.0505 3.33767,0.11192 6.123529,0.13638 z m 0.517004,-48.92205 c -0.47108,-0.0107 -2.941037,-1.06704 -5.807525,-2.48374 -2.743305,-1.35581 -5.170601,-2.64788 -5.393994,-2.87128 -0.22339,-0.22339 -0.338129,-0.58347 -0.254971,-0.80017 0.08316,-0.21671 2.482321,-1.53562 5.331479,-2.93093 3.671106,-1.79784 5.46187,-2.53693 6.146834,-2.53693 0.672682,0 2.501672,0.73378 6.015638,2.41342 2.776997,1.32737 5.214196,2.5683 5.415996,2.75761 0.201801,0.1893 0.295614,0.52999 0.208471,0.75708 -0.08714,0.22709 -2.562291,1.60554 -5.500333,3.06322 -3.475654,1.72442 -5.628264,2.64383 -6.161595,2.63172 z m -15.239491,-11.18829 c -0.654844,0.0446 -1.671304,-0.096 -2.258803,-0.31243 -0.58749,-0.21641 -1.49954,-0.74904 -2.02676,-1.18362 -0.52722,-0.43458 -1.2074,-1.30414 -1.51151,-1.93234 -0.37266,-0.7698 -0.55293,-1.66019 -0.55293,-2.731 0,-1.20893 0.17397,-1.93197 0.72761,-3.02403 0.54232,-1.06975 1.05285,-1.63376 2.00486,-2.21486 0.91333,-0.5575 1.71575,-0.81135 2.816231,-0.89095 0.846437,-0.0612 1.950988,0.0247 2.454561,0.19085 0.503571,0.16619 1.413264,0.72816 2.021538,1.24882 0.608275,0.52066 1.351878,1.42871 1.652453,2.01788 0.360942,0.70751 0.546499,1.57761 0.546499,2.56258 0,0.82025 -0.176247,1.91317 -0.391657,2.42873 -0.215411,0.51555 -0.83103,1.36408 -1.368041,1.88561 -0.537012,0.52154 -1.414468,1.15648 -1.949905,1.41098 -0.535438,0.25451 -1.509303,0.49921 -2.164146,0.54378 z m -1.476135,-5.72643 c 0.336061,0 0.924735,-0.24676 1.308161,-0.54837 0.510868,-0.40184 0.69714,-0.79067 0.69714,-1.4552 0,-0.55406 -0.205856,-1.1127 -0.529166,-1.43601 -0.345668,-0.34567 -0.881944,-0.52917 -1.546493,-0.52917 -0.66336,0 -1.17557,0.17487 -1.47215,0.50258 -0.25015,0.27641 -0.46588,0.89157 -0.4794,1.36701 -0.0179,0.63083 0.16939,1.03127 0.69316,1.4818 0.39475,0.33955 0.992685,0.61736 1.328748,0.61736 z m 32.185924,5.80923 c -0.373772,-0.006 -1.148948,-0.17882 -1.722618,-0.38318 -0.573667,-0.20436 -1.347573,-0.59466 -1.719791,-0.86733 -0.372216,-0.27267 -1.056905,-1.05601 -1.521529,-1.74075 -0.464624,-0.68474 -0.922904,-1.76599 -1.018394,-2.40278 -0.112329,-0.74905 -0.02821,-1.658 0.238268,-2.57465 0.240379,-0.82688 0.789016,-1.82858 1.317572,-2.40563 0.498125,-0.54383 1.425895,-1.22482 2.061712,-1.51332 0.675627,-0.30657 1.736807,-0.52696 2.553592,-0.53036 0.768657,-0.003 1.789348,0.15789 2.268201,0.35797 0.478851,0.20008 1.327155,0.7646 1.885119,1.2545 0.557964,0.4899 1.2313,1.36799 1.496301,1.95133 0.284781,0.62687 0.484198,1.68706 0.487632,2.59249 0.0038,0.99962 -0.171156,1.87878 -0.503502,2.53023 -0.280119,0.54909 -0.964729,1.44123 -1.521354,1.98255 -0.610544,0.59375 -1.529678,1.1382 -2.316834,1.37237 -0.717638,0.2135 -1.610606,0.38294 -1.984375,0.37656 z m -0.896459,-5.80923 c 0.350793,0 0.930048,-0.29224 1.287235,-0.64943 0.405194,-0.40519 0.649433,-0.95247 0.649433,-1.45521 0,-0.45299 -0.231674,-1.03745 -0.529167,-1.33494 -0.291041,-0.29104 -0.737526,-0.54288 -0.992187,-0.55963 -0.254661,-0.0168 -0.701146,-0.006 -0.992187,0.0246 -0.291042,0.0303 -0.737526,0.24104 -0.992188,0.46835 -0.28611,0.25538 -0.463021,0.79465 -0.463021,1.41141 0,0.76315 0.164116,1.12722 0.69714,1.54649 0.383426,0.30161 0.984152,0.54837 1.334942,0.54837 z"
         id="path1474"
         inkscape:connector-curvature="0" />
      <path
         style="fill:#cc8a6d;stroke-width:0.26458332"
         d="m -107.55125,287.07997 c -1.6938,-0.0121 -3.73447,-0.18269 -4.53484,-0.37904 -0.80036,-0.19634 -1.93145,-0.55723 -2.51354,-0.80197 -0.58208,-0.24474 -1.39991,-0.68768 -1.81739,-0.9843 -0.41749,-0.29662 -1.1021,-1.08022 -1.52136,-1.74133 -0.55432,-0.87407 -0.76161,-1.53075 -0.75981,-2.40697 0.002,-0.84045 0.23298,-1.60682 0.76442,-2.5333 0.41906,-0.73057 1.28988,-1.81497 1.93516,-2.40977 0.64527,-0.59479 1.34309,-1.15791 1.55069,-1.25136 0.30499,-0.1373 0.31023,-0.2008 0.0273,-0.33075 -0.19261,-0.0885 -1.5023,-1.01877 -2.91042,-2.06737 -1.40812,-1.04859 -3.41404,-2.87467 -4.4576,-4.05795 -1.04357,-1.18327 -2.57103,-3.28024 -3.39436,-4.65993 -0.82333,-1.37968 -1.82672,-3.321 -2.22976,-4.31403 -0.40304,-0.99303 -1.10672,-3.06604 -1.56372,-4.60669 -0.457,-1.54065 -1.08159,-4.21956 -1.38799,-5.95313 -0.37999,-2.14994 -0.6027,-4.81313 -0.70057,-8.37746 -0.0789,-2.87404 -0.18366,-5.22552 -0.23277,-5.22552 -0.0491,0 -1.0679,0.79006 -2.26397,1.7557 -1.19606,0.96564 -2.77587,2.03424 -3.51067,2.37469 -0.73481,0.34043 -1.83391,0.69364 -2.44246,0.7849 -0.61592,0.0924 -1.51994,0.0295 -2.03911,-0.14188 -0.51296,-0.16929 -1.28359,-0.7075 -1.71251,-1.19601 -0.42892,-0.48851 -1.04862,-1.58257 -1.37711,-2.43124 -0.47037,-1.21523 -0.62318,-2.25575 -0.71929,-4.89784 -0.0928,-2.55208 -0.0142,-3.83929 0.32845,-5.37959 0.25252,-1.13504 1.01378,-3.15002 1.7324,-4.58548 0.70506,-1.40838 1.90936,-3.39288 2.67622,-4.41 0.76687,-1.01711 2.29496,-2.74226 3.39577,-3.83367 1.10081,-1.09141 2.97479,-2.71769 4.16441,-3.61397 1.18962,-0.89628 2.75929,-1.96482 3.48816,-2.37453 1.31489,-0.73914 1.32854,-0.76046 1.75203,-2.73603 0.23475,-1.0951 0.72505,-3.03027 1.08955,-4.30038 0.3645,-1.2701 1.25469,-3.94901 1.9782,-5.95312 0.72351,-2.00411 2.14124,-5.28468 3.15053,-7.29014 1.00928,-2.00547 2.81754,-5.10109 4.01835,-6.87917 1.60477,-2.37622 3.09635,-4.14464 5.629,-6.67375 2.18725,-2.1842 4.31537,-4.01895 5.82694,-5.02367 1.30968,-0.87053 3.46236,-2.12869 4.78373,-2.79591 1.32137,-0.66723 3.720829,-1.65108 5.332138,-2.18634 1.61131,-0.53526 4.32226,-1.21128 6.02433,-1.50226 2.253395,-0.38524 4.303122,-0.52906 7.540005,-0.52906 3.254301,0 5.285327,0.14351 7.580479,0.53561 1.724329,0.29459 4.558146,1.01971 6.297371,1.61138 1.739223,0.59168 4.120473,1.55652 5.291667,2.14411 1.171191,0.58758 3.260534,1.81484 4.642982,2.72723 1.38245,0.9124 3.74631,2.82432 5.25302,4.24872 1.5067,1.4244 3.5977,3.66898 4.64665,4.98795 1.04895,1.31897 2.7718,3.81176 3.82856,5.53955 1.05675,1.72777 2.70603,4.94246 3.66505,7.14375 0.95902,2.20128 2.25388,5.69848 2.87747,7.77156 0.62359,2.07309 1.39914,4.8512 1.72345,6.17359 0.58746,2.39538 0.59466,2.40755 1.93158,3.26456 0.73806,0.47311 2.39956,1.71417 3.69223,2.75791 1.29266,1.04373 3.21603,2.83787 4.27415,3.98697 1.05812,1.14909 2.51349,2.96398 3.23416,4.03308 0.72067,1.0691 1.56353,2.44122 1.87302,3.04916 0.30949,0.60793 0.86874,2.15574 1.24276,3.43958 0.37403,1.28383 0.74789,3.28674 0.8308,4.45091 0.0829,1.16417 0.0142,2.9907 -0.15263,4.05895 -0.16685,1.06826 -0.53973,2.61478 -0.82861,3.43671 -0.28889,0.82193 -0.87786,1.84703 -1.30883,2.278 -0.67038,0.67038 -1.02868,0.79919 -2.48013,0.89161 -1.4363,0.0915 -1.95299,-0.007 -3.36818,-0.64215 -0.91939,-0.4126 -2.63006,-1.50632 -3.8015,-2.43051 l -2.12989,-1.68033 -0.0639,1.1449 c -0.0351,0.6297 -0.18884,2.9009 -0.34157,5.04712 -0.15273,2.14621 -0.51382,5.3609 -0.80242,7.14375 -0.28861,1.78284 -0.76751,4.1345 -1.06423,5.22591 -0.29672,1.0914 -1.01118,3.15505 -1.5877,4.58588 -0.57651,1.43083 -1.33967,3.17669 -1.69591,3.8797 -0.35625,0.70301 -1.205,2.09218 -1.88612,3.08704 -0.68112,0.99486 -2.14286,2.74259 -3.24829,3.88384 -1.10544,1.14125 -2.88121,2.72568 -3.94615,3.52095 -1.06493,0.79527 -2.10308,1.50996 -2.30699,1.58821 -0.25284,0.097 0.0263,0.45619 0.87792,1.12949 0.68676,0.54297 1.58218,1.42465 1.98981,1.95929 0.40763,0.53463 0.91365,1.3849 1.12448,1.88949 0.21083,0.5046 0.38333,1.34273 0.38333,1.86252 0,0.5198 -0.22654,1.38683 -0.50342,1.92673 -0.27688,0.53991 -0.78325,1.24266 -1.12526,1.56167 -0.34201,0.31902 -1.298,0.88958 -2.12442,1.26793 -0.82642,0.37835 -2.49294,0.87613 -3.70338,1.10618 -1.60307,0.30467 -3.06315,0.37889 -5.37581,0.27326 -2.132192,-0.0974 -4.044015,-0.36791 -5.820838,-0.82366 -1.455208,-0.37325 -3.479271,-1.08925 -4.497916,-1.59111 -1.018646,-0.50186 -2.506083,-1.40155 -3.305416,-1.99933 -0.799335,-0.59777 -1.612466,-1.34921 -1.806959,-1.66986 -0.351215,-0.57904 -0.40495,-0.58301 -7.891075,-0.58301 h -7.537453 l -1.270828,1.22461 c -0.698955,0.67354 -2.089909,1.7088 -3.091008,2.30058 -1.001096,0.59178 -2.745644,1.37609 -3.87677,1.74291 -1.131125,0.36681 -3.019509,0.8496 -4.196419,1.07285 -1.22277,0.23196 -3.45963,0.39647 -5.21944,0.38388 z m 27.215162,-23.70967 c 2.110052,-0.0648 5.228894,-0.28846 6.93076,-0.49703 1.701869,-0.20857 4.477567,-0.73588 6.168223,-1.1718 1.690656,-0.43592 3.944138,-1.19464 5.007739,-1.68606 1.063601,-0.49141 2.693208,-1.40714 3.621358,-2.03495 0.92815,-0.62781 2.37533,-1.79485 3.21596,-2.59343 0.84062,-0.79857 2.08153,-2.29154 2.75757,-3.3177 0.67604,-1.02617 1.68251,-2.83315 2.23658,-4.01553 0.55408,-1.18237 1.35607,-3.50655 1.7822,-5.16484 0.42613,-1.65829 0.96431,-4.48451 1.19595,-6.28049 0.28627,-2.21957 0.42116,-5.37155 0.42116,-9.84132 0,-3.61674 -0.1261,-8.10043 -0.28023,-9.96375 -0.15413,-1.86331 -0.51038,-4.91715 -0.79167,-6.78629 -0.28129,-1.86915 -0.82162,-4.78144 -1.20073,-6.47176 -0.37911,-1.69032 -0.98583,-3.91148 -1.34827,-4.93592 -0.36244,-1.02444 -1.30072,-3.17231 -2.08506,-4.77304 -0.93891,-1.91616 -1.99405,-3.57262 -3.08864,-4.84885 -0.9144,-1.06613 -2.36755,-2.40201 -3.22922,-2.9686 -0.861665,-0.5666 -2.289039,-1.28086 -3.171943,-1.58724 -0.882904,-0.30638 -2.55778,-0.61905 -3.721946,-0.69481 -1.414992,-0.0921 -2.774487,0.002 -4.101042,0.28256 -1.091406,0.23118 -2.710714,0.77709 -3.598463,1.21313 -0.902583,0.44333 -2.559079,1.66298 -3.757858,2.76685 -1.179076,1.08572 -2.53633,2.17952 -3.016123,2.43067 -0.47979,0.25114 -1.408128,0.45663 -2.062972,0.45663 -0.654844,0 -1.607343,-0.21399 -2.116666,-0.47552 -0.509323,-0.26154 -1.833851,-1.35282 -2.943395,-2.42507 -1.442698,-1.3942 -2.582338,-2.21785 -4.00078,-2.89146 -1.462471,-0.69453 -2.618189,-1.02205 -4.400102,-1.24697 -1.867472,-0.23572 -2.852299,-0.23122 -4.333592,0.0198 -1.05431,0.17867 -2.80459,0.74433 -3.88951,1.25703 -1.52244,0.71945 -2.39794,1.37736 -3.83646,2.88299 -1.07744,1.1277 -2.40778,2.91013 -3.15296,4.22444 -0.709,1.25049 -1.57599,2.98391 -1.92664,3.85204 -0.35066,0.86812 -0.98104,2.69429 -1.40087,4.05815 -0.41982,1.36386 -1.06339,3.83675 -1.43015,5.49531 -0.36676,1.65857 -0.84993,4.50385 -1.07371,6.32286 -0.22378,1.81901 -0.52844,4.97417 -0.67703,7.01146 -0.14858,2.03729 -0.27063,6.41753 -0.27122,9.73386 -5.3e-4,3.31634 0.12225,7.18587 0.27298,8.59896 0.15073,1.4131 0.57884,3.80996 0.95135,5.32637 0.37251,1.51641 1.1222,3.78288 1.66598,5.03662 0.54377,1.25374 1.44291,2.9896 1.99809,3.85748 0.55517,0.86788 1.77778,2.37386 2.71691,3.34663 0.93913,0.97278 2.52985,2.32041 3.53492,2.99474 1.00508,0.67433 2.71195,1.63474 3.79306,2.13424 1.08111,0.4995 3.312595,1.254 4.958867,1.67666 1.646272,0.42265 3.934867,0.90978 5.085768,1.08249 1.1509,0.17272 3.591681,0.40723 5.423958,0.52115 1.832276,0.11391 5.057817,0.1541 7.167869,0.0893 z m -1.984375,-49.12714 c -0.620218,0.0946 -1.979552,-0.47426 -6.217708,-2.6022 -4.339796,-2.17897 -5.423958,-2.82909 -5.423958,-3.25249 0,-0.42367 1.002218,-1.02308 5.027083,-3.00665 2.971691,-1.46453 5.482896,-2.53289 6.141913,-2.61301 0.994007,-0.12084 1.624843,0.11176 5.820833,2.14618 2.588302,1.25494 5.003659,2.43536 5.367461,2.62316 0.364718,0.18827 0.661459,0.57429 0.661459,0.86047 0,0.4116 -1.095225,1.0576 -5.291667,3.12122 -2.910416,1.43121 -5.648854,2.6567 -6.085416,2.72332 z M -98.120818,202.9587 c -0.780918,-0.003 -1.871043,-0.22087 -2.470662,-0.49322 -0.5902,-0.26808 -1.51341,-1.00183 -2.05157,-1.63055 -0.53816,-0.62872 -1.0964,-1.56762 -1.24053,-2.08646 -0.14413,-0.51883 -0.2601,-1.41958 -0.25772,-2.00166 0.002,-0.58209 0.24723,-1.59412 0.54411,-2.24896 0.29688,-0.65485 0.80028,-1.47428 1.11867,-1.82096 0.31839,-0.34668 1.1742,-0.91106 1.90181,-1.25418 0.741339,-0.3496 1.82099,-0.625 2.455892,-0.62644 0.623136,-0.001 1.545825,0.16991 2.050417,0.38074 0.504593,0.21083 1.342044,0.7072 1.861008,1.10303 0.518962,0.39583 1.200743,1.2056 1.515068,1.79948 0.432818,0.81776 0.568983,1.52922 0.561128,2.93187 -0.0066,1.18578 -0.166055,2.14731 -0.443116,2.6727 -0.238009,0.45134 -0.876649,1.21038 -1.419204,1.68675 -0.542552,0.47637 -1.378249,1.02982 -1.8571,1.2299 -0.478853,0.20007 -1.499544,0.36116 -2.268201,0.35796 z m -1.298935,-5.55044 c 0.431274,0 0.976871,-0.074 1.212437,-0.16435 0.235564,-0.0904 0.602491,-0.5012 0.815391,-0.9129 0.212897,-0.4117 0.387088,-0.92392 0.387088,-1.13826 0,-0.21435 -0.30824,-0.75604 -0.684978,-1.20377 -0.467674,-0.5558 -0.922464,-0.81405 -1.43357,-0.81405 -0.411724,0 -0.941325,0.074 -1.176895,0.16436 -0.23556,0.0904 -0.60249,0.5012 -0.81539,0.9129 -0.21289,0.4117 -0.38708,0.998 -0.38708,1.30288 0,0.30488 0.29224,0.84657 0.64943,1.20376 0.39734,0.39735 0.953803,0.64943 1.433567,0.64943 z m 32.560026,5.55044 c -0.832528,-0.003 -1.883357,-0.21253 -2.496153,-0.49685 -0.582084,-0.27008 -1.439252,-0.89254 -1.90482,-1.38326 -0.465567,-0.49071 -1.031113,-1.33486 -1.256771,-1.87589 -0.225655,-0.54103 -0.410284,-1.58665 -0.410284,-2.3236 0,-0.73695 0.160552,-1.72304 0.35678,-2.19131 0.196231,-0.46827 0.697381,-1.25537 1.113668,-1.7491 0.416287,-0.49374 1.357064,-1.17719 2.090613,-1.51877 0.733552,-0.34159 1.751235,-0.62223 2.261518,-0.62365 0.510283,-0.001 1.33336,0.11373 1.829054,0.25589 0.495697,0.14216 1.365641,0.58029 1.933212,0.97362 0.567569,0.39332 1.321591,1.20938 1.675607,1.81346 0.354012,0.60408 0.719621,1.65253 0.812466,2.32989 0.09881,0.72087 0.03142,1.72226 -0.16251,2.4149 -0.182221,0.65083 -0.734271,1.6541 -1.226775,2.22948 -0.492506,0.57538 -1.408988,1.29474 -2.036627,1.59858 -0.736021,0.3563 -1.651622,0.55036 -2.578978,0.54661 z m -1.185262,-5.55044 c 0.58529,0 1.13707,-0.199 1.467233,-0.52916 0.337728,-0.33773 0.529167,-0.88195 0.529167,-1.5043 0,-0.63705 -0.199456,-1.18745 -0.575286,-1.5875 -0.380696,-0.40523 -0.876991,-0.61237 -1.467236,-0.61237 -0.594228,0 -1.108718,0.21677 -1.541378,0.64943 -0.409374,0.40938 -0.649433,0.95173 -0.649433,1.46724 0,0.5155 0.240059,1.05786 0.649433,1.46723 0.445288,0.44529 0.944303,0.64943 1.5875,0.64943 z"
         id="path1472"
         inkscape:connector-curvature="0" />
      <path
         style="fill:#b95226;stroke-width:0.26458332"
         d="m -107.55668,287.07715 c -1.10873,-0.0137 -2.81638,-0.18418 -3.7948,-0.3789 -0.97841,-0.19471 -2.49786,-0.67667 -3.37656,-1.071 -0.88177,-0.39572 -2.00419,-1.167 -2.50499,-1.72132 -0.49906,-0.5524 -1.05228,-1.48801 -1.22939,-2.07914 -0.24497,-0.81765 -0.24999,-1.31516 -0.021,-2.07956 0.16557,-0.55264 0.68477,-1.5841 1.15376,-2.29216 0.46899,-0.70805 1.3644,-1.64803 1.9898,-2.08885 0.6254,-0.44082 1.13709,-0.89763 1.13709,-1.01514 0,-0.11751 -0.11057,-0.21365 -0.24571,-0.21365 -0.13514,0 -1.41506,-0.87079 -2.84427,-1.93508 -1.42921,-1.06429 -3.45239,-2.90321 -4.49595,-4.08649 -1.04357,-1.18327 -2.57102,-3.28024 -3.39435,-4.65993 -0.82334,-1.37968 -1.82673,-3.321 -2.22977,-4.31403 -0.40304,-0.99303 -1.10671,-3.06604 -1.56371,-4.60669 -0.457,-1.54065 -1.0816,-4.21956 -1.388,-5.95313 -0.37999,-2.14994 -0.6027,-4.81313 -0.70056,-8.37746 -0.0789,-2.87404 -0.18367,-5.22552 -0.23278,-5.22552 -0.0491,0 -1.0679,0.79006 -2.26397,1.7557 -1.19606,0.96564 -2.77586,2.03424 -3.51067,2.37469 -0.7348,0.34043 -1.83391,0.69364 -2.44246,0.7849 -0.61592,0.0924 -1.51994,0.0295 -2.03911,-0.14188 -0.51296,-0.16929 -1.28359,-0.7075 -1.71251,-1.19601 -0.42892,-0.48851 -1.04862,-1.58257 -1.37711,-2.43124 -0.47037,-1.21523 -0.62318,-2.25575 -0.71928,-4.89784 -0.0928,-2.55208 -0.0142,-3.83929 0.32844,-5.37959 0.25252,-1.13504 1.01378,-3.15002 1.7324,-4.58548 0.70506,-1.40838 1.90936,-3.39288 2.67623,-4.41 0.76686,-1.01711 2.29496,-2.74226 3.39576,-3.83367 1.10081,-1.09141 2.9748,-2.71769 4.16442,-3.61397 1.18962,-0.89628 2.75929,-1.96482 3.48815,-2.37453 1.31489,-0.73914 1.32854,-0.76046 1.75203,-2.73603 0.23475,-1.0951 0.72505,-3.03027 1.08955,-4.30038 0.3645,-1.2701 1.25469,-3.94901 1.9782,-5.95312 0.72351,-2.00411 2.14125,-5.28468 3.15053,-7.29014 1.00928,-2.00547 2.81754,-5.10109 4.01836,-6.87917 1.60476,-2.37622 3.09634,-4.14464 5.62899,-6.67375 2.18725,-2.1842 4.31537,-4.01895 5.82694,-5.02367 1.30969,-0.87053 3.46237,-2.12869 4.78373,-2.79591 1.32137,-0.66723 3.720832,-1.65108 5.332141,-2.18634 1.61131,-0.53526 4.32226,-1.21128 6.02433,-1.50226 2.253395,-0.38524 4.303122,-0.52906 7.540005,-0.52906 3.254301,0 5.285327,0.14351 7.580479,0.53561 1.724329,0.29459 4.558146,1.01971 6.297371,1.61138 1.739223,0.59168 4.120473,1.55652 5.291667,2.14411 1.171191,0.58758 3.260534,1.81484 4.642979,2.72723 1.38245,0.9124 3.74631,2.82432 5.25302,4.24872 1.5067,1.4244 3.5977,3.66898 4.64665,4.98795 1.04895,1.31897 2.7718,3.81176 3.82856,5.53955 1.05675,1.72777 2.70603,4.94246 3.66505,7.14375 0.95902,2.20128 2.25388,5.69848 2.87747,7.77156 0.62359,2.07309 1.39914,4.8512 1.72345,6.17359 0.58746,2.39538 0.59466,2.40755 1.93158,3.26456 0.73806,0.47311 2.39956,1.71417 3.69223,2.75791 1.29266,1.04373 3.21603,2.83787 4.27415,3.98697 1.05812,1.14909 2.51349,2.96398 3.23416,4.03308 0.72067,1.0691 1.56353,2.44122 1.87302,3.04916 0.30949,0.60793 0.86874,2.15574 1.24276,3.43958 0.37403,1.28383 0.74789,3.28674 0.8308,4.45091 0.0829,1.16417 0.0142,2.9907 -0.15263,4.05895 -0.16685,1.06826 -0.53973,2.61478 -0.82861,3.43671 -0.28889,0.82193 -0.87786,1.84703 -1.30883,2.278 -0.67038,0.67038 -1.02868,0.79919 -2.48013,0.89161 -1.4363,0.0915 -1.95299,-0.007 -3.36818,-0.64215 -0.91939,-0.4126 -2.63006,-1.50632 -3.8015,-2.43051 l -2.12989,-1.68033 -0.0639,1.1449 c -0.0351,0.6297 -0.18884,2.9009 -0.34157,5.04712 -0.15273,2.14621 -0.51382,5.3609 -0.80242,7.14375 -0.28861,1.78284 -0.76751,4.1345 -1.06423,5.22591 -0.29672,1.0914 -1.01118,3.15505 -1.5877,4.58588 -0.57651,1.43083 -1.33967,3.17669 -1.69591,3.8797 -0.35625,0.70301 -1.205,2.09218 -1.88612,3.08704 -0.68112,0.99486 -2.14286,2.74259 -3.24829,3.88384 -1.10544,1.14125 -2.88121,2.72568 -3.94615,3.52095 -1.06493,0.79527 -2.1018,1.50947 -2.30415,1.58712 -0.25035,0.0961 0.13967,0.61109 1.22078,1.61201 0.87377,0.80896 1.89449,1.99267 2.26827,2.63047 0.58615,1.00018 0.66461,1.39494 0.57064,2.87079 -0.0995,1.56202 -0.19762,1.80195 -1.12633,2.75303 -0.55955,0.57303 -1.59084,1.28858 -2.29175,1.59011 -0.70091,0.30152 -2.02338,0.74578 -2.93884,0.98725 -1.11426,0.2939 -2.71394,0.43756 -4.83945,0.4346 -1.74625,-0.002 -3.948901,-0.15201 -4.894787,-0.33238 -0.945885,-0.18038 -2.850885,-0.68723 -4.233333,-1.12632 -1.71731,-0.54545 -3.201027,-1.25328 -4.683789,-2.23446 -1.193636,-0.78985 -2.411219,-1.74244 -2.70574,-2.11686 l -0.535493,-0.68077 -7.682192,0.009 -7.682193,0.009 -1.518317,1.36028 c -0.835072,0.74815 -2.232691,1.75854 -3.105816,2.2453 -0.873125,0.48677 -2.599531,1.18874 -3.836458,1.55994 -1.236927,0.37121 -3.306354,0.8574 -4.598724,1.08045 -1.29236,0.22304 -3.25689,0.39434 -4.36562,0.38066 z m 27.220592,-23.70685 c 2.110052,-0.0648 5.228894,-0.28846 6.93076,-0.49703 1.701869,-0.20857 4.477567,-0.73588 6.168223,-1.1718 1.690656,-0.43592 3.944138,-1.19464 5.007739,-1.68606 1.063601,-0.49141 2.693208,-1.40714 3.621358,-2.03495 0.92815,-0.62781 2.37533,-1.79485 3.21596,-2.59343 0.84062,-0.79857 2.08153,-2.29154 2.75757,-3.3177 0.67604,-1.02617 1.68251,-2.83315 2.23658,-4.01553 0.55408,-1.18237 1.35607,-3.50655 1.7822,-5.16484 0.42613,-1.65829 0.96431,-4.48451 1.19595,-6.28049 0.28627,-2.21957 0.42116,-5.37155 0.42116,-9.84132 0,-3.61674 -0.1261,-8.10043 -0.28023,-9.96375 -0.15413,-1.86331 -0.51038,-4.91715 -0.79167,-6.78629 -0.28129,-1.86915 -0.82162,-4.78144 -1.20073,-6.47176 -0.37911,-1.69032 -0.98583,-3.91148 -1.34827,-4.93592 -0.36244,-1.02444 -1.30072,-3.17231 -2.08506,-4.77304 -0.93891,-1.91616 -1.99405,-3.57262 -3.08864,-4.84885 -0.9144,-1.06613 -2.36755,-2.40201 -3.22922,-2.9686 -0.861665,-0.5666 -2.289039,-1.28086 -3.171943,-1.58724 -0.882904,-0.30638 -2.55778,-0.61905 -3.721946,-0.69481 -1.414992,-0.0921 -2.774487,0.002 -4.101042,0.28256 -1.091406,0.23118 -2.710714,0.77709 -3.598463,1.21313 -0.902583,0.44333 -2.559079,1.66298 -3.757858,2.76685 -1.179076,1.08572 -2.53633,2.17952 -3.016123,2.43067 -0.47979,0.25114 -1.408128,0.45663 -2.062972,0.45663 -0.654844,0 -1.607343,-0.21399 -2.116666,-0.47552 -0.509323,-0.26154 -1.833851,-1.35282 -2.943395,-2.42507 -1.442698,-1.3942 -2.582338,-2.21785 -4.00078,-2.89146 -1.462471,-0.69453 -2.618189,-1.02205 -4.400102,-1.24697 -1.867472,-0.23572 -2.852299,-0.23122 -4.333592,0.0198 -1.05431,0.17867 -2.80459,0.74433 -3.88951,1.25703 -1.52244,0.71945 -2.39794,1.37736 -3.83646,2.88299 -1.07744,1.1277 -2.40778,2.91013 -3.15296,4.22444 -0.709,1.25049 -1.57599,2.98391 -1.92664,3.85204 -0.35066,0.86812 -0.98104,2.69429 -1.40087,4.05815 -0.41982,1.36386 -1.06339,3.83675 -1.43015,5.49531 -0.36676,1.65857 -0.84993,4.50385 -1.07371,6.32286 -0.22378,1.81901 -0.52844,4.97417 -0.67703,7.01146 -0.14858,2.03729 -0.27063,6.41753 -0.27122,9.73386 -5.3e-4,3.31634 0.12225,7.18587 0.27298,8.59896 0.15073,1.4131 0.57884,3.80996 0.95135,5.32637 0.37251,1.51641 1.1222,3.78288 1.66598,5.03662 0.54377,1.25374 1.44291,2.9896 1.99809,3.85748 0.55517,0.86788 1.77778,2.37386 2.71691,3.34663 0.93913,0.97278 2.52985,2.32041 3.53492,2.99474 1.00508,0.67433 2.71195,1.63474 3.79306,2.13424 1.08111,0.4995 3.312595,1.254 4.958867,1.67666 1.646272,0.42265 3.934867,0.90978 5.085768,1.08249 1.1509,0.17272 3.591681,0.40723 5.423958,0.52115 1.832276,0.11391 5.057817,0.1541 7.167869,0.0893 z m -2.125044,-49.29334 c -0.634954,4e-5 -2.463106,-0.74189 -5.704405,-2.31505 -2.623492,-1.27331 -5.051063,-2.50195 -5.394598,-2.73032 -0.401288,-0.26676 -0.549753,-0.53633 -0.41525,-0.75396 0.115149,-0.18632 2.546488,-1.48471 5.402974,-2.88532 3.637187,-1.78341 5.471131,-2.54346 6.119656,-2.53622 0.616934,0.007 2.677388,0.86249 6.172824,2.56326 4.201218,2.04417 5.228852,2.64711 5.156795,3.0256 -0.06025,0.3165 -1.79392,1.32507 -5.246782,3.05232 -3.603337,1.80254 -5.438283,2.57965 -6.091214,2.57969 z M -98.120818,202.9587 c -0.780918,-0.003 -1.871043,-0.22087 -2.470662,-0.49322 -0.5902,-0.26808 -1.51341,-1.00183 -2.05157,-1.63055 -0.53816,-0.62872 -1.0964,-1.56762 -1.24053,-2.08646 -0.14413,-0.51883 -0.2601,-1.41958 -0.25772,-2.00166 0.002,-0.58209 0.24723,-1.59412 0.54411,-2.24896 0.29688,-0.65485 0.80028,-1.47428 1.11867,-1.82096 0.31839,-0.34668 1.1742,-0.91106 1.90181,-1.25418 0.741339,-0.3496 1.82099,-0.625 2.455892,-0.62644 0.623136,-0.001 1.545825,0.16991 2.050417,0.38074 0.504593,0.21083 1.342044,0.7072 1.861008,1.10303 0.518962,0.39583 1.200743,1.2056 1.515068,1.79948 0.432818,0.81776 0.568983,1.52922 0.561128,2.93187 -0.0066,1.18578 -0.166055,2.14731 -0.443116,2.6727 -0.238009,0.45134 -0.876649,1.21038 -1.419204,1.68675 -0.542552,0.47637 -1.378249,1.02982 -1.8571,1.2299 -0.478853,0.20007 -1.499544,0.36116 -2.268201,0.35796 z m -1.298935,-5.55044 c 0.431274,0 0.976871,-0.074 1.212437,-0.16435 0.235564,-0.0904 0.602491,-0.5012 0.815391,-0.9129 0.212897,-0.4117 0.387088,-0.92392 0.387088,-1.13826 0,-0.21435 -0.30824,-0.75604 -0.684978,-1.20377 -0.467674,-0.5558 -0.922464,-0.81405 -1.43357,-0.81405 -0.411724,0 -0.941325,0.074 -1.176895,0.16436 -0.23556,0.0904 -0.60249,0.5012 -0.81539,0.9129 -0.21289,0.4117 -0.38708,0.998 -0.38708,1.30288 0,0.30488 0.29224,0.84657 0.64943,1.20376 0.39734,0.39735 0.953803,0.64943 1.433567,0.64943 z m 32.560026,5.55044 c -0.832528,-0.003 -1.883357,-0.21253 -2.496153,-0.49685 -0.582084,-0.27008 -1.439252,-0.89254 -1.90482,-1.38326 -0.465567,-0.49071 -1.031113,-1.33486 -1.256771,-1.87589 -0.225655,-0.54103 -0.410284,-1.58665 -0.410284,-2.3236 0,-0.73695 0.160552,-1.72304 0.35678,-2.19131 0.196231,-0.46827 0.697381,-1.25537 1.113668,-1.7491 0.416287,-0.49374 1.357064,-1.17719 2.090613,-1.51877 0.733552,-0.34159 1.751235,-0.62223 2.261518,-0.62365 0.510283,-0.001 1.33336,0.11373 1.829054,0.25589 0.495697,0.14216 1.365641,0.58029 1.933212,0.97362 0.567569,0.39332 1.321591,1.20938 1.675607,1.81346 0.354012,0.60408 0.719621,1.65253 0.812466,2.32989 0.09881,0.72087 0.03142,1.72226 -0.16251,2.4149 -0.182221,0.65083 -0.734271,1.6541 -1.226775,2.22948 -0.492506,0.57538 -1.408988,1.29474 -2.036627,1.59858 -0.736021,0.3563 -1.651622,0.55036 -2.578978,0.54661 z m -1.185262,-5.55044 c 0.58529,0 1.13707,-0.199 1.467233,-0.52916 0.337728,-0.33773 0.529167,-0.88195 0.529167,-1.5043 0,-0.63705 -0.199456,-1.18745 -0.575286,-1.5875 -0.380696,-0.40523 -0.876991,-0.61237 -1.467236,-0.61237 -0.594228,0 -1.108718,0.21677 -1.541378,0.64943 -0.409374,0.40938 -0.649433,0.95173 -0.649433,1.46724 0,0.5155 0.240059,1.05786 0.649433,1.46723 0.445288,0.44529 0.944303,0.64943 1.5875,0.64943 z"
         id="path1470"
         inkscape:connector-curvature="0" />
      <path
         style="fill:#5e5c5c;stroke-width:0.26458332"
         d="m -83.246505,280.44521 c -3.128698,-0.0189 -6.938697,-0.12471 -8.466666,-0.23514 -1.527969,-0.11042 -4.504531,-0.45293 -6.614583,-0.76113 -2.110056,-0.3082 -4.674816,-0.79519 -5.699476,-1.08219 -1.02466,-0.287 -2.87013,-0.88679 -4.10104,-1.33285 -1.23091,-0.44607 -3.20907,-1.27823 -4.3959,-1.84924 -1.18684,-0.57102 -3.32996,-1.91103 -4.7625,-2.9778 -1.43254,-1.06678 -3.45845,-2.90772 -4.50201,-4.091 -1.04357,-1.18327 -2.57102,-3.28024 -3.39436,-4.65993 -0.82333,-1.37968 -1.82672,-3.321 -2.22976,-4.31403 -0.40304,-0.99303 -1.10671,-3.06604 -1.56371,-4.60669 -0.457,-1.54065 -1.0816,-4.21956 -1.388,-5.95313 -0.37999,-2.14994 -0.6027,-4.81313 -0.70056,-8.37746 -0.0789,-2.87404 -0.18367,-5.22552 -0.23278,-5.22552 -0.0491,0 -1.0679,0.79006 -2.26397,1.7557 -1.19606,0.96564 -2.77586,2.03424 -3.51067,2.37469 -0.7348,0.34043 -1.83391,0.69364 -2.44246,0.7849 -0.61592,0.0924 -1.51994,0.0295 -2.03911,-0.14188 -0.51296,-0.16929 -1.28359,-0.7075 -1.71251,-1.19601 -0.42892,-0.48851 -1.04862,-1.58257 -1.37711,-2.43124 -0.47037,-1.21523 -0.62318,-2.25575 -0.71929,-4.89784 -0.0928,-2.55208 -0.0142,-3.83929 0.32845,-5.37959 0.25252,-1.13504 1.01378,-3.15002 1.7324,-4.58548 0.70506,-1.40838 1.90936,-3.39288 2.67623,-4.41 0.76686,-1.01711 2.29495,-2.74226 3.39576,-3.83367 1.10081,-1.09141 2.9748,-2.71769 4.16442,-3.61397 1.18961,-0.89628 2.75929,-1.96482 3.48815,-2.37453 1.31489,-0.73914 1.32854,-0.76046 1.75203,-2.73603 0.23475,-1.0951 0.72505,-3.03027 1.08955,-4.30038 0.3645,-1.2701 1.25469,-3.94901 1.9782,-5.95312 0.72351,-2.00411 2.14125,-5.28468 3.15053,-7.29014 1.00928,-2.00547 2.81754,-5.10109 4.01835,-6.87917 1.60477,-2.37622 3.09635,-4.14464 5.629,-6.67375 2.18725,-2.1842 4.31537,-4.01895 5.82694,-5.02367 1.30969,-0.87053 3.46236,-2.12869 4.78373,-2.79591 1.32137,-0.66723 3.720831,-1.65108 5.33214,-2.18634 1.61131,-0.53526 4.32226,-1.21128 6.02433,-1.50226 2.253395,-0.38524 4.303122,-0.52906 7.540005,-0.52906 3.254301,0 5.285327,0.14351 7.580479,0.53561 1.724329,0.29459 4.558146,1.01971 6.297371,1.61138 1.739223,0.59168 4.120473,1.55652 5.291667,2.14411 1.171191,0.58758 3.260534,1.81484 4.64298,2.72723 1.38245,0.9124 3.74631,2.82432 5.25302,4.24872 1.5067,1.4244 3.5977,3.66898 4.64665,4.98795 1.04895,1.31897 2.7718,3.81176 3.82856,5.53955 1.05675,1.72777 2.70603,4.94246 3.66505,7.14375 0.95902,2.20128 2.25388,5.69848 2.87747,7.77156 0.62359,2.07309 1.39914,4.8512 1.72345,6.17359 0.58746,2.39538 0.59466,2.40755 1.93158,3.26456 0.73806,0.47311 2.39956,1.71417 3.69223,2.75791 1.29266,1.04373 3.21603,2.83787 4.27415,3.98697 1.05812,1.14909 2.51349,2.96398 3.23416,4.03308 0.72067,1.0691 1.56353,2.44122 1.87302,3.04916 0.30949,0.60793 0.86874,2.15574 1.24276,3.43958 0.37403,1.28383 0.74789,3.28674 0.8308,4.45091 0.0829,1.16417 0.0142,2.9907 -0.15263,4.05895 -0.16685,1.06826 -0.53973,2.61478 -0.82861,3.43671 -0.28889,0.82193 -0.87786,1.84703 -1.30883,2.278 -0.67038,0.67038 -1.02868,0.79919 -2.48013,0.89161 -1.4363,0.0915 -1.95299,-0.007 -3.36818,-0.64215 -0.91939,-0.4126 -2.63006,-1.50632 -3.8015,-2.43051 l -2.12989,-1.68033 -0.0639,1.1449 c -0.0351,0.6297 -0.18884,2.9009 -0.34157,5.04712 -0.15273,2.14621 -0.51382,5.3609 -0.80242,7.14375 -0.28861,1.78284 -0.76751,4.1345 -1.06423,5.22591 -0.29672,1.0914 -1.01118,3.15505 -1.5877,4.58588 -0.57651,1.43083 -1.33967,3.17669 -1.69591,3.8797 -0.35625,0.70301 -1.205,2.09218 -1.88612,3.08704 -0.68112,0.99486 -2.14286,2.74259 -3.24829,3.88384 -1.10544,1.14125 -2.84333,2.69695 -3.86198,3.45712 -1.01864,0.76017 -2.62599,1.80821 -3.57187,2.32897 -0.94589,0.52077 -2.79136,1.36903 -4.10104,1.88504 -1.30969,0.516 -3.45282,1.24839 -4.762503,1.62751 -1.309687,0.37913 -3.945654,0.92251 -5.857705,1.20751 -1.912049,0.28501 -5.186267,0.63493 -7.276042,0.77762 -2.089771,0.14268 -6.359429,0.24395 -9.488127,0.22505 z m 2.910417,-17.07491 c 2.110052,-0.0648 5.228894,-0.28846 6.93076,-0.49703 1.701869,-0.20857 4.477567,-0.73588 6.168223,-1.1718 1.690656,-0.43592 3.944138,-1.19464 5.007739,-1.68606 1.063601,-0.49141 2.693208,-1.40714 3.621358,-2.03495 0.92815,-0.62781 2.37533,-1.79485 3.21596,-2.59343 0.84062,-0.79857 2.08153,-2.29154 2.75757,-3.3177 0.67604,-1.02617 1.68251,-2.83315 2.23658,-4.01553 0.55408,-1.18237 1.35607,-3.50655 1.7822,-5.16484 0.42613,-1.65829 0.96431,-4.48451 1.19595,-6.28049 0.28627,-2.21957 0.42116,-5.37155 0.42116,-9.84132 0,-3.61674 -0.1261,-8.10043 -0.28023,-9.96375 -0.15413,-1.86331 -0.51038,-4.91715 -0.79167,-6.78629 -0.28129,-1.86915 -0.82162,-4.78144 -1.20073,-6.47176 -0.37911,-1.69032 -0.98583,-3.91148 -1.34827,-4.93592 -0.36244,-1.02444 -1.30072,-3.17231 -2.08506,-4.77304 -0.93891,-1.91616 -1.99405,-3.57262 -3.08864,-4.84885 -0.9144,-1.06613 -2.36755,-2.40201 -3.22922,-2.9686 -0.861665,-0.5666 -2.289039,-1.28086 -3.171943,-1.58724 -0.882904,-0.30638 -2.55778,-0.61905 -3.721946,-0.69481 -1.414992,-0.0921 -2.774487,0.002 -4.101042,0.28256 -1.091406,0.23118 -2.710714,0.77709 -3.598463,1.21313 -0.902583,0.44333 -2.559079,1.66298 -3.757858,2.76685 -1.179076,1.08572 -2.53633,2.17952 -3.016123,2.43067 -0.47979,0.25114 -1.408128,0.45663 -2.062972,0.45663 -0.654844,0 -1.607343,-0.21399 -2.116666,-0.47552 -0.509323,-0.26154 -1.833851,-1.35282 -2.943395,-2.42507 -1.442698,-1.3942 -2.582338,-2.21785 -4.00078,-2.89146 -1.462471,-0.69453 -2.618189,-1.02205 -4.400102,-1.24697 -1.867472,-0.23572 -2.852299,-0.23122 -4.333592,0.0198 -1.05431,0.17867 -2.80459,0.74433 -3.88951,1.25703 -1.52244,0.71945 -2.39794,1.37736 -3.83646,2.88299 -1.07744,1.1277 -2.40778,2.91013 -3.15296,4.22444 -0.709,1.25049 -1.57599,2.98391 -1.92664,3.85204 -0.35066,0.86812 -0.98104,2.69429 -1.40087,4.05815 -0.41982,1.36386 -1.06339,3.83675 -1.43015,5.49531 -0.36676,1.65857 -0.84993,4.50385 -1.07371,6.32286 -0.22378,1.81901 -0.52844,4.97417 -0.67703,7.01146 -0.14858,2.03729 -0.27063,6.41753 -0.27122,9.73386 -5.3e-4,3.31634 0.12225,7.18587 0.27298,8.59896 0.15073,1.4131 0.57884,3.80996 0.95135,5.32637 0.37251,1.51641 1.1222,3.78288 1.66598,5.03662 0.54377,1.25374 1.44291,2.9896 1.99809,3.85748 0.55517,0.86788 1.77778,2.37386 2.71691,3.34663 0.93913,0.97278 2.52985,2.32041 3.53492,2.99474 1.00508,0.67433 2.71195,1.63474 3.79306,2.13424 1.08111,0.4995 3.312595,1.254 4.958867,1.67666 1.646272,0.42265 3.934867,0.90978 5.085768,1.08249 1.1509,0.17272 3.591681,0.40723 5.423958,0.52115 1.832276,0.11391 5.057817,0.1541 7.167869,0.0893 z m -1.793073,-49.40908 c -0.54178,0.0531 -1.282708,-0.006 -1.64651,-0.13124 -0.363802,-0.12528 -2.804584,-1.308 -5.423958,-2.62829 l -4.7625,-2.40051 11.310937,-0.008 c 6.221015,-0.004 11.310937,0.0383 11.310937,0.0947 0,0.0565 -2.205869,1.19931 -4.901928,2.53968 -2.758524,1.37143 -5.33265,2.47925 -5.886978,2.53356 z M -98.120818,202.9587 c -0.780918,-0.003 -1.871043,-0.22087 -2.470662,-0.49322 -0.5902,-0.26808 -1.51341,-1.00183 -2.05157,-1.63055 -0.53816,-0.62872 -1.0964,-1.56762 -1.24053,-2.08646 -0.14413,-0.51883 -0.2601,-1.41958 -0.25772,-2.00166 0.002,-0.58209 0.24723,-1.59412 0.54411,-2.24896 0.29688,-0.65485 0.80028,-1.47428 1.11867,-1.82096 0.31839,-0.34668 1.1742,-0.91106 1.90181,-1.25418 0.741339,-0.3496 1.82099,-0.625 2.455892,-0.62644 0.623136,-0.001 1.545825,0.16991 2.050417,0.38074 0.504593,0.21083 1.342044,0.7072 1.861008,1.10303 0.518962,0.39583 1.200743,1.2056 1.515068,1.79948 0.432818,0.81776 0.568983,1.52922 0.561128,2.93187 -0.0066,1.18578 -0.166055,2.14731 -0.443116,2.6727 -0.238009,0.45134 -0.876649,1.21038 -1.419204,1.68675 -0.542552,0.47637 -1.378249,1.02982 -1.8571,1.2299 -0.478853,0.20007 -1.499544,0.36116 -2.268201,0.35796 z m -1.298935,-5.55044 c 0.431274,0 0.976871,-0.074 1.212437,-0.16435 0.235564,-0.0904 0.602491,-0.5012 0.815391,-0.9129 0.212897,-0.4117 0.387088,-0.92392 0.387088,-1.13826 0,-0.21435 -0.30824,-0.75604 -0.684978,-1.20377 -0.467674,-0.5558 -0.922464,-0.81405 -1.43357,-0.81405 -0.411724,0 -0.941325,0.074 -1.176895,0.16436 -0.23556,0.0904 -0.60249,0.5012 -0.81539,0.9129 -0.21289,0.4117 -0.38708,0.998 -0.38708,1.30288 0,0.30488 0.29224,0.84657 0.64943,1.20376 0.39734,0.39735 0.953803,0.64943 1.433567,0.64943 z m 32.560026,5.55044 c -0.832528,-0.003 -1.883357,-0.21253 -2.496153,-0.49685 -0.582084,-0.27008 -1.439252,-0.89254 -1.90482,-1.38326 -0.465567,-0.49071 -1.031113,-1.33486 -1.256771,-1.87589 -0.225655,-0.54103 -0.410284,-1.58665 -0.410284,-2.3236 0,-0.73695 0.160552,-1.72304 0.35678,-2.19131 0.196231,-0.46827 0.697381,-1.25537 1.113668,-1.7491 0.416287,-0.49374 1.357064,-1.17719 2.090613,-1.51877 0.733552,-0.34159 1.751235,-0.62223 2.261518,-0.62365 0.510283,-0.001 1.33336,0.11373 1.829054,0.25589 0.495697,0.14216 1.365641,0.58029 1.933212,0.97362 0.567569,0.39332 1.321591,1.20938 1.675607,1.81346 0.354012,0.60408 0.719621,1.65253 0.812466,2.32989 0.09881,0.72087 0.03142,1.72226 -0.16251,2.4149 -0.182221,0.65083 -0.734271,1.6541 -1.226775,2.22948 -0.492506,0.57538 -1.408988,1.29474 -2.036627,1.59858 -0.736021,0.3563 -1.651622,0.55036 -2.578978,0.54661 z m -1.185262,-5.55044 c 0.58529,0 1.13707,-0.199 1.467233,-0.52916 0.337728,-0.33773 0.529167,-0.88195 0.529167,-1.5043 0,-0.63705 -0.199456,-1.18745 -0.575286,-1.5875 -0.380696,-0.40523 -0.876991,-0.61237 -1.467236,-0.61237 -0.594228,0 -1.108718,0.21677 -1.541378,0.64943 -0.409374,0.40938 -0.649433,0.95173 -0.649433,1.46724 0,0.5155 0.240059,1.05786 0.649433,1.46723 0.445288,0.44529 0.944303,0.64943 1.5875,0.64943 z"
         id="path1468"
         inkscape:connector-curvature="0" />
      <path
         style="fill:#924529;stroke-width:0.26458332"
         d="m -83.246505,280.44035 c -2.255573,-0.0189 -5.767916,-0.12583 -7.805208,-0.23752 -2.037291,-0.11169 -5.371041,-0.45333 -7.408333,-0.75919 -2.037294,-0.30586 -4.542524,-0.7907 -5.567184,-1.07741 -1.02466,-0.28672 -2.8106,-0.86735 -3.96875,-1.29029 -1.15815,-0.42294 -2.81303,-1.08201 -3.6775,-1.46461 -0.86447,-0.38259 -2.22102,-1.12657 -3.01455,-1.65329 -0.79353,-0.52671 -2.16982,-1.51198 -3.05844,-2.18948 -0.88861,-0.6775 -2.45155,-2.11831 -3.47319,-3.20179 -1.02164,-1.08348 -2.41756,-2.81015 -3.10204,-3.83703 -0.68448,-1.02689 -1.72222,-2.88648 -2.30609,-4.13243 -0.58387,-1.24595 -1.42782,-3.38233 -1.87545,-4.74752 -0.44762,-1.36518 -0.99361,-3.2522 -1.21331,-4.19336 -0.2197,-0.94116 -0.56938,-3.14382 -0.77705,-4.89479 -0.20768,-1.75097 -0.4559,-5.11835 -0.55159,-7.48306 -0.0957,-2.36472 -0.22805,-4.29948 -0.29412,-4.29948 -0.0661,0 -1.1487,0.81641 -2.40585,1.81425 -1.36157,1.08073 -2.90484,2.0435 -3.817,2.38125 -0.8422,0.31185 -2.0783,0.567 -2.74689,0.567 -0.76379,0 -1.54188,-0.20165 -2.09341,-0.54251 -0.48278,-0.29837 -1.11193,-0.92345 -1.39812,-1.38906 -0.28618,-0.46561 -0.73011,-1.62047 -0.9865,-2.56635 -0.33192,-1.22453 -0.46361,-2.67222 -0.45729,-5.02708 0.007,-2.51711 0.14228,-3.79888 0.56725,-5.36482 0.30711,-1.13163 1.00299,-2.85804 1.54639,-3.83645 0.54341,-0.97842 1.36687,-2.37425 1.82993,-3.10186 0.46306,-0.7276 1.65963,-2.23137 2.65905,-3.3417 0.99942,-1.11034 2.8053,-2.83674 4.01307,-3.83646 1.20777,-0.99972 3.16259,-2.41975 4.34406,-3.15563 l 2.14811,-1.33795 0.83542,-3.55684 c 0.45948,-1.95626 1.05054,-4.21168 1.31347,-5.01204 0.26292,-0.80037 1.12361,-3.12209 1.91263,-5.15938 0.78902,-2.03729 2.15973,-5.07338 3.04601,-6.74687 0.88628,-1.67349 2.56879,-4.44971 3.73891,-6.16937 1.45522,-2.13865 3.13611,-4.13895 5.31938,-6.33015 2.19615,-2.20412 4.05856,-3.77895 5.97002,-5.04813 1.52797,-1.01456 3.89751,-2.37229 5.26564,-3.01719 1.368141,-0.64489 3.69609,-1.57695 5.173225,-2.07123 1.477134,-0.49428 3.989157,-1.10397 5.582271,-1.35487 1.922476,-0.30276 4.453673,-0.45717 7.526779,-0.45914 3.230346,-0.002 5.510122,0.14171 7.540625,0.47558 1.600729,0.26319 3.857609,0.77741 5.015288,1.1427 1.157681,0.36529 3.419869,1.22236 5.027083,1.90459 1.607217,0.68224 4.053305,1.99817 5.435751,2.92429 1.38245,0.92612 3.40651,2.42862 4.49792,3.33888 1.0914,0.91026 2.53464,2.23056 3.20718,2.93401 0.67255,0.70344 2.16083,2.49069 3.3073,3.97165 1.14646,1.48097 2.61999,3.56456 3.27451,4.63021 0.65452,1.06565 1.80013,3.1877 2.5458,4.71567 0.74567,1.52797 1.72598,3.67109 2.17848,4.7625 0.45249,1.0914 1.34759,3.71078 1.9891,5.82083 0.64151,2.11005 1.43042,4.91335 1.75313,6.22954 l 0.58675,2.39308 1.62523,1.04265 c 0.89387,0.57346 2.63726,1.89702 3.87418,2.94125 1.23693,1.04422 2.92004,2.59377 3.74026,3.44343 0.82021,0.84966 2.26188,2.68446 3.2037,4.07732 0.94183,1.39286 2.07403,3.47645 2.516,4.63021 0.44198,1.15375 0.95605,2.8121 1.14238,3.68523 0.18633,0.87312 0.33878,2.65906 0.33878,3.96875 0,1.30969 -0.15461,3.09543 -0.34358,3.96833 -0.18898,0.87289 -0.61682,2.2049 -0.95078,2.96002 -0.4812,1.0881 -0.84199,1.49275 -1.73896,1.95034 -0.88368,0.45082 -1.425,0.54714 -2.46927,0.43935 -0.73562,-0.0759 -1.99233,-0.42937 -2.79269,-0.78542 -0.80037,-0.35604 -2.34818,-1.3796 -3.43959,-2.27456 -1.0914,-0.89497 -2.07367,-1.62735 -2.18281,-1.62753 -0.10914,-1.8e-4 -0.19844,0.21007 -0.19844,0.46721 0,0.25715 -0.12569,2.37051 -0.27932,4.69636 -0.15362,2.32585 -0.62567,6.26125 -1.04899,8.74533 -0.43153,2.53229 -1.13486,5.5545 -1.60092,6.87917 -0.45719,1.29946 -1.39928,3.56961 -2.09353,5.04478 -0.69424,1.47517 -1.94606,3.6183 -2.78181,4.7625 -0.83575,1.1442 -2.18982,2.77237 -3.00905,3.61816 -0.81922,0.84579 -2.50153,2.28999 -3.73846,3.20933 -1.23693,0.91935 -2.9038,2.03097 -3.70416,2.47028 -0.80037,0.4393 -2.52678,1.22048 -3.83646,1.73595 -1.30969,0.51547 -3.45282,1.24734 -4.762503,1.62636 -1.309687,0.37904 -3.929062,0.92385 -5.820833,1.21069 -1.891771,0.28685 -5.523177,0.63578 -8.069791,0.7754 -2.546615,0.13962 -6.475677,0.23836 -8.73125,0.21941 z m 2.38125,-17.04171 c 2.983177,-0.0564 6.614583,-0.27615 8.069791,-0.4883 1.455209,-0.21214 3.690295,-0.62988 4.966856,-0.9283 1.276565,-0.29843 3.242133,-0.89781 4.367932,-1.33196 1.1258,-0.43416 3.000899,-1.37647 4.166888,-2.09402 1.35741,-0.83536 2.92692,-2.14716 4.36332,-3.64688 1.37519,-1.43582 2.69788,-3.1481 3.4179,-4.42464 0.64601,-1.14532 1.55976,-3.10829 2.03056,-4.36215 0.4708,-1.25387 1.1009,-3.50198 1.40022,-4.99582 0.29931,-1.49384 0.68959,-3.81556 0.86727,-5.15938 0.1865,-1.41049 0.31865,-5.3512 0.31262,-9.32247 -0.006,-3.78354 -0.15364,-8.42698 -0.32865,-10.31875 -0.17501,-1.89177 -0.61169,-5.34458 -0.97039,-7.67291 -0.35869,-2.32834 -0.95391,-5.36443 -1.32271,-6.74688 -0.36879,-1.38245 -1.19198,-3.79998 -1.82931,-5.37229 -0.63733,-1.57232 -1.65551,-3.69487 -2.26262,-4.71679 -0.60711,-1.02192 -1.86798,-2.66806 -2.80192,-3.65809 -1.12077,-1.18808 -2.30449,-2.11696 -3.481772,-2.7322 -0.981033,-0.51268 -2.430383,-1.12221 -3.220778,-1.35451 -0.825995,-0.24277 -2.405603,-0.42237 -3.714724,-0.42237 -1.252701,0 -2.966786,0.1795 -3.809079,0.39889 -0.84229,0.21939 -2.16825,0.70015 -2.946574,1.06836 -0.778325,0.3682 -2.406145,1.56849 -3.617378,2.66731 -1.211234,1.09882 -2.643984,2.2254 -3.18389,2.50352 -0.539906,0.27812 -1.474412,0.50567 -2.07668,0.50567 -0.602269,0 -1.49389,-0.18927 -1.981383,-0.4206 -0.487492,-0.23133 -1.897686,-1.36681 -3.133762,-2.5233 -1.527542,-1.42918 -2.791208,-2.34926 -3.945119,-2.87247 -0.933741,-0.42338 -2.506906,-0.91069 -3.495927,-1.08292 -0.989017,-0.17223 -2.821445,-0.25387 -4.072059,-0.18141 -1.796987,0.10412 -2.715997,0.3194 -4.382247,1.02654 -1.62474,0.68953 -2.55171,1.3135 -4.04089,2.72006 -1.21698,1.14946 -2.42494,2.64054 -3.26249,4.02716 -0.7315,1.21103 -1.67577,2.96444 -2.09837,3.89647 -0.4226,0.93203 -1.24432,3.34653 -1.82605,5.36555 -0.58173,2.01903 -1.30119,4.87809 -1.59881,6.35348 -0.29761,1.47539 -0.72029,4.21382 -0.93928,6.08542 -0.21899,1.87159 -0.52312,6.48081 -0.67584,10.2427 -0.1962,4.83311 -0.19435,8.05454 0.006,10.98021 0.1562,2.27722 0.40682,4.85478 0.55694,5.7279 0.15012,0.87313 0.51481,2.48047 0.81041,3.57188 0.29561,1.0914 1.22995,3.41312 2.07632,5.15937 1.1072,2.2844 2.03451,3.75069 3.30588,5.22733 0.97186,1.12879 2.50159,2.57026 3.39939,3.20329 0.8978,0.63302 2.40628,1.573 3.35216,2.08883 0.94589,0.51584 2.55323,1.23393 3.57188,1.59577 1.018644,0.36183 3.044013,0.90484 4.500819,1.2067 1.456807,0.30185 3.778525,0.67301 5.159375,0.82479 1.38085,0.15179 3.046418,0.32296 3.701261,0.38038 0.654844,0.0574 3.631407,0.0582 6.614583,0.002 z m -1.263906,-49.43742 c -0.54178,0.0531 -1.282708,-0.006 -1.64651,-0.13124 -0.363802,-0.12528 -2.804584,-1.308 -5.423958,-2.62829 l -4.7625,-2.40051 11.310937,-0.008 c 6.221015,-0.004 11.310937,0.0383 11.310937,0.0947 0,0.0565 -2.205869,1.19931 -4.901928,2.53968 -2.758524,1.37143 -5.33265,2.47925 -5.886978,2.53356 z m -15.898077,-11.01759 c -0.674608,-0.0115 -1.583745,-0.14575 -2.020312,-0.29835 -0.43656,-0.1526 -1.17804,-0.56396 -1.64774,-0.91412 -0.4697,-0.35016 -1.15383,-1.14828 -1.52029,-1.7736 -0.36646,-0.62531 -0.74055,-1.67874 -0.83132,-2.34095 -0.11047,-0.80596 -0.0214,-1.63646 0.26942,-2.51201 0.2624,-0.79003 0.87006,-1.74796 1.53448,-2.41903 0.77101,-0.77871 1.52774,-1.23537 2.529957,-1.52672 0.896183,-0.26053 1.787331,-0.34864 2.38748,-0.23605 0.526664,0.0988 1.379826,0.39739 1.89592,0.66354 0.516091,0.26614 1.311177,0.88128 1.766858,1.36697 0.455681,0.48569 0.974818,1.34134 1.153636,1.90144 0.178819,0.5601 0.276752,1.77804 0.217628,2.70653 -0.08519,1.3379 -0.2706,1.92025 -0.893569,2.80663 -0.486154,0.69171 -1.325864,1.40044 -2.200834,1.85753 -0.990734,0.51756 -1.782373,0.73281 -2.641314,0.71819 z m -1.185904,-5.27078 c 0.378364,0 0.992544,-0.33104 1.434906,-0.7734 0.513485,-0.51348 0.773399,-1.04203 0.773399,-1.57274 0,-0.45954 -0.266621,-1.10932 -0.627171,-1.52848 -0.477608,-0.55526 -0.86436,-0.72913 -1.621788,-0.72913 -0.757424,0 -1.144184,0.17387 -1.621784,0.72913 -0.39036,0.45381 -0.62717,1.06434 -0.62717,1.61689 0,0.66652 0.20287,1.05848 0.81405,1.57275 0.44772,0.37674 1.111726,0.68498 1.475558,0.68498 z m 32.313156,5.2678 c -0.623139,-0.0131 -1.534705,-0.13942 -2.025706,-0.28066 -0.492146,-0.14156 -1.466876,-0.84624 -2.172253,-1.57042 -0.741434,-0.76121 -1.39461,-1.72804 -1.553191,-2.29904 -0.150516,-0.54196 -0.271717,-1.46164 -0.269333,-2.04372 0.0024,-0.58209 0.221872,-1.53459 0.487752,-2.11667 0.26588,-0.58208 1.016158,-1.54743 1.667287,-2.14522 0.824791,-0.75722 1.599288,-1.18655 2.553481,-1.41545 1.075145,-0.25793 1.654251,-0.26028 2.693529,-0.011 0.924693,0.22183 1.722438,0.67591 2.645479,1.5058 1.037855,0.93312 1.411467,1.49748 1.740395,2.62895 0.277609,0.95494 0.356396,1.81665 0.233653,2.55549 -0.101851,0.6131 -0.339886,1.41239 -0.528968,1.77619 -0.189079,0.3638 -0.800079,1.10213 -1.357775,1.64073 -0.557697,0.53859 -1.456656,1.16367 -1.997684,1.38906 -0.54103,0.22539 -1.49353,0.39906 -2.116666,0.38593 z m -1.102514,-5.2784 c 0.307798,0.006 0.864203,-0.22898 1.236456,-0.52179 0.372256,-0.29282 0.753049,-0.87944 0.846215,-1.30361 0.10528,-0.47934 0.01757,-1.06482 -0.231794,-1.54701 -0.220647,-0.42668 -0.742087,-0.917 -1.158756,-1.08959 -0.504851,-0.20912 -0.972399,-0.23168 -1.40154,-0.0676 -0.354179,0.13539 -0.841253,0.46819 -1.082389,0.73955 -0.241136,0.27136 -0.473655,0.73151 -0.516705,1.02255 -0.04305,0.29104 0.0069,0.85358 0.111061,1.25009 0.104135,0.3965 0.515247,0.89775 0.91358,1.11388 0.398333,0.21614 0.976075,0.39774 1.283872,0.40356 z"
         id="path1466"
         inkscape:connector-curvature="0" />
      <path
         style="fill:#2e2a2b;stroke-width:0.26458332"
         d="m -83.052412,280.45223 c -2.362324,-0.0194 -5.247634,-0.12966 -6.411801,-0.24513 -1.164166,-0.11547 -3.545416,-0.34874 -5.291666,-0.51838 -1.74625,-0.16964 -4.719092,-0.60448 -6.606321,-0.96632 -1.88722,-0.36183 -4.74472,-1.14038 -6.35,-1.73009 -1.60527,-0.58972 -3.97005,-1.59072 -5.25506,-2.22444 -1.28501,-0.63372 -3.24954,-1.8446 -4.36562,-2.69084 -1.11609,-0.84624 -2.86514,-2.42548 -3.88678,-3.50943 -1.02164,-1.08393 -2.41756,-2.81098 -3.10204,-3.83786 -0.68448,-1.02689 -1.72222,-2.88648 -2.30609,-4.13243 -0.58387,-1.24595 -1.42782,-3.38233 -1.87545,-4.74752 -0.44762,-1.36518 -0.99361,-3.2522 -1.21331,-4.19336 -0.2197,-0.94116 -0.56938,-3.14382 -0.77705,-4.89479 -0.20768,-1.75097 -0.4559,-5.11835 -0.55159,-7.48306 -0.0957,-2.36472 -0.22805,-4.29948 -0.29412,-4.29948 -0.0661,0 -1.1487,0.81641 -2.40585,1.81425 -1.36157,1.08073 -2.90484,2.0435 -3.817,2.38125 -0.8422,0.31185 -2.0783,0.567 -2.74689,0.567 -0.76379,0 -1.54188,-0.20165 -2.09341,-0.54251 -0.48278,-0.29837 -1.11193,-0.92345 -1.39812,-1.38906 -0.28618,-0.46561 -0.73011,-1.62047 -0.9865,-2.56635 -0.33192,-1.22453 -0.46361,-2.67222 -0.45729,-5.02708 0.007,-2.51711 0.14228,-3.79888 0.56725,-5.36482 0.30711,-1.13163 1.00299,-2.85804 1.54639,-3.83645 0.54341,-0.97842 1.36687,-2.37425 1.82993,-3.10186 0.46306,-0.7276 1.65963,-2.23137 2.65905,-3.3417 0.99942,-1.11034 2.8053,-2.83674 4.01307,-3.83646 1.20777,-0.99972 3.16259,-2.41975 4.34406,-3.15563 l 2.14811,-1.33795 0.83542,-3.55684 c 0.45948,-1.95626 1.05054,-4.21168 1.31347,-5.01204 0.26292,-0.80037 1.12361,-3.12209 1.91263,-5.15938 0.78902,-2.03729 2.15973,-5.07338 3.04601,-6.74687 0.88628,-1.67349 2.56879,-4.44971 3.73891,-6.16937 1.45522,-2.13865 3.13611,-4.13895 5.31938,-6.33015 2.19615,-2.20412 4.05856,-3.77895 5.97002,-5.04813 1.52797,-1.01456 3.89751,-2.37229 5.26564,-3.01719 1.368141,-0.64489 3.69609,-1.57695 5.173225,-2.07123 1.477134,-0.49428 3.989157,-1.10397 5.582271,-1.35487 1.922476,-0.30276 4.453673,-0.45717 7.526779,-0.45914 3.230346,-0.002 5.510122,0.14171 7.540625,0.47558 1.600729,0.26319 3.857609,0.77741 5.015288,1.1427 1.157681,0.36529 3.419869,1.22236 5.027083,1.90459 1.607217,0.68224 4.053305,1.99817 5.435751,2.92429 1.38245,0.92612 3.40651,2.42862 4.49792,3.33888 1.0914,0.91026 2.53464,2.23056 3.20718,2.93401 0.67255,0.70344 2.16083,2.49069 3.3073,3.97165 1.14646,1.48097 2.61999,3.56456 3.27451,4.63021 0.65452,1.06565 1.80013,3.1877 2.5458,4.71567 0.74567,1.52797 1.72598,3.67109 2.17848,4.7625 0.45249,1.0914 1.34759,3.71078 1.9891,5.82083 0.64151,2.11005 1.43042,4.91335 1.75313,6.22954 l 0.58675,2.39308 1.62523,1.04265 c 0.89387,0.57346 2.63726,1.89702 3.87418,2.94125 1.23693,1.04422 2.92004,2.59377 3.74026,3.44343 0.82021,0.84966 2.26188,2.68446 3.2037,4.07732 0.94183,1.39286 2.07403,3.47645 2.516,4.63021 0.44198,1.15375 0.95605,2.8121 1.14238,3.68523 0.18633,0.87312 0.33878,2.65906 0.33878,3.96875 0,1.30969 -0.15461,3.09543 -0.34358,3.96833 -0.18898,0.87289 -0.61682,2.2049 -0.95078,2.96002 -0.4812,1.0881 -0.84199,1.49275 -1.73896,1.95034 -0.88368,0.45082 -1.425,0.54714 -2.46927,0.43935 -0.73562,-0.0759 -1.99233,-0.42937 -2.79269,-0.78542 -0.80037,-0.35604 -2.34818,-1.3796 -3.43959,-2.27456 -1.0914,-0.89497 -2.07367,-1.62735 -2.18281,-1.62753 -0.10914,-1.8e-4 -0.19844,0.21007 -0.19844,0.46721 0,0.25715 -0.12569,2.37051 -0.27932,4.69636 -0.15362,2.32585 -0.62567,6.26125 -1.04899,8.74533 -0.43153,2.53229 -1.13486,5.5545 -1.60092,6.87917 -0.45719,1.29946 -1.39928,3.56961 -2.09353,5.04478 -0.69424,1.47517 -1.94617,3.6183 -2.78206,4.7625 -0.83589,1.1442 -2.13043,2.71697 -2.87676,3.49505 -0.74633,0.77807 -2.30103,2.13912 -3.45489,3.02454 -1.15386,0.88543 -3.24311,2.17785 -4.64277,2.87206 -1.39966,0.69421 -3.96794,1.73517 -5.70728,2.31324 -1.739337,0.57807 -4.076507,1.23422 -5.193708,1.45811 -1.1172,0.22389 -3.0222,0.52823 -4.233333,0.6763 -1.211133,0.14808 -4.19831,0.45016 -6.638173,0.6713 -2.439866,0.22113 -6.368928,0.38622 -8.73125,0.36686 z m 2.187157,-17.05359 c 2.983177,-0.0564 6.614583,-0.27615 8.069791,-0.4883 1.455209,-0.21214 3.690295,-0.62988 4.966856,-0.9283 1.276565,-0.29843 3.242133,-0.89781 4.367932,-1.33196 1.1258,-0.43416 3.000899,-1.37647 4.166888,-2.09402 1.35741,-0.83536 2.92692,-2.14716 4.36332,-3.64688 1.37519,-1.43582 2.69788,-3.1481 3.4179,-4.42464 0.64601,-1.14532 1.55976,-3.10829 2.03056,-4.36215 0.4708,-1.25387 1.1009,-3.50198 1.40022,-4.99582 0.29931,-1.49384 0.68959,-3.81556 0.86727,-5.15938 0.1865,-1.41049 0.31865,-5.3512 0.31262,-9.32247 -0.006,-3.78354 -0.15364,-8.42698 -0.32865,-10.31875 -0.17501,-1.89177 -0.61169,-5.34458 -0.97039,-7.67291 -0.35869,-2.32834 -0.95391,-5.36443 -1.32271,-6.74688 -0.36879,-1.38245 -1.19198,-3.79998 -1.82931,-5.37229 -0.63733,-1.57232 -1.65551,-3.69487 -2.26262,-4.71679 -0.60711,-1.02192 -1.86798,-2.66806 -2.80192,-3.65809 -1.12077,-1.18808 -2.30449,-2.11696 -3.481772,-2.7322 -0.981033,-0.51268 -2.430383,-1.12221 -3.220778,-1.35451 -0.825995,-0.24277 -2.405603,-0.42237 -3.714724,-0.42237 -1.252701,0 -2.966786,0.1795 -3.809079,0.39889 -0.84229,0.21939 -2.16825,0.70015 -2.946574,1.06836 -0.778325,0.3682 -2.406145,1.56849 -3.617378,2.66731 -1.211234,1.09882 -2.643984,2.2254 -3.18389,2.50352 -0.539906,0.27812 -1.474412,0.50567 -2.07668,0.50567 -0.602269,0 -1.49389,-0.18927 -1.981383,-0.4206 -0.487492,-0.23133 -1.897686,-1.36681 -3.133762,-2.5233 -1.527542,-1.42918 -2.791208,-2.34926 -3.945119,-2.87247 -0.933741,-0.42338 -2.506906,-0.91069 -3.495927,-1.08292 -0.989017,-0.17223 -2.821445,-0.25387 -4.072059,-0.18141 -1.796987,0.10412 -2.715997,0.3194 -4.382247,1.02654 -1.62474,0.68953 -2.55171,1.3135 -4.04089,2.72006 -1.21698,1.14946 -2.42494,2.64054 -3.26249,4.02716 -0.7315,1.21103 -1.67577,2.96444 -2.09837,3.89647 -0.4226,0.93203 -1.24432,3.34653 -1.82605,5.36555 -0.58173,2.01903 -1.30119,4.87809 -1.59881,6.35348 -0.29761,1.47539 -0.72029,4.21382 -0.93928,6.08542 -0.21899,1.87159 -0.52312,6.48081 -0.67584,10.2427 -0.1962,4.83311 -0.19435,8.05454 0.006,10.98021 0.1562,2.27722 0.40682,4.85478 0.55694,5.7279 0.15012,0.87313 0.51481,2.48047 0.81041,3.57188 0.29561,1.0914 1.22995,3.41312 2.07632,5.15937 1.1072,2.2844 2.03451,3.75069 3.30588,5.22733 0.97186,1.12879 2.50159,2.57026 3.39939,3.20329 0.8978,0.63302 2.40628,1.573 3.35216,2.08883 0.94589,0.51584 2.55323,1.23393 3.57188,1.59577 1.018644,0.36183 3.044013,0.90484 4.500819,1.2067 1.456807,0.30185 3.778525,0.67301 5.159375,0.82479 1.38085,0.15179 3.046418,0.32296 3.701261,0.38038 0.654844,0.0574 3.631407,0.0582 6.614583,0.002 z m -17.161983,-60.45501 c -0.674608,-0.0115 -1.583745,-0.14575 -2.020312,-0.29835 -0.43656,-0.1526 -1.17804,-0.56396 -1.64774,-0.91412 -0.4697,-0.35016 -1.15383,-1.14828 -1.52029,-1.7736 -0.36646,-0.62531 -0.74055,-1.67874 -0.83132,-2.34095 -0.11047,-0.80596 -0.0214,-1.63646 0.26942,-2.51201 0.2624,-0.79003 0.87006,-1.74796 1.53448,-2.41903 0.77101,-0.77871 1.52774,-1.23537 2.529957,-1.52672 0.896183,-0.26053 1.787331,-0.34864 2.38748,-0.23605 0.526664,0.0988 1.379826,0.39739 1.89592,0.66354 0.516091,0.26614 1.311177,0.88128 1.766858,1.36697 0.455681,0.48569 0.974818,1.34134 1.153636,1.90144 0.178819,0.5601 0.276752,1.77804 0.217628,2.70653 -0.08519,1.3379 -0.2706,1.92025 -0.893569,2.80663 -0.486154,0.69171 -1.325864,1.40044 -2.200834,1.85753 -0.990734,0.51756 -1.782373,0.73281 -2.641314,0.71819 z m -1.185904,-5.27078 c 0.378364,0 0.992544,-0.33104 1.434906,-0.7734 0.513485,-0.51348 0.773399,-1.04203 0.773399,-1.57274 0,-0.45954 -0.266621,-1.10932 -0.627171,-1.52848 -0.477608,-0.55526 -0.86436,-0.72913 -1.621788,-0.72913 -0.757424,0 -1.144184,0.17387 -1.621784,0.72913 -0.39036,0.45381 -0.62717,1.06434 -0.62717,1.61689 0,0.66652 0.20287,1.05848 0.81405,1.57275 0.44772,0.37674 1.111726,0.68498 1.475558,0.68498 z m 32.313156,5.2678 c -0.623139,-0.0131 -1.534705,-0.13942 -2.025706,-0.28066 -0.492146,-0.14156 -1.466876,-0.84624 -2.172253,-1.57042 -0.741434,-0.76121 -1.39461,-1.72804 -1.553191,-2.29904 -0.150516,-0.54196 -0.271717,-1.46164 -0.269333,-2.04372 0.0024,-0.58209 0.221872,-1.53459 0.487752,-2.11667 0.26588,-0.58208 1.016158,-1.54743 1.667287,-2.14522 0.824791,-0.75722 1.599288,-1.18655 2.553481,-1.41545 1.075145,-0.25793 1.654251,-0.26028 2.693529,-0.011 0.924693,0.22183 1.722438,0.67591 2.645479,1.5058 1.037855,0.93312 1.411467,1.49748 1.740395,2.62895 0.277609,0.95494 0.356396,1.81665 0.233653,2.55549 -0.101851,0.6131 -0.339886,1.41239 -0.528968,1.77619 -0.189079,0.3638 -0.800079,1.10213 -1.357775,1.64073 -0.557697,0.53859 -1.456656,1.16367 -1.997684,1.38906 -0.54103,0.22539 -1.49353,0.39906 -2.116666,0.38593 z m -1.102514,-5.2784 c 0.307798,0.006 0.864203,-0.22898 1.236456,-0.52179 0.372256,-0.29282 0.753049,-0.87944 0.846215,-1.30361 0.10528,-0.47934 0.01757,-1.06482 -0.231794,-1.54701 -0.220647,-0.42668 -0.742087,-0.917 -1.158756,-1.08959 -0.504851,-0.20912 -0.972399,-0.23168 -1.40154,-0.0676 -0.354179,0.13539 -0.841253,0.46819 -1.082389,0.73955 -0.241136,0.27136 -0.473655,0.73151 -0.516705,1.02255 -0.04305,0.29104 0.0069,0.85358 0.111061,1.25009 0.104135,0.3965 0.515247,0.89775 0.91358,1.11388 0.398333,0.21614 0.976075,0.39774 1.283872,0.40356 z"
         id="path1464"
         inkscape:connector-curvature="0" />
      <path
         style="fill:#221e1f;stroke-width:0.26458332"
         d="m -83.114213,280.44729 c -2.328333,-0.0186 -5.840677,-0.18848 -7.805208,-0.37745 -1.964531,-0.18898 -4.464844,-0.47448 -5.55625,-0.63445 -1.091406,-0.15998 -3.472656,-0.59344 -5.291669,-0.96325 -1.81901,-0.36981 -4.49791,-1.09695 -5.95312,-1.61588 -1.45521,-0.51892 -2.88396,-1.0945 -3.175,-1.27906 -0.29104,-0.18456 -1.30307,-0.65757 -2.24896,-1.05113 -0.94588,-0.39357 -2.79135,-1.52131 -4.10104,-2.5061 -1.30969,-0.98478 -2.98181,-2.42927 -3.71583,-3.20997 -0.73402,-0.7807 -2.05684,-2.43919 -2.93961,-3.68555 -0.88276,-1.24635 -2.02793,-3.21088 -2.54481,-4.36562 -0.51688,-1.15474 -1.13866,-2.57578 -1.38172,-3.15786 -0.24306,-0.58208 -0.66541,-1.77271 -0.93855,-2.64583 -0.27313,-0.87313 -0.79784,-3.37344 -1.16602,-5.55625 -0.36818,-2.18282 -0.78866,-5.93328 -0.93439,-8.33438 -0.14573,-2.40109 -0.26603,-4.75258 -0.26733,-5.22552 -0.001,-0.47294 -0.12501,-0.85989 -0.27492,-0.85989 -0.1499,0 -1.06289,0.67046 -2.02886,1.48993 -0.96598,0.81946 -2.53292,1.85334 -3.48211,2.29752 -0.96076,0.4496 -2.31916,0.85336 -3.06436,0.91083 -1.12078,0.0864 -1.51966,-0.016 -2.45154,-0.62939 -0.92401,-0.60823 -1.22582,-1.03705 -1.77758,-2.52562 -0.36553,-0.98615 -0.79218,-2.81972 -0.94812,-4.0746 -0.20032,-1.612 -0.20136,-2.87235 -0.004,-4.29457 0.15399,-1.10713 0.52946,-2.85196 0.83437,-3.87739 0.30492,-1.02543 0.82786,-2.40496 1.1621,-3.06561 0.33423,-0.66066 1.18392,-2.03543 1.88818,-3.05505 0.70426,-1.01962 1.93532,-2.5965 2.73568,-3.50417 0.80037,-0.90768 2.40771,-2.45859 3.57188,-3.44647 1.16417,-0.98788 3.19827,-2.52816 4.52023,-3.42285 2.40123,-1.62512 2.4039,-1.62818 2.74499,-3.15236 0.18779,-0.83912 0.85064,-3.31314 1.47301,-5.49783 0.62237,-2.18469 1.73651,-5.42949 2.47587,-7.21067 0.73936,-1.78118 1.77762,-4.10289 2.30723,-5.15937 0.52961,-1.05648 1.45176,-2.75431 2.04923,-3.77296 0.59746,-1.01864 1.91181,-2.98317 2.92076,-4.36562 1.00896,-1.38245 3.15476,-3.82489 4.76845,-5.42765 1.61369,-1.60275 4.00554,-3.67579 5.31523,-4.60675 1.30969,-0.93096 3.97125,-2.4554 5.91458,-3.38763 1.943325,-0.93224 4.443638,-1.92861 5.556245,-2.21415 1.112607,-0.28555 3.332609,-0.74649 4.933339,-1.02433 1.600729,-0.27784 3.981979,-0.58182 5.291666,-0.67551 1.309687,-0.0937 3.81,-0.0378 5.55625,0.12427 1.74625,0.16203 4.656539,0.599 6.46731,0.97103 1.810769,0.37203 4.192019,1.03268 5.291667,1.46809 1.099645,0.43542 3.057522,1.32015 4.350837,1.96607 1.293315,0.64591 3.495968,1.96524 4.894788,2.93185 1.39882,0.9666 3.52557,2.67449 4.7261,3.79531 1.20054,1.12081 3.08136,3.15555 4.1796,4.52164 1.09824,1.36609 2.64821,3.49583 3.44438,4.73276 0.79616,1.23693 2.31803,4.03489 3.38193,6.21771 1.06391,2.18281 2.12388,4.50453 2.3555,5.15937 0.23162,0.65485 0.96289,2.91703 1.62505,5.02708 0.66215,2.11006 1.4604,4.87939 1.77389,6.15408 l 0.56997,2.31762 2.10267,1.42215 c 1.15647,0.78219 3.11183,2.28847 4.34524,3.3473 1.23341,1.05883 2.95352,2.80892 3.82247,3.88908 0.86895,1.08017 2.05056,2.657 2.6258,3.50409 0.57524,0.84707 1.3993,2.42979 1.83125,3.51715 0.43194,1.08735 0.98656,2.73584 1.23248,3.66329 0.27558,1.03928 0.4486,2.70145 0.45094,4.33212 0.002,1.62901 -0.16614,3.30001 -0.4384,4.34804 -0.24321,0.93622 -0.70696,2.17583 -1.03055,2.75469 -0.32359,0.57886 -0.90216,1.28447 -1.28572,1.56803 -0.38356,0.28355 -1.22316,0.57481 -1.86577,0.64724 -0.913,0.10291 -1.58629,-0.0461 -3.0803,-0.68189 -1.12671,-0.47946 -2.80533,-1.5325 -4.08736,-2.56411 l -2.17544,-1.75052 -0.16973,1.54343 c -0.0933,0.84888 -0.18264,2.34099 -0.19843,3.31581 -0.0158,0.97481 -0.2127,3.17746 -0.43757,4.89479 -0.22486,1.71732 -0.75239,4.7937 -1.17229,6.8364 -0.41989,2.0427 -1.01666,4.36442 -1.32615,5.15938 -0.3095,0.79495 -1.11498,2.636 -1.78996,4.09121 -0.67498,1.4552 -1.90303,3.59833 -2.729,4.7625 -0.82597,1.16416 -2.05613,2.73317 -2.73369,3.48667 -0.67755,0.75351 -2.41993,2.27156 -3.87194,3.37344 -1.45201,1.10189 -2.74349,2.00343 -2.86996,2.00343 -0.12647,0 -1.40569,0.5492 -2.8427,1.22045 -1.43701,0.67126 -3.26759,1.45079 -4.06796,1.7323 -0.80036,0.28151 -3.025352,0.8567 -4.944425,1.2782 -1.91907,0.42151 -4.419383,0.89342 -5.55625,1.0487 -1.136864,0.15528 -3.972028,0.45821 -6.300361,0.6732 -2.328333,0.21498 -6.138333,0.37564 -8.466666,0.35701 z m 0.132292,-16.93184 c 2.110052,0.0188 5.205676,-0.0866 6.879166,-0.23421 1.673489,-0.14759 4.249044,-0.44702 5.723453,-0.66542 1.474412,-0.21839 3.677068,-0.73439 4.894791,-1.14665 1.217727,-0.41227 3.107016,-1.19727 4.198422,-1.74447 1.091406,-0.54719 2.698751,-1.50238 3.571871,-2.12265 0.87313,-0.62027 2.18934,-1.76723 2.92492,-2.5488 0.73558,-0.78156 1.81752,-2.1354 2.40431,-3.00853 0.58678,-0.87312 1.55587,-2.65906 2.15352,-3.96875 0.59765,-1.30969 1.39573,-3.45281 1.7735,-4.7625 0.37777,-1.30969 0.88206,-3.92906 1.12064,-5.82083 0.30708,-2.4349 0.4347,-5.56489 0.43694,-10.71563 0.002,-4.00182 -0.14636,-9.06198 -0.32909,-11.24479 -0.18273,-2.18281 -0.51125,-5.15937 -0.73006,-6.61458 -0.2188,-1.45521 -0.67883,-3.77754 -1.0223,-5.16074 -0.34346,-1.3832 -1.09379,-3.88663 -1.6674,-5.56318 -0.5736,-1.67655 -1.36082,-3.64046 -1.74937,-4.36426 -0.38855,-0.72379 -1.12684,-1.99226 -1.64065,-2.81881 -0.51381,-0.82656 -1.90806,-2.4363 -3.09833,-3.57721 -1.80798,-1.733 -2.490691,-2.1993 -4.148501,-2.8335 -1.554821,-0.5948 -2.557113,-0.78538 -4.630208,-0.88038 -1.455209,-0.0667 -3.241146,-0.003 -3.96875,0.14252 -0.727604,0.14507 -2.037292,0.5248 -2.910417,0.84383 -0.873125,0.31903 -2.123281,1.00791 -2.778124,1.53083 -0.654844,0.52293 -1.87084,1.58781 -2.702214,2.3664 -0.831373,0.7786 -1.928878,1.58999 -2.438897,1.80309 -0.510021,0.2131 -1.353764,0.38745 -1.874988,0.38745 -0.521224,0 -1.315064,-0.18998 -1.764088,-0.42218 -0.449025,-0.2322 -1.831475,-1.37831 -3.072112,-2.54692 -1.427173,-1.3443 -2.785845,-2.35918 -3.699031,-2.76304 -0.793832,-0.35107 -2.173671,-0.81054 -3.066311,-1.02105 -0.892641,-0.2105 -2.673554,-0.3845 -3.957582,-0.38665 -1.806022,-0.003 -2.794449,0.1493 -4.365629,0.67277 -1.11706,0.37218 -2.50727,0.98846 -3.08935,1.36952 -0.58209,0.38105 -1.85624,1.53507 -2.83146,2.56446 -1.42538,1.50458 -2.13955,2.59807 -3.64159,5.5758 -1.07192,2.12504 -2.10343,4.60653 -2.41962,5.82083 -0.30312,1.16417 -0.83409,3.22062 -1.17992,4.56989 -0.34583,1.34927 -0.82064,3.55192 -1.05514,4.89479 -0.2345,1.34286 -0.59531,3.92985 -0.8018,5.74886 -0.20649,1.81901 -0.44942,6.64105 -0.53983,10.71563 -0.10282,4.6334 -0.0553,8.65001 0.12698,10.72329 0.16026,1.82322 0.58139,4.45821 0.93585,5.85554 0.35446,1.39732 0.96401,3.29887 1.35456,4.22567 0.39054,0.92679 0.88586,2.1583 1.10071,2.73667 0.21484,0.57837 0.94317,1.82853 1.61851,2.77812 0.67533,0.9496 1.76804,2.30737 2.42823,3.01728 0.66019,0.70991 1.85519,1.79519 2.65556,2.41172 0.80036,0.61653 2.52677,1.65861 3.83646,2.31573 1.30968,0.65712 3.39328,1.51453 4.630203,1.90537 1.236927,0.39083 3.439583,0.88511 4.894791,1.09841 1.455208,0.21329 3.776927,0.48665 5.159375,0.60747 1.382448,0.12081 4.239948,0.23502 6.35,0.25379 z m -14.2875,-60.75851 c -0.654843,0.0722 -1.42875,0.0843 -1.719791,0.0269 -0.291042,-0.0575 -0.800061,-0.1624 -1.131148,-0.23319 -0.33109,-0.0708 -1.07263,-0.5539 -1.64787,-1.0736 -0.57524,-0.51969 -1.30795,-1.36892 -1.62825,-1.88718 -0.42459,-0.68699 -0.58744,-1.37898 -0.60109,-2.55412 -0.0152,-1.31214 0.11985,-1.84758 0.72657,-2.87976 0.40991,-0.69736 1.22341,-1.61427 1.80778,-2.03758 0.58436,-0.42331 1.588431,-0.84853 2.231263,-0.94493 0.642832,-0.0964 1.704951,-0.0949 2.360266,0.003 0.72821,0.10921 1.628365,0.51112 2.315104,1.03368 0.617992,0.47025 1.349885,1.3261 1.626425,1.90189 0.276543,0.57579 0.556805,1.58353 0.622806,2.23944 0.066,0.65589 -0.01783,1.70444 -0.186309,2.33009 -0.168471,0.62566 -0.737442,1.61477 -1.264378,2.19802 -0.526939,0.58326 -1.264674,1.21462 -1.639411,1.40304 -0.374737,0.18841 -1.217123,0.40168 -1.871967,0.47393 z m -2.150332,-5.08409 c 0.431274,0 0.976871,-0.074 1.212437,-0.16436 0.235564,-0.0904 0.602491,-0.5012 0.815391,-0.9129 0.212897,-0.4117 0.387088,-1.06127 0.387088,-1.4435 0,-0.41532 -0.31119,-1.00614 -0.773399,-1.46834 -0.442362,-0.44237 -1.056542,-0.7734 -1.434906,-0.7734 -0.363832,0 -1.027838,0.30824 -1.475558,0.68498 -0.65643,0.55234 -0.81405,0.88767 -0.81405,1.73181 0,0.75869 0.17876,1.22561 0.64943,1.69627 0.39734,0.39735 0.953803,0.64944 1.433567,0.64944 z m 33.371164,5.0896 c -0.654844,0.0692 -1.42875,0.0788 -1.719792,0.0214 -0.291041,-0.0575 -0.804095,-0.16341 -1.140118,-0.23544 -0.336021,-0.072 -1.157269,-0.63293 -1.824995,-1.24647 -0.667724,-0.61353 -1.375061,-1.49864 -1.571861,-1.96691 -0.196799,-0.46827 -0.355203,-1.53983 -0.352007,-2.38125 0.0035,-0.9119 0.203409,-1.96491 0.494996,-2.6069 0.269052,-0.59238 0.951047,-1.45852 1.515544,-1.92476 0.564496,-0.46624 1.502608,-0.97694 2.084692,-1.13489 0.582083,-0.15796 1.671034,-0.22443 2.419892,-0.14772 0.854252,0.0875 1.76504,0.40648 2.444467,0.8561 0.5956,0.39415 1.441415,1.25788 1.879586,1.9194 0.691211,1.04354 0.796679,1.44264 0.796679,3.01475 0,1.45569 -0.123838,2.00604 -0.629801,2.79891 -0.34639,0.54281 -0.911936,1.23906 -1.256771,1.54722 -0.344834,0.30816 -0.924626,0.7404 -1.288428,0.96053 -0.363802,0.22012 -1.197239,0.45685 -1.852083,0.52607 z m -2.185442,-5.0896 c 0.493522,0 1.137301,-0.12844 1.430618,-0.28542 0.293317,-0.15698 0.683776,-0.64328 0.867687,-1.08067 0.18391,-0.4374 0.281218,-1.07336 0.216242,-1.41326 -0.06497,-0.3399 -0.347493,-0.86419 -0.62782,-1.16508 -0.280323,-0.3009 -0.806352,-0.62154 -1.168952,-0.71255 -0.362599,-0.091 -1.019763,-0.0161 -1.460363,0.16636 -0.4406,0.1825 -0.983758,0.68506 -1.207018,1.1168 -0.24855,0.48064 -0.338688,1.05602 -0.232495,1.48408 0.09539,0.38452 0.423489,0.967 0.72911,1.29443 0.365066,0.3911 0.863473,0.59531 1.452991,0.59531 z"
         id="path1462"
         inkscape:connector-curvature="0" />
    </g>
  </g>
</svg>
